NotoSansModi-Regular.ufo
<glyph name="uniA830" format="2">
  <advance width="237"/>
  <unicode hex="A830"/>
  <outline>
    <contour>
      <point x="159" y="0" type="line"/>
      <point x="159" y="622" type="line"/>
      <point x="78" y="622" type="line"/>
      <point x="78" y="0" type="line"/>
    </contour>
  </outline>
</glyph>
<glyph name="uniA839" format="2">
  <advance width="337"/>
  <unicode hex="A839"/>
  <outline>
    <contour>
      <point x="-157" y="-237" type="line"/>
      <point x="-138" y="-239"/>
      <point x="-119" y="-240"/>
      <point x="-100" y="-240" type="curve" smooth="yes"/>
      <point x="136" y="-240"/>
      <point x="257" y="-141"/>
      <point x="257" y="30" type="curve" smooth="yes"/>
      <point x="257" y="102"/>
      <point x="235" y="175"/>
      <point x="202" y="250" type="curve" smooth="yes"/>
      <point x="161" y="343"/>
      <point x="146" y="380"/>
      <point x="146" y="421" type="curve" smooth="yes"/>
      <point x="146" y="490"/>
      <point x="204" y="533"/>
      <point x="337" y="558" type="curve"/>
      <point x="313" y="633" type="line"/>
      <point x="148" y="598"/>
      <point x="65" y="528"/>
      <point x="65" y="421" type="curve" smooth="yes"/>
      <point x="65" y="362"/>
      <point x="85" y="309"/>
      <point x="121" y="230" type="curve" smooth="yes"/>
      <point x="154" y="157"/>
      <point x="176" y="93"/>
      <point x="176" y="29" type="curve" smooth="yes"/>
      <point x="176" y="-13"/>
      <point x="166" y="-49"/>
      <point x="145" y="-78" type="curve" smooth="yes"/>
      <point x="103" y="-137"/>
      <point x="19" y="-165"/>
      <point x="-104" y="-165" type="curve" smooth="yes"/>
      <point x="-125" y="-165"/>
      <point x="-142" y="-164"/>
      <point x="-155" y="-162" type="curve"/>
    </contour>
  </outline>
</glyph>
<glyph name="U_iv" format="2">
  <advance width="742"/>
  <unicode hex="11604"/>
  <outline>
    <contour>
      <point x="284" y="273" type="curve"/>
      <point x="274" y="204" type="line"/>
      <point x="326" y="199"/>
      <point x="350" y="165"/>
      <point x="350" y="129" type="curve" smooth="yes"/>
      <point x="350" y="90"/>
      <point x="318" y="61"/>
      <point x="274" y="61" type="curve" smooth="yes"/>
      <point x="206" y="61"/>
      <point x="141" y="140"/>
      <point x="141" y="338" type="curve" smooth="yes"/>
      <point x="141" y="410"/>
      <point x="149" y="486"/>
      <point x="171" y="551" type="curve"/>
      <point x="576" y="551" type="line"/>
      <point x="594" y="495"/>
      <point x="602" y="434"/>
      <point x="602" y="381" type="curve" smooth="yes"/>
      <point x="602" y="254"/>
      <point x="577" y="113"/>
      <point x="542" y="15" type="curve"/>
      <point x="614" y="-17" type="line"/>
      <point x="656" y="98"/>
      <point x="682" y="251"/>
      <point x="682" y="382" type="curve" smooth="yes"/>
      <point x="682" y="440"/>
      <point x="674" y="498"/>
      <point x="658" y="551" type="curve"/>
      <point x="752" y="551" type="line"/>
      <point x="752" y="622" type="line"/>
      <point x="631" y="622" type="line"/>
      <point x="581" y="726"/>
      <point x="497" y="800"/>
      <point x="382" y="800" type="curve" smooth="yes"/>
      <point x="258" y="800"/>
      <point x="169" y="731"/>
      <point x="116" y="622" type="curve"/>
      <point x="0" y="622" type="line"/>
      <point x="0" y="551" type="line"/>
      <point x="88" y="551" type="line"/>
      <point x="69" y="488"/>
      <point x="60" y="417"/>
      <point x="60" y="340" type="curve" smooth="yes"/>
      <point x="60" y="117"/>
      <point x="141" y="-10"/>
      <point x="273" y="-10" type="curve" smooth="yes"/>
      <point x="366" y="-10"/>
      <point x="431" y="52"/>
      <point x="431" y="132" type="curve" smooth="yes"/>
      <point x="431" y="207"/>
      <point x="374" y="268"/>
    </contour>
    <contour>
      <point x="378" y="726" type="curve" smooth="yes"/>
      <point x="456" y="726"/>
      <point x="509" y="683"/>
      <point x="545" y="622" type="curve"/>
      <point x="203" y="622" type="line"/>
      <point x="240" y="684"/>
      <point x="296" y="726"/>
    </contour>
  </outline>
</glyph>
<glyph name="UU_iv" format="2">
  <advance width="742"/>
  <unicode hex="11605"/>
  <outline>
    <contour>
      <point x="752" y="551" type="line"/>
      <point x="752" y="622" type="line"/>
      <point x="625" y="622" type="line"/>
      <point x="578" y="729"/>
      <point x="499" y="800"/>
      <point x="382" y="800" type="curve" smooth="yes"/>
      <point x="258" y="800"/>
      <point x="169" y="731"/>
      <point x="116" y="622" type="curve"/>
      <point x="0" y="622" type="line"/>
      <point x="0" y="551" type="line"/>
      <point x="88" y="551" type="line"/>
      <point x="69" y="488"/>
      <point x="60" y="417"/>
      <point x="60" y="340" type="curve" smooth="yes"/>
      <point x="60" y="117"/>
      <point x="141" y="-10"/>
      <point x="255" y="-10" type="curve" smooth="yes"/>
      <point x="336" y="-10"/>
      <point x="391" y="52"/>
      <point x="391" y="132" type="curve" smooth="yes"/>
      <point x="391" y="207"/>
      <point x="334" y="268"/>
      <point x="244" y="273" type="curve"/>
      <point x="234" y="204" type="line"/>
      <point x="286" y="199"/>
      <point x="310" y="165"/>
      <point x="310" y="129" type="curve" smooth="yes"/>
      <point x="310" y="90"/>
      <point x="288" y="61"/>
      <point x="257" y="61" type="curve" smooth="yes"/>
      <point x="206" y="61"/>
      <point x="141" y="140"/>
      <point x="141" y="338" type="curve" smooth="yes"/>
      <point x="141" y="410"/>
      <point x="149" y="486"/>
      <point x="171" y="551" type="curve"/>
      <point x="572" y="551" type="line"/>
      <point x="578" y="533"/>
      <point x="582" y="516"/>
      <point x="586" y="498" type="curve"/>
      <point x="502" y="414"/>
      <point x="443" y="251"/>
      <point x="443" y="139" type="curve" smooth="yes"/>
      <point x="443" y="46"/>
      <point x="482" y="-10"/>
      <point x="550" y="-10" type="curve" smooth="yes"/>
      <point x="677" y="-10"/>
      <point x="685" y="180"/>
      <point x="685" y="282" type="curve" smooth="yes"/>
      <point x="685" y="378"/>
      <point x="674" y="471"/>
      <point x="651" y="551" type="curve"/>
    </contour>
    <contour>
      <point x="378" y="726" type="curve" smooth="yes"/>
      <point x="457" y="726"/>
      <point x="509" y="683"/>
      <point x="543" y="622" type="curve"/>
      <point x="203" y="622" type="line"/>
      <point x="240" y="684"/>
      <point x="296" y="726"/>
    </contour>
    <contour>
      <point x="605" y="280" type="curve" smooth="yes"/>
      <point x="605" y="161"/>
      <point x="590" y="60"/>
      <point x="554" y="60" type="curve" smooth="yes"/>
      <point x="541" y="60"/>
      <point x="523" y="75"/>
      <point x="523" y="134" type="curve" smooth="yes"/>
      <point x="523" y="190"/>
      <point x="536" y="314"/>
      <point x="600" y="401" type="curve"/>
      <point x="604" y="356"/>
      <point x="605" y="313"/>
    </contour>
  </outline>
</glyph>
<glyph name="E_iv" format="2">
  <advance width="756"/>
  <unicode hex="1160A"/>
  <outline>
    <contour>
      <point x="0" y="622" type="line"/>
      <point x="0" y="551" type="line"/>
      <point x="132" y="551" type="line"/>
      <point x="121" y="543"/>
      <point x="111" y="534"/>
      <point x="102" y="525" type="curve"/>
      <point x="151" y="468" type="line"/>
      <point x="179" y="496"/>
      <point x="215" y="530"/>
      <point x="270" y="530" type="curve" smooth="yes"/>
      <point x="312" y="530"/>
      <point x="333" y="500"/>
      <point x="333" y="470" type="curve" smooth="yes"/>
      <point x="333" y="435"/>
      <point x="315" y="399"/>
      <point x="263" y="398" type="curve"/>
      <point x="263" y="333" type="line"/>
      <point x="273" y="333" type="line"/>
      <point x="334" y="328"/>
      <point x="342" y="289"/>
      <point x="342" y="266" type="curve" smooth="yes"/>
      <point x="342" y="232"/>
      <point x="320" y="198"/>
      <point x="250" y="198" type="curve" smooth="yes"/>
      <point x="216" y="198"/>
      <point x="128" y="209"/>
      <point x="99" y="350" type="curve"/>
      <point x="26" y="335" type="line"/>
      <point x="58" y="169"/>
      <point x="174" y="124"/>
      <point x="250" y="124" type="curve" smooth="yes"/>
      <point x="263" y="124" type="line"/>
      <point x="289" y="51"/>
      <point x="363" y="-10"/>
      <point x="460" y="-10" type="curve" smooth="yes"/>
      <point x="626" y="-10"/>
      <point x="676" y="124"/>
      <point x="676" y="282" type="curve" smooth="yes"/>
      <point x="676" y="551" type="line"/>
      <point x="766" y="551" type="line"/>
      <point x="766" y="622" type="line"/>
    </contour>
    <contour>
      <point x="461" y="63" type="curve" smooth="yes"/>
      <point x="408" y="63"/>
      <point x="360" y="99"/>
      <point x="341" y="141" type="curve"/>
      <point x="398" y="166"/>
      <point x="423" y="216"/>
      <point x="423" y="268" type="curve" smooth="yes"/>
      <point x="423" y="299"/>
      <point x="407" y="341"/>
      <point x="368" y="369" type="curve"/>
      <point x="397" y="395"/>
      <point x="413" y="431"/>
      <point x="413" y="468" type="curve" smooth="yes"/>
      <point x="413" y="498"/>
      <point x="403" y="527"/>
      <point x="385" y="551" type="curve"/>
      <point x="596" y="551" type="line"/>
      <point x="596" y="282" type="line" smooth="yes"/>
      <point x="596" y="109"/>
      <point x="536" y="63"/>
    </contour>
    <contour>
      <point x="329" y="848" type="curve"/>
      <point x="348" y="781" type="line"/>
      <point x="525" y="771"/>
      <point x="567" y="694"/>
      <point x="593" y="615" type="curve"/>
      <point x="675" y="615" type="line"/>
      <point x="650" y="717"/>
      <point x="569" y="848"/>
    </contour>
  </outline>
</glyph>
<glyph name="Ka" format="2">
  <advance width="655"/>
  <unicode hex="1160E"/>
  <outline>
    <contour>
      <point x="0" y="622" type="line"/>
      <point x="0" y="551" type="line"/>
      <point x="101" y="551" type="line"/>
      <point x="57" y="493"/>
      <point x="40" y="452"/>
      <point x="40" y="395" type="curve" smooth="yes"/>
      <point x="40" y="288"/>
      <point x="110" y="223"/>
      <point x="110" y="131" type="curve" smooth="yes"/>
      <point x="110" y="101"/>
      <point x="103" y="56"/>
      <point x="93" y="16" type="curve"/>
      <point x="91" y="11"/>
      <point x="89" y="5"/>
      <point x="88" y="0" type="curve"/>
      <point x="165" y="0" type="line"/>
      <point x="198" y="141"/>
      <point x="292" y="176"/>
      <point x="411" y="178" type="curve"/>
      <point x="414" y="56"/>
      <point x="456" y="-10"/>
      <point x="533" y="-10" type="curve" smooth="yes"/>
      <point x="618" y="-10"/>
      <point x="635" y="58"/>
      <point x="635" y="85" type="curve" smooth="yes"/>
      <point x="635" y="143"/>
      <point x="587" y="214"/>
      <point x="492" y="239" type="curve"/>
      <point x="496" y="314"/>
      <point x="511" y="422"/>
      <point x="556" y="551" type="curve"/>
      <point x="665" y="551" type="line"/>
      <point x="665" y="622" type="line"/>
    </contour>
    <contour>
      <point x="413" y="248" type="curve"/>
      <point x="318" y="247"/>
      <point x="242" y="226"/>
      <point x="186" y="175" type="curve"/>
      <point x="171" y="257"/>
      <point x="120" y="318"/>
      <point x="120" y="402" type="curve" smooth="yes"/>
      <point x="120" y="444"/>
      <point x="133" y="487"/>
      <point x="199" y="551" type="curve"/>
      <point x="474" y="551" type="line"/>
      <point x="443" y="455"/>
      <point x="421" y="335"/>
    </contour>
    <contour>
      <point x="560" y="89" type="curve" smooth="yes"/>
      <point x="560" y="81"/>
      <point x="552" y="60"/>
      <point x="534" y="60" type="curve" smooth="yes"/>
      <point x="513" y="60"/>
      <point x="493" y="81"/>
      <point x="491" y="167" type="curve"/>
      <point x="542" y="149"/>
      <point x="560" y="112"/>
    </contour>
  </outline>
</glyph>
<glyph name="Kha" format="2">
  <advance width="694"/>
  <unicode hex="1160F"/>
  <outline>
    <contour>
      <point x="704" y="551" type="line"/>
      <point x="704" y="622" type="line"/>
      <point x="290" y="622" type="line"/>
      <point x="295" y="639"/>
      <point x="298" y="658"/>
      <point x="298" y="679" type="curve" smooth="yes"/>
      <point x="298" y="744"/>
      <point x="256" y="800"/>
      <point x="166" y="800" type="curve" smooth="yes"/>
      <point x="120" y="800"/>
      <point x="79" y="787"/>
      <point x="40" y="732" type="curve"/>
      <point x="101" y="692" type="line"/>
      <point x="113" y="710"/>
      <point x="139" y="728"/>
      <point x="164" y="728" type="curve" smooth="yes"/>
      <point x="209" y="728"/>
      <point x="218" y="698"/>
      <point x="218" y="675" type="curve" smooth="yes"/>
      <point x="218" y="656"/>
      <point x="213" y="639"/>
      <point x="206" y="622" type="curve"/>
      <point x="0" y="622" type="line"/>
      <point x="0" y="551" type="line"/>
      <point x="157" y="551" type="line"/>
      <point x="111" y="496"/>
      <point x="55" y="443"/>
      <point x="55" y="376" type="curve" smooth="yes"/>
      <point x="55" y="329"/>
      <point x="81" y="269"/>
      <point x="171" y="262" type="curve"/>
      <point x="154" y="235"/>
      <point x="146" y="205"/>
      <point x="146" y="171" type="curve" smooth="yes"/>
      <point x="146" y="67"/>
      <point x="221" y="-10"/>
      <point x="357" y="-10" type="curve" smooth="yes"/>
      <point x="553" y="-10"/>
      <point x="634" y="155"/>
      <point x="634" y="310" type="curve" smooth="yes"/>
      <point x="634" y="409"/>
      <point x="612" y="493"/>
      <point x="590" y="551" type="curve"/>
    </contour>
    <contour>
      <point x="304" y="293" type="curve"/>
      <point x="274" y="355" type="line"/>
      <point x="242" y="339"/>
      <point x="221" y="332"/>
      <point x="189" y="332" type="curve" smooth="yes"/>
      <point x="156" y="332"/>
      <point x="135" y="346"/>
      <point x="135" y="376" type="curve" smooth="yes"/>
      <point x="135" y="437"/>
      <point x="206" y="482"/>
      <point x="255" y="551" type="curve"/>
      <point x="509" y="551" type="line"/>
      <point x="531" y="495"/>
      <point x="554" y="407"/>
      <point x="554" y="311" type="curve" smooth="yes"/>
      <point x="554" y="135"/>
      <point x="462" y="64"/>
      <point x="361" y="64" type="curve" smooth="yes"/>
      <point x="264" y="64"/>
      <point x="226" y="123"/>
      <point x="226" y="172" type="curve" smooth="yes"/>
      <point x="226" y="230"/>
      <point x="256" y="263"/>
    </contour>
  </outline>
</glyph>
<glyph name="Ga" format="2">
  <advance width="662"/>
  <unicode hex="11610"/>
  <outline>
    <contour>
      <point x="582" y="0" type="line"/>
      <point x="582" y="551" type="line"/>
      <point x="672" y="551" type="line"/>
      <point x="672" y="622" type="line"/>
      <point x="0" y="622" type="line"/>
      <point x="0" y="551" type="line"/>
      <point x="187" y="551" type="line"/>
      <point x="222" y="459"/>
      <point x="237" y="361"/>
      <point x="242" y="289" type="curve"/>
      <point x="223" y="298"/>
      <point x="202" y="304"/>
      <point x="179" y="304" type="curve" smooth="yes"/>
      <point x="94" y="304"/>
      <point x="40" y="251"/>
      <point x="40" y="176" type="curve" smooth="yes"/>
      <point x="40" y="88"/>
      <point x="106" y="45"/>
      <point x="177" y="45" type="curve" smooth="yes"/>
      <point x="288" y="45"/>
      <point x="325" y="145"/>
      <point x="325" y="236" type="curve" smooth="yes"/>
      <point x="325" y="293"/>
      <point x="315" y="428"/>
      <point x="274" y="551" type="curve"/>
      <point x="502" y="551" type="line"/>
      <point x="502" y="0" type="line"/>
    </contour>
    <contour>
      <point x="177" y="116" type="curve" smooth="yes"/>
      <point x="139" y="116"/>
      <point x="120" y="146"/>
      <point x="120" y="176" type="curve" smooth="yes"/>
      <point x="120" y="213"/>
      <point x="152" y="233"/>
      <point x="180" y="233" type="curve" smooth="yes"/>
      <point x="206" y="233"/>
      <point x="227" y="221"/>
      <point x="244" y="206" type="curve"/>
      <point x="240" y="165"/>
      <point x="223" y="116"/>
    </contour>
  </outline>
</glyph>
<glyph name="Gha" format="2">
  <advance width="636"/>
  <unicode hex="11611"/>
  <outline>
    <contour>
      <point x="556" y="0" type="line"/>
      <point x="556" y="551" type="line"/>
      <point x="646" y="551" type="line"/>
      <point x="646" y="622" type="line"/>
      <point x="0" y="622" type="line"/>
      <point x="0" y="551" type="line"/>
      <point x="75" y="551" type="line"/>
      <point x="51" y="514"/>
      <point x="40" y="476"/>
      <point x="40" y="444" type="curve" smooth="yes"/>
      <point x="40" y="391"/>
      <point x="70" y="349"/>
      <point x="127" y="333" type="curve"/>
      <point x="102" y="306"/>
      <point x="91" y="275"/>
      <point x="91" y="232" type="curve" smooth="yes"/>
      <point x="91" y="130"/>
      <point x="175" y="89"/>
      <point x="269" y="89" type="curve" smooth="yes"/>
      <point x="343" y="89"/>
      <point x="421" y="117"/>
      <point x="476" y="161" type="curve"/>
      <point x="476" y="0" type="line"/>
    </contour>
    <contour>
      <point x="276" y="351" type="line"/>
      <point x="253" y="414" type="line"/>
      <point x="231" y="404"/>
      <point x="212" y="397"/>
      <point x="190" y="397" type="curve" smooth="yes"/>
      <point x="141" y="397"/>
      <point x="120" y="423"/>
      <point x="120" y="456" type="curve" smooth="yes"/>
      <point x="120" y="487"/>
      <point x="139" y="524"/>
      <point x="173" y="551" type="curve"/>
      <point x="476" y="551" type="line"/>
      <point x="476" y="251" type="line"/>
      <point x="427" y="198"/>
      <point x="336" y="160"/>
      <point x="266" y="160" type="curve" smooth="yes"/>
      <point x="213" y="160"/>
      <point x="172" y="182"/>
      <point x="172" y="238" type="curve" smooth="yes"/>
      <point x="172" y="277"/>
      <point x="199" y="320"/>
      <point x="261" y="345" type="curve" smooth="yes"/>
    </contour>
  </outline>
</glyph>
<glyph name="Ca" format="2">
  <advance width="645"/>
  <unicode hex="11613"/>
  <outline>
    <contour>
      <point x="655" y="551" type="line"/>
      <point x="655" y="622" type="line"/>
      <point x="0" y="622" type="line"/>
      <point x="0" y="551" type="line"/>
      <point x="458" y="551" type="line"/>
      <point x="487" y="530"/>
      <point x="504" y="497"/>
      <point x="504" y="463" type="curve" smooth="yes"/>
      <point x="504" y="411"/>
      <point x="467" y="364"/>
      <point x="382" y="364" type="curve" smooth="yes"/>
      <point x="379" y="364"/>
      <point x="377" y="364"/>
      <point x="369" y="365" type="curve"/>
      <point x="364" y="295" type="line"/>
      <point x="457" y="292"/>
      <point x="493" y="237"/>
      <point x="493" y="181" type="curve" smooth="yes"/>
      <point x="493" y="123"/>
      <point x="451" y="64"/>
      <point x="385" y="64" type="curve" smooth="yes"/>
      <point x="256" y="64"/>
      <point x="217" y="231"/>
      <point x="72" y="231" type="curve" smooth="yes"/>
      <point x="45" y="231"/>
      <point x="29" y="226"/>
      <point x="10" y="218" type="curve"/>
      <point x="31" y="150" type="line"/>
      <point x="45" y="155"/>
      <point x="58" y="159"/>
      <point x="72" y="159" type="curve" smooth="yes"/>
      <point x="171" y="159"/>
      <point x="216" y="-10"/>
      <point x="383" y="-10" type="curve" smooth="yes"/>
      <point x="503" y="-10"/>
      <point x="573" y="72"/>
      <point x="573" y="180" type="curve" smooth="yes"/>
      <point x="573" y="237"/>
      <point x="548" y="291"/>
      <point x="492" y="328" type="curve"/>
      <point x="545" y="354"/>
      <point x="585" y="397"/>
      <point x="585" y="464" type="curve" smooth="yes"/>
      <point x="585" y="494"/>
      <point x="575" y="525"/>
      <point x="556" y="551" type="curve"/>
    </contour>
  </outline>
</glyph>
<glyph name="Cha" format="2">
  <advance width="696"/>
  <unicode hex="11614"/>
  <outline>
    <contour>
      <point x="706" y="551" type="line"/>
      <point x="706" y="622" type="line"/>
      <point x="0" y="622" type="line"/>
      <point x="0" y="551" type="line"/>
      <point x="85" y="551" type="line"/>
      <point x="52" y="513"/>
      <point x="40" y="470"/>
      <point x="40" y="431" type="curve" smooth="yes"/>
      <point x="40" y="354"/>
      <point x="88" y="317"/>
      <point x="147" y="306" type="curve"/>
      <point x="120" y="269"/>
      <point x="108" y="226"/>
      <point x="108" y="183" type="curve" smooth="yes"/>
      <point x="108" y="84"/>
      <point x="173" y="-10"/>
      <point x="354" y="-10" type="curve" smooth="yes"/>
      <point x="526" y="-10"/>
      <point x="616" y="110"/>
      <point x="616" y="302" type="curve" smooth="yes"/>
      <point x="616" y="412" type="line" smooth="yes"/>
      <point x="616" y="463"/>
      <point x="604" y="514"/>
      <point x="577" y="551" type="curve"/>
    </contour>
    <contour>
      <point x="281" y="317" type="curve"/>
      <point x="255" y="383" type="line"/>
      <point x="237" y="376"/>
      <point x="221" y="370"/>
      <point x="202" y="370" type="curve" smooth="yes"/>
      <point x="145" y="370"/>
      <point x="120" y="399"/>
      <point x="120" y="436" type="curve" smooth="yes"/>
      <point x="120" y="473"/>
      <point x="141" y="517"/>
      <point x="178" y="551" type="curve"/>
      <point x="364" y="551" type="line"/>
      <point x="348" y="530"/>
      <point x="338" y="503"/>
      <point x="338" y="470" type="curve" smooth="yes"/>
      <point x="338" y="395"/>
      <point x="389" y="345"/>
      <point x="474" y="345" type="curve" smooth="yes"/>
      <point x="497" y="345"/>
      <point x="518" y="350"/>
      <point x="536" y="359" type="curve"/>
      <point x="536" y="308" type="line" smooth="yes"/>
      <point x="536" y="143"/>
      <point x="471" y="64"/>
      <point x="353" y="64" type="curve" smooth="yes"/>
      <point x="234" y="64"/>
      <point x="188" y="123"/>
      <point x="188" y="185" type="curve" smooth="yes"/>
      <point x="188" y="237"/>
      <point x="214" y="289"/>
    </contour>
    <contour>
      <point x="475" y="413" type="curve" smooth="yes"/>
      <point x="446" y="413"/>
      <point x="416" y="433"/>
      <point x="416" y="471" type="curve" smooth="yes"/>
      <point x="416" y="501"/>
      <point x="433" y="532"/>
      <point x="472" y="532" type="curve" smooth="yes"/>
      <point x="521" y="532"/>
      <point x="532" y="478"/>
      <point x="534" y="435" type="curve"/>
      <point x="519" y="422"/>
      <point x="500" y="413"/>
    </contour>
  </outline>
</glyph>
<glyph name="Ja" format="2">
  <advance width="618"/>
  <unicode hex="11615"/>
  <outline>
    <contour>
      <point x="658" y="551" type="line"/>
      <point x="658" y="622" type="line"/>
      <point x="0" y="622" type="line"/>
      <point x="0" y="551" type="line"/>
      <point x="104" y="551" type="line"/>
      <point x="72" y="529"/>
      <point x="50" y="492"/>
      <point x="50" y="447" type="curve" smooth="yes"/>
      <point x="50" y="370"/>
      <point x="108" y="323"/>
      <point x="174" y="323" type="curve" smooth="yes"/>
      <point x="232" y="323"/>
      <point x="274" y="363"/>
      <point x="287" y="393" type="curve"/>
      <point x="328" y="322" type="line"/>
      <point x="265" y="240"/>
      <point x="227" y="176"/>
      <point x="227" y="113" type="curve" smooth="yes"/>
      <point x="227" y="54"/>
      <point x="264" y="-10"/>
      <point x="365" y="-10" type="curve" smooth="yes"/>
      <point x="470" y="-10"/>
      <point x="506" y="48"/>
      <point x="506" y="120" type="curve" smooth="yes"/>
      <point x="506" y="148"/>
      <point x="480" y="212"/>
      <point x="437" y="282" type="curve" smooth="yes"/>
      <point x="413" y="320" type="line"/>
      <point x="445" y="361"/>
      <point x="484" y="408"/>
      <point x="531" y="463" type="curve" smooth="yes"/>
      <point x="605" y="551" type="line"/>
    </contour>
    <contour>
      <point x="244" y="551" type="curve"/>
      <point x="512" y="551" type="line"/>
      <point x="375" y="382" type="line"/>
      <point x="336" y="451"/>
      <point x="297" y="517"/>
    </contour>
    <contour>
      <point x="366" y="257" type="curve"/>
      <point x="409" y="189"/>
      <point x="428" y="150"/>
      <point x="428" y="123" type="curve" smooth="yes"/>
      <point x="428" y="86"/>
      <point x="413" y="62"/>
      <point x="363" y="62" type="curve" smooth="yes"/>
      <point x="331" y="62"/>
      <point x="305" y="87"/>
      <point x="305" y="123" type="curve" smooth="yes"/>
      <point x="305" y="156"/>
      <point x="325" y="198"/>
    </contour>
    <contour>
      <point x="173" y="501" type="curve" smooth="yes"/>
      <point x="196" y="501"/>
      <point x="217" y="487"/>
      <point x="240" y="460" type="curve"/>
      <point x="234" y="427"/>
      <point x="219" y="392"/>
      <point x="177" y="392" type="curve" smooth="yes"/>
      <point x="160" y="392"/>
      <point x="123" y="406"/>
      <point x="123" y="446" type="curve" smooth="yes"/>
      <point x="123" y="483"/>
      <point x="154" y="501"/>
    </contour>
  </outline>
</glyph>
<glyph name="Jha" format="2">
  <advance width="730"/>
  <unicode hex="11616"/>
  <outline>
    <contour>
      <point x="0" y="622" type="line"/>
      <point x="0" y="551" type="line"/>
      <point x="161" y="551" type="line"/>
      <point x="100" y="504"/>
      <point x="60" y="449"/>
      <point x="60" y="386" type="curve" smooth="yes"/>
      <point x="60" y="312"/>
      <point x="120" y="278"/>
      <point x="169" y="278" type="curve" smooth="yes"/>
      <point x="199" y="278"/>
      <point x="215" y="287"/>
      <point x="253" y="287" type="curve" smooth="yes"/>
      <point x="294" y="287"/>
      <point x="306" y="255"/>
      <point x="306" y="216" type="curve" smooth="yes"/>
      <point x="306" y="189"/>
      <point x="288" y="157"/>
      <point x="262" y="129" type="curve"/>
      <point x="224" y="168"/>
      <point x="182" y="195"/>
      <point x="124" y="195" type="curve" smooth="yes"/>
      <point x="87" y="195"/>
      <point x="5" y="179"/>
      <point x="5" y="88" type="curve" smooth="yes"/>
      <point x="5" y="29"/>
      <point x="61" y="-10"/>
      <point x="120" y="-10" type="curve" smooth="yes"/>
      <point x="235" y="-10"/>
      <point x="346" y="73"/>
      <point x="378" y="163" type="curve"/>
      <point x="411" y="173"/>
      <point x="448" y="177"/>
      <point x="486" y="178" type="curve"/>
      <point x="489" y="56"/>
      <point x="531" y="-10"/>
      <point x="608" y="-10" type="curve" smooth="yes"/>
      <point x="693" y="-10"/>
      <point x="710" y="58"/>
      <point x="710" y="85" type="curve" smooth="yes"/>
      <point x="710" y="143"/>
      <point x="662" y="214"/>
      <point x="567" y="239" type="curve"/>
      <point x="571" y="314"/>
      <point x="586" y="422"/>
      <point x="631" y="551" type="curve"/>
      <point x="740" y="551" type="line"/>
      <point x="740" y="622" type="line"/>
    </contour>
    <contour>
      <point x="262" y="357" type="curve" smooth="yes"/>
      <point x="225" y="357"/>
      <point x="207" y="348"/>
      <point x="188" y="348" type="curve" smooth="yes"/>
      <point x="163" y="348"/>
      <point x="140" y="358"/>
      <point x="140" y="388" type="curve" smooth="yes"/>
      <point x="140" y="434"/>
      <point x="189" y="499"/>
      <point x="289" y="551" type="curve"/>
      <point x="549" y="551" type="line"/>
      <point x="518" y="455"/>
      <point x="496" y="335"/>
      <point x="488" y="248" type="curve"/>
      <point x="452" y="247"/>
      <point x="417" y="244"/>
      <point x="385" y="237" type="curve"/>
      <point x="377" y="313"/>
      <point x="330" y="357"/>
    </contour>
    <contour>
      <point x="127" y="60" type="curve" smooth="yes"/>
      <point x="95" y="60"/>
      <point x="81" y="77"/>
      <point x="81" y="90" type="curve" smooth="yes"/>
      <point x="81" y="116"/>
      <point x="106" y="125"/>
      <point x="128" y="125" type="curve" smooth="yes"/>
      <point x="152" y="125"/>
      <point x="177" y="108"/>
      <point x="203" y="83" type="curve"/>
      <point x="178" y="69"/>
      <point x="152" y="60"/>
    </contour>
    <contour>
      <point x="635" y="89" type="curve" smooth="yes"/>
      <point x="635" y="81"/>
      <point x="627" y="60"/>
      <point x="609" y="60" type="curve" smooth="yes"/>
      <point x="588" y="60"/>
      <point x="568" y="81"/>
      <point x="566" y="167" type="curve"/>
      <point x="617" y="149"/>
      <point x="635" y="112"/>
    </contour>
  </outline>
</glyph>
<glyph name="Nya" format="2">
  <advance width="736"/>
  <unicode hex="11617"/>
  <outline>
    <contour>
      <point x="76" y="226" type="curve"/>
      <point x="20" y="186" type="line"/>
      <point x="65" y="106"/>
      <point x="124" y="50"/>
      <point x="218" y="50" type="curve" smooth="yes"/>
      <point x="297" y="50"/>
      <point x="391" y="97"/>
      <point x="399" y="209" type="curve"/>
      <point x="427" y="206"/>
      <point x="454" y="203"/>
      <point x="483" y="196" type="curve"/>
      <point x="483" y="62"/>
      <point x="529" y="-10"/>
      <point x="614" y="-10" type="curve" smooth="yes"/>
      <point x="699" y="-10"/>
      <point x="716" y="58"/>
      <point x="716" y="85" type="curve" smooth="yes"/>
      <point x="716" y="165"/>
      <point x="650" y="217"/>
      <point x="566" y="247" type="curve"/>
      <point x="573" y="322"/>
      <point x="593" y="427"/>
      <point x="637" y="551" type="curve"/>
      <point x="746" y="551" type="line"/>
      <point x="746" y="622" type="line"/>
      <point x="0" y="622" type="line"/>
      <point x="0" y="551" type="line"/>
      <point x="555" y="551" type="line"/>
      <point x="525" y="462"/>
      <point x="500" y="354"/>
      <point x="489" y="269" type="curve"/>
      <point x="456" y="276"/>
      <point x="423" y="280"/>
      <point x="391" y="282" type="curve"/>
      <point x="368" y="348"/>
      <point x="305" y="387"/>
      <point x="231" y="387" type="curve" smooth="yes"/>
      <point x="185" y="387"/>
      <point x="150" y="377"/>
      <point x="122" y="369" type="curve"/>
      <point x="141" y="303" type="line"/>
      <point x="161" y="309"/>
      <point x="200" y="317"/>
      <point x="229" y="317" type="curve" smooth="yes"/>
      <point x="283" y="317"/>
      <point x="320" y="284"/>
      <point x="320" y="223" type="curve" smooth="yes"/>
      <point x="320" y="161"/>
      <point x="280" y="120"/>
      <point x="220" y="120" type="curve" smooth="yes"/>
      <point x="158" y="120"/>
      <point x="110" y="166"/>
    </contour>
    <contour>
      <point x="641" y="89" type="curve" smooth="yes"/>
      <point x="641" y="81"/>
      <point x="633" y="60"/>
      <point x="615" y="60" type="curve" smooth="yes"/>
      <point x="592" y="60"/>
      <point x="565" y="82"/>
      <point x="563" y="170" type="curve"/>
      <point x="608" y="151"/>
      <point x="641" y="124"/>
    </contour>
  </outline>
</glyph>
<glyph name="Ddha" format="2">
  <advance width="574"/>
  <unicode hex="1161B"/>
  <outline>
    <contour>
      <point x="584" y="551" type="line"/>
      <point x="584" y="622" type="line"/>
      <point x="0" y="622" type="line"/>
      <point x="0" y="551" type="line"/>
      <point x="305" y="551" type="line"/>
      <point x="289" y="404"/>
      <point x="60" y="370"/>
      <point x="60" y="192" type="curve" smooth="yes"/>
      <point x="60" y="51"/>
      <point x="166" y="-10"/>
      <point x="291" y="-10" type="curve" smooth="yes"/>
      <point x="435" y="-10"/>
      <point x="534" y="68"/>
      <point x="534" y="179" type="curve" smooth="yes"/>
      <point x="534" y="250"/>
      <point x="481" y="318"/>
      <point x="391" y="318" type="curve" smooth="yes"/>
      <point x="308" y="318"/>
      <point x="251" y="256"/>
      <point x="251" y="179" type="curve" smooth="yes"/>
      <point x="251" y="131"/>
      <point x="276" y="89"/>
      <point x="316" y="65" type="curve"/>
      <point x="308" y="64"/>
      <point x="299" y="64"/>
      <point x="291" y="64" type="curve" smooth="yes"/>
      <point x="180" y="64"/>
      <point x="140" y="135"/>
      <point x="140" y="194" type="curve" smooth="yes"/>
      <point x="140" y="332"/>
      <point x="370" y="377"/>
      <point x="385" y="551" type="curve"/>
    </contour>
    <contour>
      <point x="326" y="181" type="curve" smooth="yes"/>
      <point x="326" y="208"/>
      <point x="342" y="250"/>
      <point x="391" y="250" type="curve" smooth="yes"/>
      <point x="432" y="250"/>
      <point x="459" y="220"/>
      <point x="459" y="181" type="curve" smooth="yes"/>
      <point x="459" y="147"/>
      <point x="445" y="117"/>
      <point x="417" y="96" type="curve"/>
      <point x="353" y="112"/>
      <point x="326" y="150"/>
    </contour>
  </outline>
</glyph>
<glyph name="Nna" format="2">
  <advance width="721"/>
  <unicode hex="1161C"/>
  <outline>
    <contour>
      <point x="641" y="0" type="line"/>
      <point x="641" y="551" type="line"/>
      <point x="731" y="551" type="line"/>
      <point x="731" y="622" type="line"/>
      <point x="0" y="622" type="line"/>
      <point x="0" y="551" type="line"/>
      <point x="90" y="551" type="line"/>
      <point x="69" y="484"/>
      <point x="60" y="401"/>
      <point x="60" y="322" type="curve" smooth="yes"/>
      <point x="60" y="175"/>
      <point x="100" y="40"/>
      <point x="270" y="40" type="curve" smooth="yes"/>
      <point x="357" y="40"/>
      <point x="465" y="89"/>
      <point x="465" y="215" type="curve" smooth="yes"/>
      <point x="465" y="272"/>
      <point x="439" y="319"/>
      <point x="383" y="351" type="curve"/>
      <point x="423" y="377"/>
      <point x="444" y="418"/>
      <point x="444" y="463" type="curve" smooth="yes"/>
      <point x="444" y="491"/>
      <point x="436" y="521"/>
      <point x="419" y="551" type="curve"/>
      <point x="561" y="551" type="line"/>
      <point x="561" y="0" type="line"/>
    </contour>
    <contour>
      <point x="270" y="386" type="curve"/>
      <point x="265" y="320" type="line"/>
      <point x="353" y="316"/>
      <point x="386" y="265"/>
      <point x="386" y="216" type="curve" smooth="yes"/>
      <point x="386" y="140"/>
      <point x="318" y="114"/>
      <point x="269" y="114" type="curve" smooth="yes"/>
      <point x="158" y="114"/>
      <point x="140" y="216"/>
      <point x="140" y="325" type="curve" smooth="yes"/>
      <point x="140" y="408"/>
      <point x="153" y="496"/>
      <point x="167" y="551" type="curve"/>
      <point x="335" y="551" type="line"/>
      <point x="353" y="528"/>
      <point x="364" y="498"/>
      <point x="364" y="470" type="curve" smooth="yes"/>
      <point x="364" y="425"/>
      <point x="337" y="385"/>
      <point x="282" y="385" type="curve" smooth="yes"/>
      <point x="280" y="385"/>
      <point x="278" y="385"/>
    </contour>
  </outline>
</glyph>
<glyph name="Ta" format="2">
  <advance width="532"/>
  <unicode hex="1161D"/>
  <outline>
    <contour>
      <point x="452" y="0" type="line"/>
      <point x="452" y="551" type="line"/>
      <point x="542" y="551" type="line"/>
      <point x="542" y="622" type="line"/>
      <point x="0" y="622" type="line"/>
      <point x="0" y="551" type="line"/>
      <point x="372" y="551" type="line"/>
      <point x="372" y="476" type="line"/>
      <point x="154" y="426"/>
      <point x="60" y="348"/>
      <point x="60" y="254" type="curve" smooth="yes"/>
      <point x="60" y="207"/>
      <point x="84" y="156"/>
      <point x="128" y="103" type="curve" smooth="yes"/>
      <point x="226" y="-14" type="line"/>
      <point x="261" y="61" type="line"/>
      <point x="199" y="137" type="line" smooth="yes"/>
      <point x="160" y="184"/>
      <point x="141" y="224"/>
      <point x="141" y="258" type="curve" smooth="yes"/>
      <point x="141" y="323"/>
      <point x="228" y="366"/>
      <point x="372" y="403" type="curve"/>
      <point x="372" y="0" type="line"/>
    </contour>
  </outline>
</glyph>
<glyph name="Na" format="2">
  <advance width="658"/>
  <unicode hex="11621"/>
  <outline>
    <contour>
      <point x="658" y="551" type="line"/>
      <point x="658" y="622" type="line"/>
      <point x="0" y="622" type="line"/>
      <point x="0" y="551" type="line"/>
      <point x="512" y="551" type="line"/>
      <point x="374" y="380" type="line"/>
      <point x="332" y="444"/>
      <point x="273" y="520"/>
      <point x="182" y="520" type="curve" smooth="yes"/>
      <point x="110" y="520"/>
      <point x="75" y="488"/>
      <point x="75" y="457" type="curve" smooth="yes"/>
      <point x="75" y="426"/>
      <point x="104" y="392"/>
      <point x="176" y="392" type="curve" smooth="yes"/>
      <point x="201" y="392"/>
      <point x="235" y="397"/>
      <point x="255" y="407" type="curve"/>
      <point x="273" y="398"/>
      <point x="299" y="368"/>
      <point x="328" y="322" type="curve"/>
      <point x="265" y="240"/>
      <point x="227" y="176"/>
      <point x="227" y="113" type="curve" smooth="yes"/>
      <point x="227" y="54"/>
      <point x="268" y="-10"/>
      <point x="363" y="-10" type="curve" smooth="yes"/>
      <point x="470" y="-10"/>
      <point x="506" y="47"/>
      <point x="506" y="120" type="curve" smooth="yes"/>
      <point x="506" y="148"/>
      <point x="480" y="212"/>
      <point x="437" y="282" type="curve" smooth="yes"/>
      <point x="413" y="320" type="line"/>
      <point x="605" y="551" type="line"/>
    </contour>
    <contour>
      <point x="366" y="257" type="curve"/>
      <point x="380" y="235" type="line"/>
      <point x="407" y="188"/>
      <point x="428" y="150"/>
      <point x="428" y="123" type="curve" smooth="yes"/>
      <point x="428" y="86"/>
      <point x="413" y="62"/>
      <point x="363" y="62" type="curve" smooth="yes"/>
      <point x="331" y="62"/>
      <point x="305" y="87"/>
      <point x="305" y="123" type="curve" smooth="yes"/>
      <point x="305" y="156"/>
      <point x="325" y="198"/>
    </contour>
  </outline>
</glyph>
<glyph name="Pa" format="2">
  <advance width="714"/>
  <unicode hex="11622"/>
  <outline>
    <contour>
      <point x="724" y="551" type="line"/>
      <point x="724" y="622" type="line"/>
      <point x="0" y="622" type="line"/>
      <point x="0" y="551" type="line"/>
      <point x="124" y="551" type="line"/>
      <point x="96" y="486"/>
      <point x="60" y="377"/>
      <point x="60" y="270" type="curve" smooth="yes"/>
      <point x="60" y="71"/>
      <point x="131" y="-10"/>
      <point x="239" y="-10" type="curve" smooth="yes"/>
      <point x="293" y="-10"/>
      <point x="332" y="16"/>
      <point x="357" y="58" type="curve"/>
      <point x="382" y="16"/>
      <point x="421" y="-10"/>
      <point x="475" y="-10" type="curve" smooth="yes"/>
      <point x="583" y="-10"/>
      <point x="654" y="71"/>
      <point x="654" y="270" type="curve" smooth="yes"/>
      <point x="654" y="377"/>
      <point x="617" y="486"/>
      <point x="590" y="551" type="curve"/>
    </contour>
    <contour>
      <point x="395" y="213" type="curve"/>
      <point x="319" y="213" type="line"/>
      <point x="316" y="105"/>
      <point x="282" y="64"/>
      <point x="237" y="64" type="curve" smooth="yes"/>
      <point x="190" y="64"/>
      <point x="140" y="114"/>
      <point x="140" y="271" type="curve" smooth="yes"/>
      <point x="140" y="375"/>
      <point x="177" y="488"/>
      <point x="205" y="551" type="curve"/>
      <point x="508" y="551" type="line"/>
      <point x="537" y="488"/>
      <point x="574" y="375"/>
      <point x="574" y="271" type="curve" smooth="yes"/>
      <point x="574" y="114"/>
      <point x="524" y="64"/>
      <point x="477" y="64" type="curve" smooth="yes"/>
      <point x="432" y="64"/>
      <point x="398" y="105"/>
    </contour>
  </outline>
</glyph>
<glyph name="Pha" format="2">
  <advance width="774"/>
  <unicode hex="11623"/>
  <outline>
    <contour>
      <point x="0" y="622" type="line"/>
      <point x="0" y="551" type="line"/>
      <point x="784" y="551" type="line"/>
      <point x="784" y="622" type="line"/>
    </contour>
    <contour>
      <point x="682" y="569" type="curve"/>
      <point x="604" y="580" type="line"/>
      <point x="559" y="459"/>
      <point x="530" y="285"/>
      <point x="530" y="193" type="curve" smooth="yes"/>
      <point x="530" y="62"/>
      <point x="572" y="-10"/>
      <point x="652" y="-10" type="curve" smooth="yes"/>
      <point x="737" y="-10"/>
      <point x="754" y="58"/>
      <point x="754" y="85" type="curve" smooth="yes"/>
      <point x="754" y="156"/>
      <point x="691" y="248"/>
      <point x="535" y="248" type="curve" smooth="yes"/>
      <point x="425" y="248"/>
      <point x="286" y="201"/>
      <point x="226" y="0" type="curve"/>
      <point x="303" y="0" type="line"/>
      <point x="337" y="144"/>
      <point x="470" y="178"/>
      <point x="537" y="178" type="curve" smooth="yes"/>
      <point x="656" y="178"/>
      <point x="679" y="121"/>
      <point x="679" y="89" type="curve" smooth="yes"/>
      <point x="679" y="81"/>
      <point x="671" y="60"/>
      <point x="653" y="60" type="curve" smooth="yes"/>
      <point x="631" y="60"/>
      <point x="610" y="84"/>
      <point x="610" y="183" type="curve" smooth="yes"/>
      <point x="610" y="257"/>
      <point x="618" y="396"/>
    </contour>
    <contour>
      <point x="274" y="510" type="line"/>
      <point x="274" y="284" type="line" smooth="yes"/>
      <point x="274" y="202"/>
      <point x="263" y="110"/>
      <point x="227" y="3" type="curve"/>
      <point x="310" y="36" type="line"/>
      <point x="336" y="117"/>
      <point x="351" y="213"/>
      <point x="351" y="289" type="curve" smooth="yes"/>
      <point x="351" y="532" type="line"/>
    </contour>
    <contour>
      <point x="271" y="595" type="line"/>
      <point x="271" y="515" type="line" smooth="yes"/>
      <point x="271" y="421"/>
      <point x="256" y="389"/>
      <point x="200" y="389" type="curve" smooth="yes"/>
      <point x="159" y="389"/>
      <point x="130" y="408"/>
      <point x="130" y="515" type="curve" smooth="yes"/>
      <point x="130" y="600" type="line"/>
      <point x="50" y="600" type="line"/>
      <point x="50" y="514" type="line" smooth="yes"/>
      <point x="50" y="366"/>
      <point x="106" y="318"/>
      <point x="196" y="318" type="curve" smooth="yes"/>
      <point x="291" y="318"/>
      <point x="351" y="380"/>
      <point x="351" y="500" type="curve" smooth="yes"/>
      <point x="351" y="595" type="line"/>
    </contour>
  </outline>
</glyph>
<glyph name="Ba" format="2">
  <advance width="641"/>
  <unicode hex="11624"/>
  <outline>
    <contour>
      <point x="561" y="0" type="line"/>
      <point x="561" y="551" type="line"/>
      <point x="651" y="551" type="line"/>
      <point x="651" y="622" type="line"/>
      <point x="0" y="622" type="line"/>
      <point x="0" y="551" type="line"/>
      <point x="67" y="551" type="line"/>
      <point x="50" y="519"/>
      <point x="40" y="482"/>
      <point x="40" y="446" type="curve" smooth="yes"/>
      <point x="40" y="380"/>
      <point x="77" y="318"/>
      <point x="153" y="304" type="curve"/>
      <point x="118" y="264"/>
      <point x="105" y="221"/>
      <point x="105" y="171" type="curve" smooth="yes"/>
      <point x="105" y="67"/>
      <point x="186" y="-10"/>
      <point x="315" y="-10" type="curve" smooth="yes"/>
      <point x="388" y="-10"/>
      <point x="442" y="9"/>
      <point x="481" y="43" type="curve"/>
      <point x="481" y="0" type="line"/>
    </contour>
    <contour>
      <point x="481" y="551" type="line"/>
      <point x="481" y="236" type="line" smooth="yes"/>
      <point x="481" y="139"/>
      <point x="433" y="64"/>
      <point x="316" y="64" type="curve" smooth="yes"/>
      <point x="223" y="64"/>
      <point x="185" y="119"/>
      <point x="185" y="175" type="curve" smooth="yes"/>
      <point x="185" y="245"/>
      <point x="223" y="288"/>
      <point x="302" y="331" type="curve"/>
      <point x="272" y="390" type="line"/>
      <point x="238" y="376"/>
      <point x="216" y="372"/>
      <point x="197" y="372" type="curve" smooth="yes"/>
      <point x="147" y="372"/>
      <point x="120" y="402"/>
      <point x="120" y="448" type="curve" smooth="yes"/>
      <point x="120" y="477"/>
      <point x="126" y="513"/>
      <point x="153" y="551" type="curve"/>
    </contour>
  </outline>
</glyph>
<glyph name="Bha" format="2">
  <advance width="728"/>
  <unicode hex="11625"/>
  <outline>
    <contour>
      <point x="350" y="0" type="line"/>
      <point x="350" y="271" type="line"/>
      <point x="568" y="271" type="line"/>
      <point x="568" y="0" type="line"/>
      <point x="648" y="0" type="line"/>
      <point x="648" y="551" type="line"/>
      <point x="738" y="551" type="line"/>
      <point x="738" y="622" type="line"/>
      <point x="0" y="622" type="line"/>
      <point x="0" y="551" type="line"/>
      <point x="93" y="551" type="line"/>
      <point x="73" y="524"/>
      <point x="60" y="485"/>
      <point x="60" y="432" type="curve" smooth="yes"/>
      <point x="60" y="315"/>
      <point x="141" y="271"/>
      <point x="244" y="271" type="curve" smooth="yes"/>
      <point x="270" y="271" type="line"/>
      <point x="270" y="0" type="line"/>
    </contour>
    <contour>
      <point x="350" y="342" type="line"/>
      <point x="350" y="388" type="line" smooth="yes"/>
      <point x="350" y="458"/>
      <point x="337" y="514"/>
      <point x="311" y="551" type="curve"/>
      <point x="568" y="551" type="line"/>
      <point x="568" y="342" type="line"/>
    </contour>
    <contour>
      <point x="140" y="431" type="curve" smooth="yes"/>
      <point x="140" y="512"/>
      <point x="170" y="533"/>
      <point x="202" y="533" type="curve" smooth="yes"/>
      <point x="252" y="533"/>
      <point x="270" y="483"/>
      <point x="270" y="387" type="curve" smooth="yes"/>
      <point x="270" y="342" type="line"/>
      <point x="246" y="342" type="line" smooth="yes"/>
      <point x="219" y="342"/>
      <point x="140" y="342"/>
    </contour>
  </outline>
</glyph>
<glyph name="La" format="2">
  <advance width="622"/>
  <unicode hex="11629"/>
  <outline>
    <contour>
      <point x="632" y="551" type="line"/>
      <point x="632" y="622" type="line"/>
      <point x="0" y="622" type="line"/>
      <point x="0" y="551" type="line"/>
      <point x="79" y="551" type="line"/>
      <point x="64" y="523"/>
      <point x="60" y="489"/>
      <point x="60" y="457" type="curve" smooth="yes"/>
      <point x="60" y="365"/>
      <point x="146" y="315"/>
      <point x="233" y="272" type="curve"/>
      <point x="175" y="236"/>
      <point x="130" y="192"/>
      <point x="130" y="126" type="curve" smooth="yes"/>
      <point x="130" y="52"/>
      <point x="187" y="-10"/>
      <point x="300" y="-10" type="curve" smooth="yes"/>
      <point x="323" y="-10" type="line" smooth="yes"/>
      <point x="435" y="-9"/>
      <point x="492" y="52"/>
      <point x="492" y="126" type="curve" smooth="yes"/>
      <point x="492" y="192"/>
      <point x="446" y="236"/>
      <point x="388" y="272" type="curve"/>
      <point x="475" y="315"/>
      <point x="562" y="365"/>
      <point x="562" y="457" type="curve" smooth="yes"/>
      <point x="562" y="489"/>
      <point x="557" y="523"/>
      <point x="543" y="551" type="curve"/>
    </contour>
    <contour>
      <point x="140" y="464" type="curve" smooth="yes"/>
      <point x="140" y="498"/>
      <point x="150" y="533"/>
      <point x="162" y="551" type="curve"/>
      <point x="460" y="551" type="line"/>
      <point x="471" y="533"/>
      <point x="482" y="498"/>
      <point x="482" y="464" type="curve" smooth="yes"/>
      <point x="482" y="395"/>
      <point x="397" y="355"/>
      <point x="311" y="314" type="curve"/>
      <point x="224" y="355"/>
      <point x="140" y="395"/>
    </contour>
    <contour>
      <point x="412" y="129" type="curve" smooth="yes"/>
      <point x="412" y="83"/>
      <point x="371" y="62"/>
      <point x="321" y="62" type="curve" smooth="yes"/>
      <point x="301" y="62" type="line" smooth="yes"/>
      <point x="251" y="62"/>
      <point x="210" y="83"/>
      <point x="210" y="129" type="curve" smooth="yes"/>
      <point x="210" y="174"/>
      <point x="254" y="205"/>
      <point x="311" y="235" type="curve"/>
      <point x="368" y="205"/>
      <point x="412" y="174"/>
    </contour>
  </outline>
</glyph>
<glyph name="Va" format="2">
  <advance width="631"/>
  <unicode hex="1162A"/>
  <outline>
    <contour>
      <point x="0" y="622" type="line"/>
      <point x="0" y="551" type="line"/>
      <point x="83" y="551" type="line"/>
      <point x="69" y="487"/>
      <point x="60" y="383"/>
      <point x="60" y="303" type="curve" smooth="yes"/>
      <point x="60" y="141"/>
      <point x="107" y="-10"/>
      <point x="284" y="-10" type="curve" smooth="yes"/>
      <point x="380" y="-10"/>
      <point x="429" y="20"/>
      <point x="490" y="20" type="curve" smooth="yes"/>
      <point x="517" y="20"/>
      <point x="522" y="10"/>
      <point x="553" y="-21" type="curve"/>
      <point x="627" y="9" type="line"/>
      <point x="608" y="35"/>
      <point x="593" y="54"/>
      <point x="578" y="66" type="curve"/>
      <point x="541" y="123"/>
      <point x="519" y="196"/>
      <point x="519" y="355" type="curve" smooth="yes"/>
      <point x="519" y="420"/>
      <point x="529" y="485"/>
      <point x="546" y="551" type="curve"/>
      <point x="641" y="551" type="line"/>
      <point x="641" y="622" type="line"/>
    </contour>
    <contour>
      <point x="283" y="61" type="curve" smooth="yes"/>
      <point x="159" y="61"/>
      <point x="140" y="189"/>
      <point x="140" y="296" type="curve" smooth="yes"/>
      <point x="140" y="356"/>
      <point x="146" y="475"/>
      <point x="165" y="551" type="curve"/>
      <point x="464" y="551" type="line"/>
      <point x="448" y="484"/>
      <point x="438" y="417"/>
      <point x="438" y="352" type="curve" smooth="yes"/>
      <point x="438" y="239"/>
      <point x="451" y="150"/>
      <point x="479" y="89" type="curve"/>
      <point x="410" y="85"/>
      <point x="356" y="61"/>
    </contour>
  </outline>
</glyph>
<glyph name="Sa" format="2">
  <advance width="648"/>
  <unicode hex="1162D"/>
  <outline>
    <contour>
      <point x="0" y="622" type="line"/>
      <point x="0" y="551" type="line"/>
      <point x="107" y="551" type="line"/>
      <point x="88" y="488"/>
      <point x="80" y="416"/>
      <point x="80" y="339" type="curve" smooth="yes"/>
      <point x="80" y="301" type="line" smooth="yes"/>
      <point x="80" y="144"/>
      <point x="145" y="-10"/>
      <point x="325" y="-10" type="curve" smooth="yes"/>
      <point x="520" y="-10"/>
      <point x="588" y="171"/>
      <point x="588" y="388" type="curve" smooth="yes"/>
      <point x="588" y="458"/>
      <point x="573" y="514"/>
      <point x="544" y="551" type="curve"/>
      <point x="658" y="551" type="line"/>
      <point x="658" y="622" type="line"/>
    </contour>
    <contour>
      <point x="308" y="462" type="curve" smooth="yes"/>
      <point x="308" y="385"/>
      <point x="368" y="322"/>
      <point x="445" y="322" type="curve" smooth="yes"/>
      <point x="468" y="322"/>
      <point x="490" y="328"/>
      <point x="507" y="337" type="curve"/>
      <point x="500" y="219"/>
      <point x="464" y="64"/>
      <point x="324" y="64" type="curve" smooth="yes"/>
      <point x="200" y="64"/>
      <point x="160" y="186"/>
      <point x="160" y="302" type="curve" smooth="yes"/>
      <point x="160" y="352" type="line" smooth="yes"/>
      <point x="160" y="419"/>
      <point x="170" y="490"/>
      <point x="190" y="551" type="curve"/>
      <point x="335" y="551" type="line"/>
      <point x="318" y="527"/>
      <point x="308" y="497"/>
    </contour>
    <contour>
      <point x="447" y="392" type="curve" smooth="yes"/>
      <point x="420" y="392"/>
      <point x="378" y="412"/>
      <point x="378" y="461" type="curve" smooth="yes"/>
      <point x="378" y="502"/>
      <point x="399" y="533"/>
      <point x="438" y="533" type="curve" smooth="yes"/>
      <point x="483" y="533"/>
      <point x="504" y="492"/>
      <point x="508" y="414" type="curve"/>
      <point x="491" y="401"/>
      <point x="471" y="392"/>
    </contour>
  </outline>
</glyph>
<glyph name="Ha" format="2">
  <advance width="633"/>
  <unicode hex="1162E"/>
  <outline>
    <contour>
      <point x="643" y="551" type="line"/>
      <point x="643" y="622" type="line"/>
      <point x="0" y="622" type="line"/>
      <point x="0" y="551" type="line"/>
      <point x="28" y="551" type="line"/>
      <point x="47" y="503"/>
      <point x="82" y="429"/>
      <point x="129" y="373" type="curve"/>
      <point x="82" y="325"/>
      <point x="60" y="266"/>
      <point x="60" y="209" type="curve" smooth="yes"/>
      <point x="60" y="95"/>
      <point x="150" y="-10"/>
      <point x="295" y="-10" type="curve" smooth="yes"/>
      <point x="492" y="-10"/>
      <point x="553" y="147"/>
      <point x="553" y="301" type="curve" smooth="yes"/>
      <point x="553" y="551" type="line"/>
    </contour>
    <contour>
      <point x="473" y="551" type="line"/>
      <point x="473" y="302" type="line" smooth="yes"/>
      <point x="473" y="169"/>
      <point x="427" y="64"/>
      <point x="295" y="64" type="curve" smooth="yes"/>
      <point x="198" y="64"/>
      <point x="140" y="132"/>
      <point x="140" y="210" type="curve" smooth="yes"/>
      <point x="140" y="263"/>
      <point x="169" y="320"/>
      <point x="229" y="363" type="curve"/>
      <point x="196" y="395"/>
      <point x="132" y="494"/>
      <point x="114" y="551" type="curve"/>
    </contour>
  </outline>
</glyph>
<glyph name="Lla" format="2">
  <advance width="782"/>
  <unicode hex="1162F"/>
  <outline>
    <contour>
      <point x="792" y="551" type="line"/>
      <point x="792" y="622" type="line"/>
      <point x="0" y="622" type="line"/>
      <point x="0" y="551" type="line"/>
      <point x="350" y="551" type="line"/>
      <point x="350" y="341" type="line"/>
      <point x="314" y="381"/>
      <point x="270" y="398"/>
      <point x="214" y="398" type="curve" smooth="yes"/>
      <point x="108" y="398"/>
      <point x="40" y="318"/>
      <point x="40" y="195" type="curve" smooth="yes"/>
      <point x="40" y="63"/>
      <point x="126" y="-10"/>
      <point x="222" y="-10" type="curve" smooth="yes"/>
      <point x="289" y="-10"/>
      <point x="344" y="18"/>
      <point x="391" y="105" type="curve"/>
      <point x="448" y="1"/>
      <point x="509" y="-10"/>
      <point x="556" y="-10" type="curve" smooth="yes"/>
      <point x="668" y="-10"/>
      <point x="742" y="78"/>
      <point x="742" y="193" type="curve" smooth="yes"/>
      <point x="742" y="295"/>
      <point x="691" y="398"/>
      <point x="564" y="398" type="curve" smooth="yes"/>
      <point x="514" y="398"/>
      <point x="472" y="386"/>
      <point x="432" y="337" type="curve"/>
      <point x="432" y="551" type="line"/>
    </contour>
    <contour>
      <point x="224" y="61" type="curve" smooth="yes"/>
      <point x="173" y="61"/>
      <point x="120" y="99"/>
      <point x="120" y="191" type="curve" smooth="yes"/>
      <point x="120" y="285"/>
      <point x="165" y="327"/>
      <point x="225" y="327" type="curve" smooth="yes"/>
      <point x="257" y="327"/>
      <point x="314" y="303"/>
      <point x="353" y="192" type="curve"/>
      <point x="348" y="181" type="line" smooth="yes"/>
      <point x="310" y="98"/>
      <point x="274" y="61"/>
    </contour>
    <contour>
      <point x="430" y="189" type="curve"/>
      <point x="438" y="206" type="line" smooth="yes"/>
      <point x="477" y="290"/>
      <point x="507" y="327"/>
      <point x="557" y="327" type="curve" smooth="yes"/>
      <point x="617" y="327"/>
      <point x="662" y="290"/>
      <point x="662" y="196" type="curve" smooth="yes"/>
      <point x="662" y="107"/>
      <point x="620" y="61"/>
      <point x="555" y="61" type="curve" smooth="yes"/>
      <point x="528" y="61"/>
      <point x="481" y="73"/>
    </contour>
  </outline>
</glyph>
<glyph name="AA_dv" format="2">
  <advance width="240"/>
  <unicode hex="11630"/>
  <outline>
    <contour>
      <point x="160" y="0" type="line"/>
      <point x="160" y="551" type="line"/>
      <point x="250" y="551" type="line"/>
      <point x="250" y="622" type="line"/>
      <point x="0" y="622" type="line"/>
      <point x="0" y="551" type="line"/>
      <point x="80" y="551" type="line"/>
      <point x="80" y="0" type="line"/>
    </contour>
  </outline>
</glyph>
<glyph name="II_dv" format="2">
  <advance width="326"/>
  <unicode hex="11632"/>
  <outline>
    <contour>
      <point x="-30" y="622" type="line"/>
      <point x="-30" y="551" type="line"/>
      <point x="153" y="551" type="line"/>
      <point x="162" y="520"/>
      <point x="169" y="487"/>
      <point x="175" y="455" type="curve"/>
      <point x="100" y="377"/>
      <point x="46" y="274"/>
      <point x="46" y="161" type="curve" smooth="yes"/>
      <point x="46" y="55"/>
      <point x="84" y="-10"/>
      <point x="158" y="-10" type="curve" smooth="yes"/>
      <point x="257" y="-10"/>
      <point x="277" y="106"/>
      <point x="277" y="207" type="curve" smooth="yes"/>
      <point x="277" y="302"/>
      <point x="264" y="433"/>
      <point x="234" y="551" type="curve"/>
      <point x="336" y="551" type="line"/>
      <point x="336" y="622" type="line"/>
      <point x="213" y="622" type="line"/>
      <point x="165" y="764"/>
      <point x="77" y="878"/>
      <point x="-61" y="878" type="curve" smooth="yes"/>
      <point x="-162" y="878"/>
      <point x="-199" y="801"/>
      <point x="-199" y="718" type="curve" smooth="yes"/>
      <point x="-199" y="682"/>
      <point x="-192" y="645"/>
      <point x="-180" y="612" type="curve"/>
      <point x="-98" y="612" type="line"/>
      <point x="-110" y="645"/>
      <point x="-121" y="686"/>
      <point x="-121" y="723" type="curve" smooth="yes"/>
      <point x="-121" y="768"/>
      <point x="-104" y="805"/>
      <point x="-53" y="805" type="curve" smooth="yes"/>
      <point x="30" y="805"/>
      <point x="91" y="727"/>
      <point x="130" y="622" type="curve"/>
    </contour>
    <contour>
      <point x="197" y="198" type="curve" smooth="yes"/>
      <point x="197" y="119"/>
      <point x="187" y="61"/>
      <point x="160" y="61" type="curve" smooth="yes"/>
      <point x="137" y="61"/>
      <point x="126" y="105"/>
      <point x="126" y="161" type="curve" smooth="yes"/>
      <point x="126" y="235"/>
      <point x="147" y="304"/>
      <point x="188" y="361" type="curve"/>
      <point x="194" y="303"/>
      <point x="197" y="247"/>
    </contour>
  </outline>
</glyph>
<glyph name="U_dv" format="2">
  <unicode hex="11633"/>
  <outline>
    <contour>
      <point x="-442" y="-144" type="line"/>
      <point x="-364" y="-225"/>
      <point x="-273" y="-270"/>
      <point x="-149" y="-270" type="curve" smooth="yes"/>
      <point x="-37" y="-270"/>
      <point x="17" y="-216"/>
      <point x="17" y="-150" type="curve" smooth="yes"/>
      <point x="17" y="-72"/>
      <point x="-47" y="-30"/>
      <point x="-131" y="-30" type="curve" smooth="yes"/>
      <point x="-177" y="-30"/>
      <point x="-204" y="-37"/>
      <point x="-239" y="-51" type="curve"/>
      <point x="-213" y="-117" type="line"/>
      <point x="-181" y="-102"/>
      <point x="-156" y="-98"/>
      <point x="-131" y="-98" type="curve" smooth="yes"/>
      <point x="-108" y="-98"/>
      <point x="-61" y="-107"/>
      <point x="-61" y="-147" type="curve" smooth="yes"/>
      <point x="-61" y="-177"/>
      <point x="-87" y="-202"/>
      <point x="-151" y="-202" type="curve" smooth="yes"/>
      <point x="-237" y="-202"/>
      <point x="-314" y="-170"/>
      <point x="-387" y="-99" type="curve"/>
    </contour>
  </outline>
</glyph>
<glyph name="UU_dv" format="2">
  <unicode hex="11634"/>
  <outline>
    <contour>
      <point x="159" y="-188" type="line"/>
      <point x="81" y="-107"/>
      <point x="-32" y="-30"/>
      <point x="-156" y="-30" type="curve" smooth="yes"/>
      <point x="-268" y="-30"/>
      <point x="-322" y="-85"/>
      <point x="-322" y="-151" type="curve" smooth="yes"/>
      <point x="-322" y="-229"/>
      <point x="-258" y="-270"/>
      <point x="-167" y="-270" type="curve" smooth="yes"/>
      <point x="-128" y="-270"/>
      <point x="-101" y="-263"/>
      <point x="-66" y="-249" type="curve"/>
      <point x="-92" y="-183" type="line"/>
      <point x="-124" y="-198"/>
      <point x="-149" y="-202"/>
      <point x="-174" y="-202" type="curve" smooth="yes"/>
      <point x="-197" y="-202"/>
      <point x="-244" y="-194"/>
      <point x="-244" y="-154" type="curve" smooth="yes"/>
      <point x="-244" y="-124"/>
      <point x="-218" y="-98"/>
      <point x="-154" y="-98" type="curve" smooth="yes"/>
      <point x="-68" y="-98"/>
      <point x="29" y="-166"/>
      <point x="102" y="-237" type="curve"/>
    </contour>
  </outline>
</glyph>
<glyph name="VocR_dv" format="2">
  <unicode hex="11635"/>
  <outline>
    <contour>
      <point x="18" y="-185" type="line"/>
      <point x="-13" y="-195"/>
      <point x="-45" y="-202"/>
      <point x="-81" y="-202" type="curve" smooth="yes"/>
      <point x="-128" y="-202"/>
      <point x="-154" y="-177"/>
      <point x="-154" y="-147" type="curve" smooth="yes"/>
      <point x="-154" y="-107"/>
      <point x="-80" y="-85"/>
      <point x="-57" y="-85" type="curve"/>
      <point x="-64" y="-20" type="line"/>
      <point x="-155" y="-20"/>
      <point x="-232" y="-79"/>
      <point x="-232" y="-150" type="curve" smooth="yes"/>
      <point x="-232" y="-216"/>
      <point x="-178" y="-270"/>
      <point x="-82" y="-270" type="curve" smooth="yes"/>
      <point x="-36" y="-270"/>
      <point x="12" y="-258"/>
      <point x="39" y="-247" type="curve"/>
    </contour>
  </outline>
</glyph>
<glyph name="VocRR_dv" format="2">
  <unicode hex="11636"/>
  <outline>
    <contour>
      <point x="-23" y="-164" type="line"/>
      <point x="-47" y="-175"/>
      <point x="-73" y="-179"/>
      <point x="-101" y="-179" type="curve" smooth="yes"/>
      <point x="-135" y="-179"/>
      <point x="-167" y="-170"/>
      <point x="-167" y="-136" type="curve" smooth="yes"/>
      <point x="-167" y="-112"/>
      <point x="-143" y="-91"/>
      <point x="-79" y="-85" type="curve"/>
      <point x="-84" y="-25" type="line"/>
      <point x="-192" y="-31"/>
      <point x="-239" y="-82"/>
      <point x="-239" y="-140" type="curve" smooth="yes"/>
      <point x="-239" y="-176"/>
      <point x="-222" y="-206"/>
      <point x="-190" y="-225" type="curve"/>
      <point x="-203" y="-242"/>
      <point x="-209" y="-263"/>
      <point x="-209" y="-285" type="curve" smooth="yes"/>
      <point x="-209" y="-355"/>
      <point x="-156" y="-400"/>
      <point x="-74" y="-400" type="curve" smooth="yes"/>
      <point x="-25" y="-400"/>
      <point x="11" y="-392"/>
      <point x="50" y="-372" type="curve"/>
      <point x="25" y="-307" type="line"/>
      <point x="-2" y="-322"/>
      <point x="-31" y="-332"/>
      <point x="-67" y="-332" type="curve" smooth="yes"/>
      <point x="-104" y="-332"/>
      <point x="-137" y="-314"/>
      <point x="-137" y="-280" type="curve" smooth="yes"/>
      <point x="-137" y="-265"/>
      <point x="-132" y="-255"/>
      <point x="-122" y="-246" type="curve"/>
      <point x="-114" y="-247"/>
      <point x="-105" y="-247"/>
      <point x="-96" y="-247" type="curve" smooth="yes"/>
      <point x="-65" y="-247"/>
      <point x="-35" y="-241"/>
      <point x="-3" y="-229" type="curve"/>
    </contour>
  </outline>
</glyph>
<glyph name="VocL_dv" format="2">
  <unicode hex="11637"/>
  <outline>
    <contour>
      <point x="-347" y="-297" type="curve"/>
      <point x="-290" y="-262" type="line"/>
      <point x="-315" y="-228"/>
      <point x="-334" y="-194"/>
      <point x="-334" y="-156" type="curve" smooth="yes"/>
      <point x="-334" y="-123"/>
      <point x="-319" y="-98"/>
      <point x="-289" y="-98" type="curve" smooth="yes"/>
      <point x="-261" y="-98"/>
      <point x="-240" y="-117"/>
      <point x="-231" y="-166" type="curve"/>
      <point x="-172" y="-166" type="line"/>
      <point x="-170" y="-122"/>
      <point x="-141" y="-97"/>
      <point x="-115" y="-97" type="curve" smooth="yes"/>
      <point x="-92" y="-97"/>
      <point x="-71" y="-114"/>
      <point x="-71" y="-140" type="curve" smooth="yes"/>
      <point x="-71" y="-198"/>
      <point x="-154" y="-232"/>
      <point x="-154" y="-303" type="curve" smooth="yes"/>
      <point x="-154" y="-351"/>
      <point x="-120" y="-400"/>
      <point x="-35" y="-400" type="curve" smooth="yes"/>
      <point x="-9" y="-400"/>
      <point x="16" y="-394"/>
      <point x="36" y="-386" type="curve"/>
      <point x="22" y="-322" type="line"/>
      <point x="8" y="-328"/>
      <point x="-14" y="-332"/>
      <point x="-36" y="-332" type="curve" smooth="yes"/>
      <point x="-54" y="-332"/>
      <point x="-82" y="-324"/>
      <point x="-82" y="-300" type="curve" smooth="yes"/>
      <point x="-82" y="-251"/>
      <point x="1" y="-237"/>
      <point x="1" y="-131" type="curve" smooth="yes"/>
      <point x="1" y="-68"/>
      <point x="-45" y="-30"/>
      <point x="-102" y="-30" type="curve" smooth="yes"/>
      <point x="-144" y="-30"/>
      <point x="-179" y="-48"/>
      <point x="-202" y="-78" type="curve"/>
      <point x="-226" y="-45"/>
      <point x="-262" y="-30"/>
      <point x="-293" y="-30" type="curve" smooth="yes"/>
      <point x="-369" y="-30"/>
      <point x="-406" y="-77"/>
      <point x="-406" y="-145" type="curve" smooth="yes"/>
      <point x="-406" y="-194"/>
      <point x="-387" y="-248"/>
    </contour>
  </outline>
</glyph>
<glyph name="E_dv" format="2">
  <unicode hex="11639"/>
  <outline>
    <contour>
      <point x="-346" y="848" type="curve"/>
      <point x="-327" y="781" type="line"/>
      <point x="-150" y="771"/>
      <point x="-108" y="694"/>
      <point x="-82" y="615" type="curve"/>
      <point x="0" y="615" type="line"/>
      <point x="-25" y="717"/>
      <point x="-106" y="848"/>
    </contour>
  </outline>
</glyph>
<glyph name="AI_dv" format="2">
  <unicode hex="1163A"/>
  <outline>
    <contour>
      <point x="-344" y="847" type="curve"/>
      <point x="-393" y="799" type="line"/>
      <point x="-334" y="736"/>
      <point x="-263" y="725"/>
      <point x="-215" y="725" type="curve" smooth="yes"/>
      <point x="-174" y="725"/>
      <point x="-133" y="735"/>
      <point x="-102" y="749" type="curve"/>
      <point x="-79" y="615" type="line"/>
      <point x="0" y="615" type="line"/>
      <point x="-39" y="819" type="line"/>
      <point x="-88" y="836" type="line"/>
      <point x="-109" y="819"/>
      <point x="-155" y="795"/>
      <point x="-220" y="795" type="curve" smooth="yes"/>
      <point x="-266" y="795"/>
      <point x="-311" y="818"/>
    </contour>
  </outline>
</glyph>
<glyph name="O_dv" format="2">
  <advance width="240"/>
  <unicode hex="1163B"/>
  <outline>
    <contour>
      <point x="160" y="0" type="line"/>
      <point x="160" y="551" type="line"/>
      <point x="250" y="551" type="line"/>
      <point x="250" y="622" type="line"/>
      <point x="0" y="622" type="line"/>
      <point x="0" y="551" type="line"/>
      <point x="80" y="551" type="line"/>
      <point x="80" y="0" type="line"/>
    </contour>
    <contour>
      <point x="-185" y="848" type="curve"/>
      <point x="-166" y="781" type="line"/>
      <point x="11" y="771"/>
      <point x="53" y="694"/>
      <point x="79" y="615" type="curve"/>
      <point x="161" y="615" type="line"/>
      <point x="136" y="717"/>
      <point x="55" y="848"/>
    </contour>
  </outline>
</glyph>
<glyph name="AU_dv" format="2">
  <advance width="240"/>
  <unicode hex="1163C"/>
  <outline>
    <contour>
      <point x="160" y="0" type="line"/>
      <point x="160" y="551" type="line"/>
      <point x="250" y="551" type="line"/>
      <point x="250" y="622" type="line"/>
      <point x="0" y="622" type="line"/>
      <point x="0" y="551" type="line"/>
      <point x="80" y="551" type="line"/>
      <point x="80" y="0" type="line"/>
    </contour>
    <contour>
      <point x="-184" y="847" type="curve"/>
      <point x="-233" y="799" type="line"/>
      <point x="-174" y="736"/>
      <point x="-103" y="725"/>
      <point x="-55" y="725" type="curve" smooth="yes"/>
      <point x="-14" y="725"/>
      <point x="27" y="735"/>
      <point x="58" y="749" type="curve"/>
      <point x="81" y="615" type="line"/>
      <point x="160" y="615" type="line"/>
      <point x="121" y="819" type="line"/>
      <point x="72" y="836" type="line"/>
      <point x="51" y="819"/>
      <point x="5" y="795"/>
      <point x="-60" y="795" type="curve" smooth="yes"/>
      <point x="-106" y="795"/>
      <point x="-151" y="818"/>
    </contour>
  </outline>
</glyph>
<glyph name="Anusvara" format="2">
  <unicode hex="1163D"/>
  <outline>
    <contour>
      <point x="0" y="790" type="curve" smooth="yes"/>
      <point x="-28" y="790"/>
      <point x="-52" y="766"/>
      <point x="-52" y="735" type="curve" smooth="yes"/>
      <point x="-52" y="706"/>
      <point x="-28" y="680"/>
      <point x="0" y="680" type="curve" smooth="yes"/>
      <point x="28" y="680"/>
      <point x="52" y="706"/>
      <point x="52" y="735" type="curve" smooth="yes"/>
      <point x="52" y="766"/>
      <point x="28" y="790"/>
    </contour>
  </outline>
</glyph>
<glyph name="Visarga" format="2">
  <advance width="316"/>
  <unicode hex="1163E"/>
  <outline>
    <contour>
      <point x="158" y="113" type="curve" smooth="yes"/>
      <point x="127" y="113"/>
      <point x="100" y="86"/>
      <point x="100" y="51" type="curve" smooth="yes"/>
      <point x="100" y="19"/>
      <point x="127" y="-10"/>
      <point x="158" y="-10" type="curve" smooth="yes"/>
      <point x="189" y="-10"/>
      <point x="216" y="19"/>
      <point x="216" y="51" type="curve" smooth="yes"/>
      <point x="216" y="86"/>
      <point x="189" y="113"/>
    </contour>
    <contour>
      <point x="158" y="500" type="curve" smooth="yes"/>
      <point x="127" y="500"/>
      <point x="100" y="473"/>
      <point x="100" y="438" type="curve" smooth="yes"/>
      <point x="100" y="406"/>
      <point x="127" y="377"/>
      <point x="158" y="377" type="curve" smooth="yes"/>
      <point x="189" y="377"/>
      <point x="216" y="406"/>
      <point x="216" y="438" type="curve" smooth="yes"/>
      <point x="216" y="473"/>
      <point x="189" y="500"/>
    </contour>
  </outline>
</glyph>
<glyph name="Virama" format="2">
  <unicode hex="1163F"/>
  <outline>
    <contour>
      <point x="-254" y="-108" type="line"/>
      <point x="-186" y="-132"/>
      <point x="-85" y="-181"/>
      <point x="-15" y="-249" type="curve"/>
      <point x="35" y="-204" type="line"/>
      <point x="-35" y="-135"/>
      <point x="-110" y="-86"/>
      <point x="-230" y="-50" type="curve"/>
    </contour>
  </outline>
</glyph>
<glyph name="Ardhacandra" format="2">
  <unicode hex="11640"/>
  <outline>
    <contour>
      <point x="132" y="840" type="line"/>
      <point x="100" y="777"/>
      <point x="61" y="749"/>
      <point x="1" y="749" type="curve" smooth="yes"/>
      <point x="-57" y="749"/>
      <point x="-98" y="777"/>
      <point x="-132" y="840" type="curve"/>
      <point x="-200" y="808" type="line"/>
      <point x="-156" y="722"/>
      <point x="-90" y="680"/>
      <point x="1" y="680" type="curve" smooth="yes"/>
      <point x="92" y="680"/>
      <point x="156" y="722"/>
      <point x="200" y="808" type="curve"/>
    </contour>
  </outline>
</glyph>
<glyph name="Danda" format="2">
  <advance width="280"/>
  <unicode hex="11641"/>
  <outline>
    <contour>
      <point x="180" y="0" type="line"/>
      <point x="180" y="622" type="line"/>
      <point x="100" y="622" type="line"/>
      <point x="100" y="0" type="line"/>
    </contour>
  </outline>
</glyph>
<glyph name="DblDanda" format="2">
  <advance width="460"/>
  <unicode hex="11642"/>
  <outline>
    <contour>
      <point x="180" y="0" type="line"/>
      <point x="180" y="622" type="line"/>
      <point x="100" y="622" type="line"/>
      <point x="100" y="0" type="line"/>
    </contour>
    <contour>
      <point x="360" y="0" type="line"/>
      <point x="360" y="622" type="line"/>
      <point x="280" y="622" type="line"/>
      <point x="280" y="0" type="line"/>
    </contour>
  </outline>
</glyph>
<glyph name="Abbreviation" format="2">
  <advance width="407"/>
  <unicode hex="11643"/>
  <outline>
    <contour>
      <point x="80" y="128" type="curve" smooth="yes"/>
      <point x="80" y="51"/>
      <point x="141" y="-10"/>
      <point x="218" y="-10" type="curve" smooth="yes"/>
      <point x="295" y="-10"/>
      <point x="357" y="51"/>
      <point x="357" y="128" type="curve" smooth="yes"/>
      <point x="357" y="205"/>
      <point x="295" y="267"/>
      <point x="218" y="267" type="curve" smooth="yes"/>
      <point x="141" y="267"/>
      <point x="80" y="205"/>
    </contour>
    <contour>
      <point x="150" y="127" type="curve" smooth="yes"/>
      <point x="150" y="167"/>
      <point x="178" y="199"/>
      <point x="218" y="199" type="curve" smooth="yes"/>
      <point x="258" y="199"/>
      <point x="287" y="168"/>
      <point x="287" y="128" type="curve" smooth="yes"/>
      <point x="287" y="88"/>
      <point x="258" y="57"/>
      <point x="218" y="57" type="curve" smooth="yes"/>
      <point x="178" y="57"/>
      <point x="150" y="87"/>
    </contour>
  </outline>
</glyph>
<glyph name="u11650" format="2">
  <advance width="521"/>
  <unicode hex="11650"/>
  <outline>
    <contour>
      <point x="259" y="490" type="curve" smooth="yes"/>
      <point x="144" y="490"/>
      <point x="60" y="408"/>
      <point x="60" y="291" type="curve" smooth="yes"/>
      <point x="60" y="173"/>
      <point x="144" y="91"/>
      <point x="260" y="91" type="curve" smooth="yes"/>
      <point x="376" y="91"/>
      <point x="461" y="173"/>
      <point x="461" y="289" type="curve" smooth="yes"/>
      <point x="461" y="406"/>
      <point x="374" y="490"/>
    </contour>
    <contour>
      <point x="258" y="162" type="curve" smooth="yes"/>
      <point x="188" y="162"/>
      <point x="142" y="214"/>
      <point x="142" y="288" type="curve" smooth="yes"/>
      <point x="142" y="363"/>
      <point x="192" y="418"/>
      <point x="262" y="418" type="curve" smooth="yes"/>
      <point x="332" y="418"/>
      <point x="379" y="365"/>
      <point x="379" y="292" type="curve" smooth="yes"/>
      <point x="379" y="218"/>
      <point x="328" y="162"/>
    </contour>
  </outline>
</glyph>
<glyph name="u11652" format="2">
  <advance width="479"/>
  <unicode hex="11652"/>
  <outline>
    <contour>
      <point x="42" y="123" type="curve"/>
      <point x="55" y="51" type="line"/>
      <point x="77" y="53"/>
      <point x="85" y="53"/>
      <point x="97" y="53" type="curve" smooth="yes"/>
      <point x="239" y="53"/>
      <point x="337" y="-15"/>
      <point x="393" y="-74" type="curve"/>
      <point x="449" y="-20" type="line"/>
      <point x="407" y="23"/>
      <point x="336" y="76"/>
      <point x="249" y="104" type="curve"/>
      <point x="342" y="154"/>
      <point x="403" y="241"/>
      <point x="403" y="382" type="curve" smooth="yes"/>
      <point x="403" y="519"/>
      <point x="313" y="600"/>
      <point x="192" y="600" type="curve" smooth="yes"/>
      <point x="137" y="600"/>
      <point x="79" y="585"/>
      <point x="30" y="564" type="curve"/>
      <point x="54" y="496" type="line"/>
      <point x="101" y="518"/>
      <point x="140" y="526"/>
      <point x="188" y="526" type="curve" smooth="yes"/>
      <point x="259" y="526"/>
      <point x="323" y="474"/>
      <point x="323" y="383" type="curve" smooth="yes"/>
      <point x="323" y="170"/>
      <point x="161" y="129"/>
    </contour>
  </outline>
</glyph>
<glyph name="u11653" format="2">
  <advance width="442"/>
  <unicode hex="11653"/>
  <outline>
    <contour>
      <point x="44" y="86" type="curve"/>
      <point x="30" y="13" type="line"/>
      <point x="65" y="0"/>
      <point x="123" y="-10"/>
      <point x="177" y="-10" type="curve" smooth="yes"/>
      <point x="297" y="-10"/>
      <point x="382" y="65"/>
      <point x="382" y="173" type="curve" smooth="yes"/>
      <point x="382" y="233"/>
      <point x="345" y="288"/>
      <point x="276" y="312" type="curve"/>
      <point x="325" y="339"/>
      <point x="362" y="381"/>
      <point x="362" y="444" type="curve" smooth="yes"/>
      <point x="362" y="555"/>
      <point x="273" y="600"/>
      <point x="173" y="600" type="curve" smooth="yes"/>
      <point x="121" y="600"/>
      <point x="81" y="593"/>
      <point x="48" y="584" type="curve"/>
      <point x="61" y="510" type="line"/>
      <point x="91" y="520"/>
      <point x="135" y="526"/>
      <point x="171" y="526" type="curve" smooth="yes"/>
      <point x="239" y="526"/>
      <point x="282" y="494"/>
      <point x="282" y="450" type="curve" smooth="yes"/>
      <point x="282" y="393"/>
      <point x="229" y="336"/>
      <point x="97" y="332" type="curve"/>
      <point x="91" y="267" type="line"/>
      <point x="116" y="269"/>
      <point x="129" y="270"/>
      <point x="151" y="270" type="curve" smooth="yes"/>
      <point x="222" y="270"/>
      <point x="302" y="255"/>
      <point x="302" y="168" type="curve" smooth="yes"/>
      <point x="302" y="115"/>
      <point x="264" y="64"/>
      <point x="173" y="64" type="curve" smooth="yes"/>
      <point x="142" y="64"/>
      <point x="85" y="76"/>
    </contour>
  </outline>
</glyph>
<glyph name="u11654" format="2">
  <advance width="575"/>
  <unicode hex="11654"/>
  <outline>
    <contour>
      <point x="278" y="-10" type="curve" smooth="yes"/>
      <point x="399" y="-10"/>
      <point x="429" y="64"/>
      <point x="429" y="126" type="curve" smooth="yes"/>
      <point x="429" y="194"/>
      <point x="383" y="263"/>
      <point x="322" y="326" type="curve"/>
      <point x="380" y="386"/>
      <point x="458" y="457"/>
      <point x="555" y="544" type="curve"/>
      <point x="506" y="598" type="line"/>
      <point x="486" y="579"/>
      <point x="441" y="538"/>
      <point x="389" y="492" type="curve" smooth="yes"/>
      <point x="351" y="458"/>
      <point x="309" y="418"/>
      <point x="269" y="376" type="curve"/>
      <point x="187" y="449"/>
      <point x="96" y="507"/>
      <point x="63" y="534" type="curve"/>
      <point x="20" y="474" type="line"/>
      <point x="62" y="442"/>
      <point x="147" y="384"/>
      <point x="220" y="320" type="curve"/>
      <point x="166" y="254"/>
      <point x="126" y="185"/>
      <point x="126" y="126" type="curve" smooth="yes"/>
      <point x="126" y="64"/>
      <point x="156" y="-10"/>
    </contour>
    <contour>
      <point x="280" y="62" type="curve" smooth="yes"/>
      <point x="225" y="62"/>
      <point x="206" y="95"/>
      <point x="206" y="129" type="curve" smooth="yes"/>
      <point x="206" y="171"/>
      <point x="228" y="216"/>
      <point x="272" y="270" type="curve"/>
      <point x="317" y="222"/>
      <point x="349" y="173"/>
      <point x="349" y="129" type="curve" smooth="yes"/>
      <point x="349" y="95"/>
      <point x="335" y="62"/>
    </contour>
  </outline>
</glyph>
<glyph name="u11655" format="2">
  <advance width="606"/>
  <unicode hex="11655"/>
  <outline>
    <contour>
      <point x="596" y="82" type="curve"/>
      <point x="535" y="128" type="line"/>
      <point x="513" y="102"/>
      <point x="471" y="64"/>
      <point x="396" y="64" type="curve" smooth="yes"/>
      <point x="308" y="64"/>
      <point x="259" y="142"/>
      <point x="259" y="240" type="curve" smooth="yes"/>
      <point x="259" y="343"/>
      <point x="308" y="456"/>
      <point x="439" y="523" type="curve"/>
      <point x="430" y="605" type="line"/>
      <point x="400" y="594"/>
      <point x="372" y="581"/>
      <point x="347" y="561" type="curve" smooth="yes"/>
      <point x="269" y="500"/>
      <point x="226" y="467"/>
      <point x="146" y="467" type="curve" smooth="yes"/>
      <point x="115" y="467"/>
      <point x="81" y="479"/>
      <point x="55" y="502" type="curve"/>
      <point x="20" y="435" type="line"/>
      <point x="52" y="407"/>
      <point x="96" y="393"/>
      <point x="145" y="393" type="curve" smooth="yes"/>
      <point x="168" y="393"/>
      <point x="192" y="396"/>
      <point x="217" y="403" type="curve"/>
      <point x="192" y="350"/>
      <point x="179" y="293"/>
      <point x="179" y="238" type="curve" smooth="yes"/>
      <point x="179" y="94"/>
      <point x="261" y="-10"/>
      <point x="399" y="-10" type="curve" smooth="yes"/>
      <point x="489" y="-10"/>
      <point x="561" y="35"/>
    </contour>
  </outline>
</glyph>
<glyph name="u11657" format="2">
  <advance width="654"/>
  <unicode hex="11657"/>
  <outline>
    <contour>
      <point x="109" y="305" type="curve"/>
      <point x="30" y="286" type="line"/>
      <point x="42" y="126"/>
      <point x="137" y="-10"/>
      <point x="298" y="-10" type="curve" smooth="yes"/>
      <point x="519" y="-10"/>
      <point x="594" y="191"/>
      <point x="594" y="385" type="curve" smooth="yes"/>
      <point x="594" y="518"/>
      <point x="538" y="600"/>
      <point x="444" y="600" type="curve" smooth="yes"/>
      <point x="373" y="600"/>
      <point x="309" y="544"/>
      <point x="309" y="459" type="curve" smooth="yes"/>
      <point x="309" y="355"/>
      <point x="384" y="319"/>
      <point x="466" y="319" type="curve" smooth="yes"/>
      <point x="481" y="319"/>
      <point x="497" y="320"/>
      <point x="512" y="322" type="curve"/>
      <point x="501" y="193"/>
      <point x="448" y="64"/>
      <point x="297" y="64" type="curve" smooth="yes"/>
      <point x="175" y="64"/>
      <point x="115" y="204"/>
    </contour>
    <contour>
      <point x="468" y="393" type="curve" smooth="yes"/>
      <point x="420" y="393"/>
      <point x="384" y="410"/>
      <point x="384" y="458" type="curve" smooth="yes"/>
      <point x="384" y="499"/>
      <point x="406" y="526"/>
      <point x="445" y="526" type="curve" smooth="yes"/>
      <point x="492" y="526"/>
      <point x="513" y="484"/>
      <point x="515" y="397" type="curve"/>
      <point x="498" y="394"/>
      <point x="482" y="393"/>
    </contour>
  </outline>
</glyph>
<glyph name="AA_dv.alt" format="2">
  <advance width="205"/>
  <outline>
    <contour>
      <point x="-97" y="500" type="curve"/>
      <point x="-100" y="429" type="line"/>
      <point x="38" y="418"/>
      <point x="45" y="337"/>
      <point x="45" y="243" type="curve" smooth="yes"/>
      <point x="45" y="0" type="line"/>
      <point x="125" y="0" type="line"/>
      <point x="125" y="242" type="line" smooth="yes"/>
      <point x="125" y="374"/>
      <point x="114" y="476"/>
    </contour>
    <contour>
      <point x="-35" y="622" type="line"/>
      <point x="-35" y="551" type="line"/>
      <point x="215" y="551" type="line"/>
      <point x="215" y="622" type="line"/>
    </contour>
  </outline>
</glyph>
<glyph name="Ba.alt" format="2">
  <advance width="415"/>
  <outline>
    <contour>
      <point x="515" y="148" type="curve"/>
      <point x="455" y="193" type="line"/>
      <point x="410" y="83"/>
      <point x="354" y="64"/>
      <point x="302" y="64" type="curve" smooth="yes"/>
      <point x="223" y="64"/>
      <point x="185" y="112"/>
      <point x="185" y="173" type="curve" smooth="yes"/>
      <point x="185" y="244"/>
      <point x="223" y="287"/>
      <point x="302" y="331" type="curve"/>
      <point x="272" y="390" type="line"/>
      <point x="238" y="376"/>
      <point x="216" y="372"/>
      <point x="197" y="372" type="curve" smooth="yes"/>
      <point x="147" y="372"/>
      <point x="120" y="402"/>
      <point x="120" y="448" type="curve" smooth="yes"/>
      <point x="120" y="477"/>
      <point x="126" y="513"/>
      <point x="153" y="551" type="curve"/>
      <point x="425" y="551" type="line"/>
      <point x="425" y="622" type="line"/>
      <point x="0" y="622" type="line"/>
      <point x="0" y="551" type="line"/>
      <point x="67" y="551" type="line"/>
      <point x="50" y="519"/>
      <point x="40" y="482"/>
      <point x="40" y="446" type="curve" smooth="yes"/>
      <point x="40" y="380"/>
      <point x="77" y="318"/>
      <point x="153" y="304" type="curve"/>
      <point x="118" y="264"/>
      <point x="105" y="221"/>
      <point x="105" y="171" type="curve" smooth="yes"/>
      <point x="105" y="67"/>
      <point x="179" y="-10"/>
      <point x="301" y="-10" type="curve" smooth="yes"/>
      <point x="380" y="-10"/>
      <point x="459" y="21"/>
    </contour>
  </outline>
</glyph>
<glyph name="Bha.half" format="2">
  <advance width="470"/>
  <outline>
    <contour>
      <point x="350" y="0" type="line"/>
      <point x="350" y="271" type="line"/>
      <point x="570" y="271" type="line"/>
      <point x="570" y="342" type="line"/>
      <point x="350" y="342" type="line"/>
      <point x="350" y="388" type="line" smooth="yes"/>
      <point x="350" y="458"/>
      <point x="337" y="514"/>
      <point x="311" y="551" type="curve"/>
      <point x="480" y="551" type="line"/>
      <point x="480" y="622" type="line"/>
      <point x="0" y="622" type="line"/>
      <point x="0" y="551" type="line"/>
      <point x="93" y="551" type="line"/>
      <point x="73" y="524"/>
      <point x="60" y="485"/>
      <point x="60" y="432" type="curve" smooth="yes"/>
      <point x="60" y="315"/>
      <point x="141" y="271"/>
      <point x="244" y="271" type="curve" smooth="yes"/>
      <point x="270" y="271" type="line"/>
      <point x="270" y="0" type="line"/>
    </contour>
    <contour>
      <point x="140" y="431" type="curve" smooth="yes"/>
      <point x="140" y="512"/>
      <point x="170" y="533"/>
      <point x="202" y="533" type="curve" smooth="yes"/>
      <point x="252" y="533"/>
      <point x="270" y="483"/>
      <point x="270" y="387" type="curve" smooth="yes"/>
      <point x="270" y="342" type="line"/>
      <point x="246" y="342" type="line" smooth="yes"/>
      <point x="219" y="342"/>
      <point x="140" y="342"/>
    </contour>
  </outline>
</glyph>
<glyph name="Bhaa" format="2">
  <advance width="975"/>
  <outline>
    <contour>
      <point x="603" y="0" type="line"/>
      <point x="603" y="10" type="line" smooth="yes"/>
      <point x="605" y="103"/>
      <point x="661" y="163"/>
      <point x="731" y="172" type="curve"/>
      <point x="736" y="54"/>
      <point x="777" y="-10"/>
      <point x="853" y="-10" type="curve" smooth="yes"/>
      <point x="938" y="-10"/>
      <point x="955" y="58"/>
      <point x="955" y="85" type="curve" smooth="yes"/>
      <point x="955" y="146"/>
      <point x="913" y="222"/>
      <point x="813" y="242" type="curve"/>
      <point x="817" y="318"/>
      <point x="832" y="424"/>
      <point x="876" y="551" type="curve"/>
      <point x="985" y="551" type="line"/>
      <point x="985" y="622" type="line"/>
      <point x="0" y="622" type="line"/>
      <point x="0" y="551" type="line"/>
      <point x="90" y="551" type="line"/>
      <point x="71" y="527"/>
      <point x="60" y="494"/>
      <point x="60" y="452" type="curve" smooth="yes"/>
      <point x="60" y="345"/>
      <point x="141" y="301"/>
      <point x="244" y="301" type="curve" smooth="yes"/>
      <point x="270" y="301" type="line"/>
      <point x="270" y="0" type="line"/>
      <point x="350" y="0" type="line"/>
      <point x="374" y="115"/>
      <point x="434" y="174"/>
      <point x="473" y="174" type="curve" smooth="yes"/>
      <point x="513" y="174"/>
      <point x="523" y="142"/>
      <point x="523" y="102" type="curve" smooth="yes"/>
      <point x="523" y="0" type="line"/>
    </contour>
    <contour>
      <point x="311" y="551" type="curve"/>
      <point x="794" y="551" type="line"/>
      <point x="762" y="454"/>
      <point x="740" y="334"/>
      <point x="733" y="247" type="curve"/>
      <point x="670" y="242"/>
      <point x="625" y="216"/>
      <point x="593" y="176" type="curve"/>
      <point x="575" y="221"/>
      <point x="536" y="248"/>
      <point x="482" y="248" type="curve" smooth="yes"/>
      <point x="431" y="248"/>
      <point x="386" y="223"/>
      <point x="350" y="177" type="curve"/>
      <point x="350" y="301" type="line"/>
      <point x="430" y="301" type="line"/>
      <point x="430" y="372" type="line"/>
      <point x="350" y="372" type="line"/>
      <point x="350" y="388" type="line" smooth="yes"/>
      <point x="350" y="458"/>
      <point x="337" y="514"/>
    </contour>
    <contour>
      <point x="140" y="451" type="curve" smooth="yes"/>
      <point x="140" y="512"/>
      <point x="170" y="533"/>
      <point x="202" y="533" type="curve" smooth="yes"/>
      <point x="252" y="533"/>
      <point x="270" y="483"/>
      <point x="270" y="387" type="curve" smooth="yes"/>
      <point x="270" y="372" type="line"/>
      <point x="246" y="372" type="line" smooth="yes"/>
      <point x="219" y="372"/>
      <point x="140" y="372"/>
    </contour>
    <contour>
      <point x="880" y="89" type="curve" smooth="yes"/>
      <point x="880" y="81"/>
      <point x="872" y="60"/>
      <point x="854" y="60" type="curve" smooth="yes"/>
      <point x="833" y="60"/>
      <point x="813" y="81"/>
      <point x="811" y="167" type="curve"/>
      <point x="866" y="151"/>
      <point x="880" y="113"/>
    </contour>
  </outline>
</glyph>
<glyph name="Ca.alt" format="2">
  <advance width="635"/>
  <outline>
    <contour>
      <point x="670" y="551" type="line"/>
      <point x="670" y="622" type="line"/>
      <point x="0" y="622" type="line"/>
      <point x="0" y="551" type="line"/>
      <point x="587" y="551" type="line"/>
      <point x="563" y="488"/>
      <point x="507" y="364"/>
      <point x="382" y="364" type="curve" smooth="yes"/>
      <point x="379" y="364"/>
      <point x="372" y="365"/>
      <point x="369" y="365" type="curve"/>
      <point x="364" y="295" type="line"/>
      <point x="457" y="292"/>
      <point x="493" y="237"/>
      <point x="493" y="181" type="curve" smooth="yes"/>
      <point x="493" y="123"/>
      <point x="451" y="64"/>
      <point x="385" y="64" type="curve" smooth="yes"/>
      <point x="256" y="64"/>
      <point x="217" y="231"/>
      <point x="72" y="231" type="curve" smooth="yes"/>
      <point x="45" y="231"/>
      <point x="29" y="226"/>
      <point x="10" y="218" type="curve"/>
      <point x="31" y="150" type="line"/>
      <point x="45" y="155"/>
      <point x="58" y="159"/>
      <point x="72" y="159" type="curve" smooth="yes"/>
      <point x="171" y="159"/>
      <point x="216" y="-10"/>
      <point x="383" y="-10" type="curve" smooth="yes"/>
      <point x="503" y="-10"/>
      <point x="573" y="72"/>
      <point x="573" y="180" type="curve" smooth="yes"/>
      <point x="573" y="236"/>
      <point x="549" y="289"/>
      <point x="496" y="326" type="curve"/>
      <point x="593" y="376"/>
      <point x="639" y="478"/>
      <point x="662" y="551" type="curve"/>
    </contour>
  </outline>
</glyph>
<glyph name="DNya" format="2">
  <advance width="728"/>
  <outline>
    <contour>
      <point x="738" y="551" type="line"/>
      <point x="738" y="622" type="line"/>
      <point x="0" y="622" type="line"/>
      <point x="0" y="551" type="line"/>
      <point x="75" y="551" type="line"/>
      <point x="51" y="512"/>
      <point x="40" y="464"/>
      <point x="40" y="421" type="curve" smooth="yes"/>
      <point x="40" y="341"/>
      <point x="82" y="270"/>
      <point x="170" y="258" type="curve"/>
      <point x="129" y="210"/>
      <point x="106" y="153"/>
      <point x="106" y="87" type="curve" smooth="yes"/>
      <point x="106" y="-99"/>
      <point x="251" y="-150"/>
      <point x="358" y="-150" type="curve" smooth="yes"/>
      <point x="417" y="-150"/>
      <point x="491" y="-141"/>
      <point x="540" y="-115" type="curve"/>
      <point x="525" y="-46" type="line"/>
      <point x="479" y="-67"/>
      <point x="412" y="-77"/>
      <point x="361" y="-77" type="curve" smooth="yes"/>
      <point x="272" y="-77"/>
      <point x="187" y="-34"/>
      <point x="187" y="88" type="curve" smooth="yes"/>
      <point x="187" y="167"/>
      <point x="221" y="221"/>
      <point x="285" y="269" type="curve"/>
      <point x="259" y="333" type="line"/>
      <point x="239" y="328"/>
      <point x="223" y="325"/>
      <point x="208" y="325" type="curve" smooth="yes"/>
      <point x="145" y="325"/>
      <point x="123" y="371"/>
      <point x="123" y="423" type="curve" smooth="yes"/>
      <point x="123" y="470"/>
      <point x="141" y="521"/>
      <point x="163" y="551" type="curve"/>
      <point x="642" y="551" type="line"/>
      <point x="585" y="480" type="line" smooth="yes"/>
      <point x="564" y="454"/>
      <point x="545" y="430"/>
      <point x="528" y="407" type="curve"/>
      <point x="515" y="422"/>
      <point x="501" y="437"/>
      <point x="486" y="451" type="curve" smooth="yes"/>
      <point x="447" y="489"/>
      <point x="406" y="517"/>
      <point x="356" y="517" type="curve" smooth="yes"/>
      <point x="298" y="517"/>
      <point x="267" y="482"/>
      <point x="267" y="450" type="curve" smooth="yes"/>
      <point x="267" y="422"/>
      <point x="291" y="395"/>
      <point x="340" y="395" type="curve" smooth="yes"/>
      <point x="373" y="395"/>
      <point x="403" y="401"/>
      <point x="424" y="410" type="curve"/>
      <point x="447" y="388"/>
      <point x="467" y="367"/>
      <point x="486" y="346" type="curve"/>
      <point x="428" y="256"/>
      <point x="407" y="191"/>
      <point x="407" y="123" type="curve" smooth="yes"/>
      <point x="407" y="64"/>
      <point x="441" y="-10"/>
      <point x="537" y="-10" type="curve" smooth="yes"/>
      <point x="639" y="-10"/>
      <point x="667" y="74"/>
      <point x="667" y="135" type="curve" smooth="yes"/>
      <point x="667" y="193"/>
      <point x="630" y="275"/>
      <point x="574" y="351" type="curve"/>
      <point x="597" y="384"/>
      <point x="624" y="421"/>
      <point x="660" y="463" type="curve" smooth="yes"/>
      <point x="734" y="551" type="line"/>
    </contour>
    <contour>
      <point x="589" y="138" type="curve" smooth="yes"/>
      <point x="589" y="104"/>
      <point x="576" y="62"/>
      <point x="537" y="62" type="curve" smooth="yes"/>
      <point x="505" y="62"/>
      <point x="485" y="97"/>
      <point x="485" y="133" type="curve" smooth="yes"/>
      <point x="485" y="171"/>
      <point x="493" y="217"/>
      <point x="533" y="287" type="curve"/>
      <point x="569" y="234"/>
      <point x="589" y="185"/>
    </contour>
  </outline>
</glyph>
<glyph name="DNyaa" format="2">
  <advance width="926"/>
  <outline>
    <contour>
      <point x="389" y="0" type="curve"/>
      <point x="466" y="0" type="line"/>
      <point x="471" y="15"/>
      <point x="475" y="30"/>
      <point x="479" y="44" type="curve"/>
      <point x="522" y="146"/>
      <point x="623" y="175"/>
      <point x="682" y="178" type="curve"/>
      <point x="685" y="56"/>
      <point x="727" y="-10"/>
      <point x="804" y="-10" type="curve" smooth="yes"/>
      <point x="889" y="-10"/>
      <point x="906" y="58"/>
      <point x="906" y="85" type="curve" smooth="yes"/>
      <point x="906" y="143"/>
      <point x="858" y="214"/>
      <point x="763" y="239" type="curve"/>
      <point x="767" y="314"/>
      <point x="782" y="422"/>
      <point x="827" y="551" type="curve"/>
      <point x="936" y="551" type="line"/>
      <point x="936" y="622" type="line"/>
      <point x="0" y="622" type="line"/>
      <point x="0" y="551" type="line"/>
      <point x="75" y="551" type="line"/>
      <point x="51" y="512"/>
      <point x="40" y="464"/>
      <point x="40" y="421" type="curve" smooth="yes"/>
      <point x="40" y="341"/>
      <point x="82" y="270"/>
      <point x="170" y="258" type="curve"/>
      <point x="129" y="210"/>
      <point x="106" y="153"/>
      <point x="106" y="87" type="curve" smooth="yes"/>
      <point x="106" y="-99"/>
      <point x="251" y="-150"/>
      <point x="358" y="-150" type="curve" smooth="yes"/>
      <point x="417" y="-150"/>
      <point x="491" y="-141"/>
      <point x="540" y="-115" type="curve"/>
      <point x="525" y="-46" type="line"/>
      <point x="479" y="-67"/>
      <point x="412" y="-77"/>
      <point x="361" y="-77" type="curve" smooth="yes"/>
      <point x="272" y="-77"/>
      <point x="187" y="-34"/>
      <point x="187" y="88" type="curve" smooth="yes"/>
      <point x="187" y="167"/>
      <point x="221" y="221"/>
      <point x="285" y="269" type="curve"/>
      <point x="259" y="333" type="line"/>
      <point x="239" y="328"/>
      <point x="223" y="325"/>
      <point x="208" y="325" type="curve" smooth="yes"/>
      <point x="145" y="325"/>
      <point x="123" y="371"/>
      <point x="123" y="423" type="curve" smooth="yes"/>
      <point x="123" y="470"/>
      <point x="141" y="521"/>
      <point x="163" y="551" type="curve"/>
      <point x="745" y="551" type="line"/>
      <point x="714" y="455"/>
      <point x="692" y="335"/>
      <point x="684" y="248" type="curve"/>
      <point x="613" y="246"/>
      <point x="554" y="223"/>
      <point x="508" y="189" type="curve"/>
      <point x="510" y="207"/>
      <point x="510" y="224"/>
      <point x="510" y="242" type="curve" smooth="yes"/>
      <point x="510" y="404"/>
      <point x="456" y="520"/>
      <point x="337" y="520" type="curve" smooth="yes"/>
      <point x="265" y="520"/>
      <point x="230" y="488"/>
      <point x="230" y="457" type="curve" smooth="yes"/>
      <point x="230" y="426"/>
      <point x="259" y="392"/>
      <point x="331" y="392" type="curve" smooth="yes"/>
      <point x="356" y="392"/>
      <point x="380" y="397"/>
      <point x="400" y="407" type="curve"/>
      <point x="423" y="375"/>
      <point x="429" y="309"/>
      <point x="429" y="235" type="curve" smooth="yes"/>
      <point x="429" y="154"/>
      <point x="409" y="58"/>
    </contour>
    <contour>
      <point x="831" y="89" type="curve" smooth="yes"/>
      <point x="831" y="81"/>
      <point x="823" y="60"/>
      <point x="805" y="60" type="curve" smooth="yes"/>
      <point x="784" y="60"/>
      <point x="764" y="81"/>
      <point x="762" y="167" type="curve"/>
      <point x="813" y="149"/>
      <point x="831" y="112"/>
    </contour>
  </outline>
</glyph>
<glyph name="DNyu" format="2">
  <advance width="906"/>
  <outline>
    <contour>
      <point x="332" y="72" type="curve"/>
      <point x="318" y="1" type="line"/>
      <point x="343" y="-4"/>
      <point x="373" y="-8"/>
      <point x="417" y="-8" type="curve" smooth="yes"/>
      <point x="495" y="-8"/>
      <point x="596" y="24"/>
      <point x="596" y="131" type="curve" smooth="yes"/>
      <point x="596" y="159"/>
      <point x="589" y="183"/>
      <point x="570" y="205" type="curve"/>
      <point x="606" y="205"/>
      <point x="634" y="203"/>
      <point x="662" y="198" type="curve"/>
      <point x="662" y="193" type="line" smooth="yes"/>
      <point x="662" y="62"/>
      <point x="704" y="-10"/>
      <point x="784" y="-10" type="curve" smooth="yes"/>
      <point x="869" y="-10"/>
      <point x="886" y="58"/>
      <point x="886" y="85" type="curve" smooth="yes"/>
      <point x="886" y="166"/>
      <point x="823" y="218"/>
      <point x="744" y="247" type="curve"/>
      <point x="749" y="322"/>
      <point x="764" y="427"/>
      <point x="807" y="551" type="curve"/>
      <point x="916" y="551" type="line"/>
      <point x="916" y="622" type="line"/>
      <point x="0" y="622" type="line"/>
      <point x="0" y="551" type="line"/>
      <point x="75" y="551" type="line"/>
      <point x="51" y="512"/>
      <point x="40" y="464"/>
      <point x="40" y="421" type="curve" smooth="yes"/>
      <point x="40" y="341"/>
      <point x="82" y="270"/>
      <point x="170" y="258" type="curve"/>
      <point x="129" y="210"/>
      <point x="106" y="153"/>
      <point x="106" y="87" type="curve" smooth="yes"/>
      <point x="106" y="-99"/>
      <point x="251" y="-150"/>
      <point x="358" y="-150" type="curve" smooth="yes"/>
      <point x="417" y="-150"/>
      <point x="491" y="-141"/>
      <point x="540" y="-115" type="curve"/>
      <point x="525" y="-46" type="line"/>
      <point x="479" y="-67"/>
      <point x="412" y="-77"/>
      <point x="361" y="-77" type="curve" smooth="yes"/>
      <point x="272" y="-77"/>
      <point x="187" y="-34"/>
      <point x="187" y="88" type="curve" smooth="yes"/>
      <point x="187" y="167"/>
      <point x="221" y="221"/>
      <point x="285" y="269" type="curve"/>
      <point x="259" y="333" type="line"/>
      <point x="239" y="328"/>
      <point x="223" y="325"/>
      <point x="208" y="325" type="curve" smooth="yes"/>
      <point x="145" y="325"/>
      <point x="123" y="371"/>
      <point x="123" y="423" type="curve" smooth="yes"/>
      <point x="123" y="470"/>
      <point x="141" y="521"/>
      <point x="163" y="551" type="curve"/>
      <point x="725" y="551" type="line"/>
      <point x="696" y="462"/>
      <point x="675" y="353"/>
      <point x="666" y="268" type="curve"/>
      <point x="638" y="273"/>
      <point x="611" y="274"/>
      <point x="584" y="274" type="curve" smooth="yes"/>
      <point x="570" y="274"/>
      <point x="555" y="274"/>
      <point x="541" y="273" type="curve"/>
      <point x="561" y="293"/>
      <point x="576" y="319"/>
      <point x="576" y="351" type="curve" smooth="yes"/>
      <point x="576" y="421"/>
      <point x="515" y="520"/>
      <point x="402" y="520" type="curve" smooth="yes"/>
      <point x="343" y="520"/>
      <point x="305" y="493"/>
      <point x="305" y="461" type="curve" smooth="yes"/>
      <point x="305" y="419"/>
      <point x="346" y="400"/>
      <point x="392" y="400" type="curve" smooth="yes"/>
      <point x="421" y="400"/>
      <point x="446" y="403"/>
      <point x="464" y="407" type="curve"/>
      <point x="485" y="393"/>
      <point x="495" y="374"/>
      <point x="495" y="354" type="curve" smooth="yes"/>
      <point x="495" y="298"/>
      <point x="445" y="281"/>
      <point x="377" y="280" type="curve"/>
      <point x="373" y="215" type="line"/>
      <point x="481" y="214"/>
      <point x="515" y="177"/>
      <point x="515" y="134" type="curve" smooth="yes"/>
      <point x="515" y="78"/>
      <point x="464" y="63"/>
      <point x="411" y="63" type="curve" smooth="yes"/>
      <point x="382" y="63"/>
      <point x="353" y="67"/>
    </contour>
    <contour>
      <point x="811" y="89" type="curve" smooth="yes"/>
      <point x="811" y="81"/>
      <point x="803" y="60"/>
      <point x="785" y="60" type="curve" smooth="yes"/>
      <point x="763" y="60"/>
      <point x="743" y="82"/>
      <point x="742" y="174" type="curve"/>
      <point x="783" y="155"/>
      <point x="811" y="127"/>
    </contour>
  </outline>
</glyph>
<glyph name="Dha.alt" format="2">
  <advance width="503"/>
  <outline>
    <contour>
      <point x="588" y="161" type="curve"/>
      <point x="533" y="224" type="line"/>
      <point x="503" y="147"/>
      <point x="460" y="62"/>
      <point x="354" y="62" type="curve" smooth="yes"/>
      <point x="307" y="62"/>
      <point x="260" y="97"/>
      <point x="260" y="161" type="curve" smooth="yes"/>
      <point x="260" y="206"/>
      <point x="305" y="255"/>
      <point x="349" y="270" type="curve"/>
      <point x="319" y="328" type="line"/>
      <point x="311" y="324" type="line" smooth="yes"/>
      <point x="280" y="310"/>
      <point x="254" y="304"/>
      <point x="232" y="304" type="curve" smooth="yes"/>
      <point x="190" y="304"/>
      <point x="162" y="326"/>
      <point x="146" y="359" type="curve"/>
      <point x="159" y="355"/>
      <point x="172" y="353"/>
      <point x="188" y="353" type="curve" smooth="yes"/>
      <point x="265" y="353"/>
      <point x="323" y="398"/>
      <point x="323" y="479" type="curve" smooth="yes"/>
      <point x="323" y="507"/>
      <point x="314" y="531"/>
      <point x="300" y="551" type="curve"/>
      <point x="513" y="551" type="line"/>
      <point x="513" y="622" type="line"/>
      <point x="0" y="622" type="line"/>
      <point x="0" y="551" type="line"/>
      <point x="82" y="551" type="line"/>
      <point x="60" y="520"/>
      <point x="50" y="480"/>
      <point x="50" y="444" type="curve" smooth="yes"/>
      <point x="50" y="343"/>
      <point x="105" y="247"/>
      <point x="209" y="237" type="curve"/>
      <point x="192" y="211"/>
      <point x="185" y="184"/>
      <point x="185" y="158" type="curve" smooth="yes"/>
      <point x="185" y="69"/>
      <point x="250" y="-10"/>
      <point x="351" y="-10" type="curve" smooth="yes"/>
      <point x="476" y="-10"/>
      <point x="540" y="58"/>
    </contour>
    <contour>
      <point x="128" y="441" type="curve"/>
      <point x="128" y="450" type="line" smooth="yes"/>
      <point x="128" y="483"/>
      <point x="140" y="535"/>
      <point x="190" y="535" type="curve" smooth="yes"/>
      <point x="229" y="535"/>
      <point x="245" y="506"/>
      <point x="245" y="479" type="curve" smooth="yes"/>
      <point x="245" y="443"/>
      <point x="219" y="421"/>
      <point x="187" y="421" type="curve" smooth="yes"/>
      <point x="164" y="421"/>
      <point x="145" y="429"/>
    </contour>
  </outline>
</glyph>
<glyph name="EyelashRa" format="2">
  <advance width="298"/>
  <outline>
    <contour>
      <point x="0" y="622" type="line"/>
      <point x="0" y="551" type="line"/>
      <point x="308" y="551" type="line"/>
      <point x="308" y="622" type="line"/>
    </contour>
    <contour>
      <point x="338" y="338" type="curve"/>
      <point x="304" y="405" type="line"/>
      <point x="272" y="386"/>
      <point x="228" y="373"/>
      <point x="172" y="373" type="curve" smooth="yes"/>
      <point x="119" y="373"/>
      <point x="85" y="385"/>
      <point x="44" y="405" type="curve"/>
      <point x="10" y="338" type="line"/>
      <point x="57" y="310"/>
      <point x="126" y="298"/>
      <point x="173" y="298" type="curve" smooth="yes"/>
      <point x="220" y="298"/>
      <point x="279" y="306"/>
    </contour>
  </outline>
</glyph>
<glyph name="Gha.half" format="2">
  <advance width="390"/>
  <outline>
    <contour>
      <point x="276" y="351" type="curve"/>
      <point x="253" y="414" type="line"/>
      <point x="231" y="404"/>
      <point x="212" y="397"/>
      <point x="190" y="397" type="curve" smooth="yes"/>
      <point x="141" y="397"/>
      <point x="120" y="423"/>
      <point x="120" y="456" type="curve" smooth="yes"/>
      <point x="120" y="487"/>
      <point x="139" y="524"/>
      <point x="173" y="551" type="curve"/>
      <point x="400" y="551" type="line"/>
      <point x="400" y="622" type="line"/>
      <point x="0" y="622" type="line"/>
      <point x="0" y="551" type="line"/>
      <point x="75" y="551" type="line"/>
      <point x="51" y="514"/>
      <point x="40" y="476"/>
      <point x="40" y="444" type="curve" smooth="yes"/>
      <point x="40" y="391"/>
      <point x="70" y="349"/>
      <point x="127" y="333" type="curve"/>
      <point x="102" y="306"/>
      <point x="91" y="275"/>
      <point x="91" y="232" type="curve" smooth="yes"/>
      <point x="91" y="130"/>
      <point x="175" y="89"/>
      <point x="269" y="89" type="curve" smooth="yes"/>
      <point x="366" y="89"/>
      <point x="471" y="138"/>
      <point x="520" y="206" type="curve"/>
      <point x="489" y="266" type="line"/>
      <point x="444" y="205"/>
      <point x="342" y="160"/>
      <point x="266" y="160" type="curve" smooth="yes"/>
      <point x="213" y="160"/>
      <point x="172" y="182"/>
      <point x="172" y="235" type="curve" smooth="yes"/>
      <point x="172" y="277"/>
      <point x="197" y="314"/>
    </contour>
  </outline>
</glyph>
<glyph name="Guu" format="2">
  <advance width="737"/>
  <outline>
    <contour>
      <point x="747" y="551" type="line"/>
      <point x="747" y="622" type="line"/>
      <point x="625" y="622" type="line"/>
      <point x="578" y="725"/>
      <point x="499" y="800"/>
      <point x="368" y="800" type="curve" smooth="yes"/>
      <point x="243" y="800"/>
      <point x="159" y="721"/>
      <point x="110" y="622" type="curve"/>
      <point x="0" y="622" type="line"/>
      <point x="0" y="551" type="line"/>
      <point x="82" y="551" type="line"/>
      <point x="67" y="500"/>
      <point x="60" y="448"/>
      <point x="60" y="400" type="curve" smooth="yes"/>
      <point x="60" y="260"/>
      <point x="114" y="98"/>
      <point x="271" y="98" type="curve" smooth="yes"/>
      <point x="377" y="98"/>
      <point x="417" y="167"/>
      <point x="417" y="231" type="curve" smooth="yes"/>
      <point x="417" y="268"/>
      <point x="392" y="351"/>
      <point x="256" y="351" type="curve" smooth="yes"/>
      <point x="249" y="351"/>
      <point x="246" y="351"/>
      <point x="236" y="350" type="curve"/>
      <point x="231" y="287" type="line"/>
      <point x="245" y="287" type="line" smooth="yes"/>
      <point x="337" y="287"/>
      <point x="340" y="250"/>
      <point x="340" y="229" type="curve" smooth="yes"/>
      <point x="340" y="187"/>
      <point x="314" y="165"/>
      <point x="276" y="165" type="curve" smooth="yes"/>
      <point x="214" y="165"/>
      <point x="138" y="211"/>
      <point x="138" y="399" type="curve" smooth="yes"/>
      <point x="138" y="445"/>
      <point x="146" y="500"/>
      <point x="163" y="551" type="curve"/>
      <point x="574" y="551" type="line"/>
      <point x="580" y="533"/>
      <point x="585" y="515"/>
      <point x="589" y="496" type="curve"/>
      <point x="506" y="412"/>
      <point x="448" y="250"/>
      <point x="448" y="139" type="curve" smooth="yes"/>
      <point x="448" y="46"/>
      <point x="484" y="-10"/>
      <point x="552" y="-10" type="curve" smooth="yes"/>
      <point x="672" y="-10"/>
      <point x="687" y="160"/>
      <point x="687" y="264" type="curve" smooth="yes"/>
      <point x="687" y="354"/>
      <point x="679" y="459"/>
      <point x="651" y="551" type="curve"/>
    </contour>
    <contour>
      <point x="367" y="726" type="curve" smooth="yes"/>
      <point x="450" y="726"/>
      <point x="506" y="683"/>
      <point x="542" y="622" type="curve"/>
      <point x="197" y="622" type="line"/>
      <point x="234" y="682"/>
      <point x="289" y="726"/>
    </contour>
    <contour>
      <point x="611" y="280" type="curve" smooth="yes"/>
      <point x="611" y="161"/>
      <point x="592" y="60"/>
      <point x="556" y="60" type="curve" smooth="yes"/>
      <point x="543" y="60"/>
      <point x="528" y="75"/>
      <point x="528" y="134" type="curve" smooth="yes"/>
      <point x="528" y="190"/>
      <point x="541" y="314"/>
      <point x="605" y="401" type="curve"/>
      <point x="609" y="358"/>
      <point x="611" y="316"/>
    </contour>
    <contour>
      <point x="304" y="510" type="curve" smooth="yes"/>
      <point x="276" y="510"/>
      <point x="252" y="486"/>
      <point x="252" y="455" type="curve" smooth="yes"/>
      <point x="252" y="426"/>
      <point x="276" y="400"/>
      <point x="304" y="400" type="curve" smooth="yes"/>
      <point x="332" y="400"/>
      <point x="356" y="426"/>
      <point x="356" y="455" type="curve" smooth="yes"/>
      <point x="356" y="486"/>
      <point x="332" y="510"/>
    </contour>
  </outline>
</glyph>
<glyph name="I.lg" format="2">
  <advance width="240"/>
  <outline>
    <contour>
      <point x="0" y="622" type="line"/>
      <point x="0" y="551" type="line"/>
      <point x="80" y="551" type="line"/>
      <point x="80" y="0" type="line"/>
      <point x="160" y="0" type="line"/>
      <point x="160" y="551" type="line"/>
      <point x="250" y="551" type="line"/>
      <point x="250" y="622" type="line"/>
      <point x="161" y="622" type="line"/>
      <point x="63" y="792"/>
      <point x="-61" y="886"/>
      <point x="-234" y="886" type="curve" smooth="yes"/>
      <point x="-391" y="886"/>
      <point x="-457" y="799"/>
      <point x="-457" y="707" type="curve" smooth="yes"/>
      <point x="-457" y="676"/>
      <point x="-450" y="644"/>
      <point x="-436" y="615" type="curve"/>
      <point x="-353" y="615" type="line"/>
      <point x="-369" y="643"/>
      <point x="-376" y="671"/>
      <point x="-376" y="696" type="curve" smooth="yes"/>
      <point x="-376" y="765"/>
      <point x="-320" y="814"/>
      <point x="-231" y="814" type="curve" smooth="yes"/>
      <point x="-109" y="814"/>
      <point x="-14" y="755"/>
      <point x="75" y="622" type="curve"/>
    </contour>
  </outline>
</glyph>
<glyph name="I.med" format="2">
  <advance width="240"/>
  <outline>
    <contour>
      <point x="0" y="622" type="line"/>
      <point x="0" y="551" type="line"/>
      <point x="80" y="551" type="line"/>
      <point x="80" y="0" type="line"/>
      <point x="160" y="0" type="line"/>
      <point x="160" y="551" type="line"/>
      <point x="250" y="551" type="line"/>
      <point x="250" y="622" type="line"/>
      <point x="153" y="622" type="line"/>
      <point x="91" y="795"/>
      <point x="14" y="876"/>
      <point x="-111" y="876" type="curve" smooth="yes"/>
      <point x="-198" y="876"/>
      <point x="-260" y="813"/>
      <point x="-260" y="723" type="curve" smooth="yes"/>
      <point x="-260" y="684"/>
      <point x="-252" y="649"/>
      <point x="-235" y="612" type="curve"/>
      <point x="-156" y="612" type="line"/>
      <point x="-171" y="642"/>
      <point x="-180" y="672"/>
      <point x="-180" y="709" type="curve" smooth="yes"/>
      <point x="-180" y="768"/>
      <point x="-154" y="805"/>
      <point x="-104" y="805" type="curve" smooth="yes"/>
      <point x="-26" y="805"/>
      <point x="26" y="746"/>
      <point x="75" y="622" type="curve"/>
    </contour>
  </outline>
</glyph>
<glyph name="II.lg" format="2">
  <advance width="326"/>
  <outline>
    <contour>
      <point x="0" y="622" type="line"/>
      <point x="0" y="551" type="line"/>
      <point x="142" y="551" type="line"/>
      <point x="154" y="519"/>
      <point x="164" y="486"/>
      <point x="171" y="452" type="curve"/>
      <point x="99" y="374"/>
      <point x="46" y="272"/>
      <point x="46" y="161" type="curve" smooth="yes"/>
      <point x="46" y="55"/>
      <point x="84" y="-10"/>
      <point x="158" y="-10" type="curve" smooth="yes"/>
      <point x="257" y="-10"/>
      <point x="277" y="106"/>
      <point x="277" y="207" type="curve" smooth="yes"/>
      <point x="277" y="329"/>
      <point x="261" y="448"/>
      <point x="226" y="551" type="curve"/>
      <point x="336" y="551" type="line"/>
      <point x="336" y="622" type="line"/>
      <point x="198" y="622" type="line"/>
      <point x="124" y="779"/>
      <point x="-6" y="886"/>
      <point x="-211" y="886" type="curve" smooth="yes"/>
      <point x="-391" y="886"/>
      <point x="-457" y="799"/>
      <point x="-457" y="707" type="curve" smooth="yes"/>
      <point x="-457" y="676"/>
      <point x="-450" y="644"/>
      <point x="-436" y="615" type="curve"/>
      <point x="-353" y="615" type="line"/>
      <point x="-369" y="643"/>
      <point x="-376" y="671"/>
      <point x="-376" y="696" type="curve" smooth="yes"/>
      <point x="-376" y="765"/>
      <point x="-320" y="814"/>
      <point x="-211" y="814" type="curve" smooth="yes"/>
      <point x="-56" y="814"/>
      <point x="47" y="738"/>
      <point x="110" y="622" type="curve"/>
    </contour>
    <contour>
      <point x="197" y="198" type="curve" smooth="yes"/>
      <point x="197" y="119"/>
      <point x="187" y="61"/>
      <point x="160" y="61" type="curve" smooth="yes"/>
      <point x="137" y="61"/>
      <point x="126" y="105"/>
      <point x="126" y="161" type="curve" smooth="yes"/>
      <point x="126" y="234"/>
      <point x="146" y="302"/>
      <point x="187" y="359" type="curve"/>
      <point x="194" y="307"/>
      <point x="197" y="253"/>
    </contour>
  </outline>
</glyph>
<glyph name="Jha.alt" format="2">
  <advance width="570"/>
  <outline>
    <contour>
      <point x="610" y="211" type="curve"/>
      <point x="593" y="284" type="line"/>
      <point x="538" y="262"/>
      <point x="489" y="232"/>
      <point x="452" y="195" type="curve"/>
      <point x="433" y="201"/>
      <point x="411" y="206"/>
      <point x="387" y="207" type="curve"/>
      <point x="387" y="214" type="line" smooth="yes"/>
      <point x="387" y="304"/>
      <point x="337" y="357"/>
      <point x="262" y="357" type="curve" smooth="yes"/>
      <point x="225" y="357"/>
      <point x="207" y="348"/>
      <point x="188" y="348" type="curve" smooth="yes"/>
      <point x="163" y="348"/>
      <point x="140" y="358"/>
      <point x="140" y="388" type="curve" smooth="yes"/>
      <point x="140" y="434"/>
      <point x="189" y="499"/>
      <point x="289" y="551" type="curve"/>
      <point x="580" y="551" type="line"/>
      <point x="580" y="622" type="line"/>
      <point x="0" y="622" type="line"/>
      <point x="0" y="551" type="line"/>
      <point x="161" y="551" type="line"/>
      <point x="100" y="504"/>
      <point x="60" y="449"/>
      <point x="60" y="386" type="curve" smooth="yes"/>
      <point x="60" y="312"/>
      <point x="120" y="278"/>
      <point x="169" y="278" type="curve" smooth="yes"/>
      <point x="199" y="278"/>
      <point x="215" y="287"/>
      <point x="253" y="287" type="curve" smooth="yes"/>
      <point x="294" y="287"/>
      <point x="306" y="255"/>
      <point x="306" y="216" type="curve" smooth="yes"/>
      <point x="306" y="189"/>
      <point x="288" y="157"/>
      <point x="262" y="129" type="curve"/>
      <point x="224" y="168"/>
      <point x="182" y="195"/>
      <point x="124" y="195" type="curve" smooth="yes"/>
      <point x="87" y="195"/>
      <point x="5" y="179"/>
      <point x="5" y="88" type="curve" smooth="yes"/>
      <point x="5" y="29"/>
      <point x="61" y="-10"/>
      <point x="120" y="-10" type="curve" smooth="yes"/>
      <point x="223" y="-10"/>
      <point x="323" y="57"/>
      <point x="366" y="137" type="curve"/>
      <point x="374" y="137" type="line" smooth="yes"/>
      <point x="385" y="137"/>
      <point x="396" y="136"/>
      <point x="406" y="134" type="curve"/>
      <point x="387" y="100"/>
      <point x="376" y="63"/>
      <point x="376" y="23" type="curve" smooth="yes"/>
      <point x="376" y="-53"/>
      <point x="408" y="-110"/>
      <point x="488" y="-110" type="curve" smooth="yes"/>
      <point x="573" y="-110"/>
      <point x="590" y="-22"/>
      <point x="590" y="5" type="curve" smooth="yes"/>
      <point x="590" y="59"/>
      <point x="566" y="118"/>
      <point x="518" y="158" type="curve"/>
      <point x="543" y="180"/>
      <point x="574" y="198"/>
    </contour>
    <contour>
      <point x="515" y="9" type="curve" smooth="yes"/>
      <point x="515" y="-16"/>
      <point x="505" y="-40"/>
      <point x="487" y="-40" type="curve" smooth="yes"/>
      <point x="463" y="-40"/>
      <point x="452" y="-11"/>
      <point x="452" y="28" type="curve" smooth="yes"/>
      <point x="452" y="54"/>
      <point x="459" y="80"/>
      <point x="473" y="104" type="curve"/>
      <point x="504" y="77"/>
      <point x="515" y="39"/>
    </contour>
    <contour>
      <point x="127" y="60" type="curve" smooth="yes"/>
      <point x="95" y="60"/>
      <point x="81" y="77"/>
      <point x="81" y="90" type="curve" smooth="yes"/>
      <point x="81" y="116"/>
      <point x="106" y="125"/>
      <point x="128" y="125" type="curve" smooth="yes"/>
      <point x="152" y="125"/>
      <point x="177" y="108"/>
      <point x="203" y="83" type="curve"/>
      <point x="178" y="69"/>
      <point x="152" y="60"/>
    </contour>
  </outline>
</glyph>
<glyph name="Jha.half" format="2">
  <advance width="505"/>
  <outline>
    <contour>
      <point x="595" y="308" type="curve"/>
      <point x="595" y="382" type="line"/>
      <point x="513" y="372"/>
      <point x="440" y="340"/>
      <point x="374" y="285" type="curve"/>
      <point x="354" y="331"/>
      <point x="314" y="357"/>
      <point x="262" y="357" type="curve" smooth="yes"/>
      <point x="225" y="357"/>
      <point x="207" y="348"/>
      <point x="188" y="348" type="curve" smooth="yes"/>
      <point x="163" y="348"/>
      <point x="140" y="358"/>
      <point x="140" y="388" type="curve" smooth="yes"/>
      <point x="140" y="434"/>
      <point x="189" y="499"/>
      <point x="289" y="551" type="curve"/>
      <point x="515" y="551" type="line"/>
      <point x="515" y="622" type="line"/>
      <point x="0" y="622" type="line"/>
      <point x="0" y="551" type="line"/>
      <point x="161" y="551" type="line"/>
      <point x="100" y="504"/>
      <point x="60" y="449"/>
      <point x="60" y="386" type="curve" smooth="yes"/>
      <point x="60" y="312"/>
      <point x="120" y="278"/>
      <point x="169" y="278" type="curve" smooth="yes"/>
      <point x="199" y="278"/>
      <point x="215" y="287"/>
      <point x="253" y="287" type="curve" smooth="yes"/>
      <point x="294" y="287"/>
      <point x="306" y="255"/>
      <point x="306" y="216" type="curve" smooth="yes"/>
      <point x="306" y="189"/>
      <point x="288" y="157"/>
      <point x="262" y="129" type="curve"/>
      <point x="224" y="168"/>
      <point x="182" y="195"/>
      <point x="124" y="195" type="curve" smooth="yes"/>
      <point x="87" y="195"/>
      <point x="5" y="179"/>
      <point x="5" y="88" type="curve" smooth="yes"/>
      <point x="5" y="29"/>
      <point x="61" y="-10"/>
      <point x="120" y="-10" type="curve" smooth="yes"/>
      <point x="246" y="-10"/>
      <point x="369" y="91"/>
      <point x="385" y="192" type="curve"/>
      <point x="445" y="257"/>
      <point x="515" y="295"/>
    </contour>
    <contour>
      <point x="127" y="60" type="curve" smooth="yes"/>
      <point x="95" y="60"/>
      <point x="81" y="77"/>
      <point x="81" y="90" type="curve" smooth="yes"/>
      <point x="81" y="116"/>
      <point x="106" y="125"/>
      <point x="128" y="125" type="curve" smooth="yes"/>
      <point x="152" y="125"/>
      <point x="177" y="108"/>
      <point x="203" y="83" type="curve"/>
      <point x="178" y="69"/>
      <point x="152" y="60"/>
    </contour>
  </outline>
</glyph>
<glyph name="Jhaa" format="2">
  <advance width="950"/>
  <outline>
    <contour>
      <point x="0" y="622" type="line"/>
      <point x="0" y="551" type="line"/>
      <point x="161" y="551" type="line"/>
      <point x="100" y="504"/>
      <point x="60" y="449"/>
      <point x="60" y="386" type="curve" smooth="yes"/>
      <point x="60" y="312"/>
      <point x="120" y="278"/>
      <point x="169" y="278" type="curve" smooth="yes"/>
      <point x="199" y="278"/>
      <point x="215" y="287"/>
      <point x="253" y="287" type="curve" smooth="yes"/>
      <point x="294" y="287"/>
      <point x="306" y="255"/>
      <point x="306" y="216" type="curve" smooth="yes"/>
      <point x="306" y="189"/>
      <point x="288" y="157"/>
      <point x="262" y="129" type="curve"/>
      <point x="224" y="168"/>
      <point x="182" y="195"/>
      <point x="124" y="195" type="curve" smooth="yes"/>
      <point x="87" y="195"/>
      <point x="5" y="179"/>
      <point x="5" y="88" type="curve" smooth="yes"/>
      <point x="5" y="29"/>
      <point x="61" y="-10"/>
      <point x="120" y="-10" type="curve" smooth="yes"/>
      <point x="221" y="-10"/>
      <point x="320" y="55"/>
      <point x="364" y="132" type="curve"/>
      <point x="391" y="160"/>
      <point x="424" y="174"/>
      <point x="448" y="174" type="curve" smooth="yes"/>
      <point x="488" y="174"/>
      <point x="498" y="142"/>
      <point x="498" y="102" type="curve" smooth="yes"/>
      <point x="498" y="0" type="line"/>
      <point x="578" y="0" type="line"/>
      <point x="578" y="4" type="line" smooth="yes"/>
      <point x="578" y="97"/>
      <point x="635" y="163"/>
      <point x="706" y="172" type="curve"/>
      <point x="711" y="54"/>
      <point x="752" y="-10"/>
      <point x="828" y="-10" type="curve" smooth="yes"/>
      <point x="913" y="-10"/>
      <point x="930" y="58"/>
      <point x="930" y="85" type="curve" smooth="yes"/>
      <point x="930" y="145"/>
      <point x="885" y="221"/>
      <point x="788" y="242" type="curve"/>
      <point x="792" y="318"/>
      <point x="807" y="424"/>
      <point x="851" y="551" type="curve"/>
      <point x="960" y="551" type="line"/>
      <point x="960" y="622" type="line"/>
    </contour>
    <contour>
      <point x="708" y="246" type="curve"/>
      <point x="651" y="241"/>
      <point x="603" y="216"/>
      <point x="568" y="174" type="curve"/>
      <point x="551" y="220"/>
      <point x="512" y="248"/>
      <point x="457" y="248" type="curve" smooth="yes"/>
      <point x="434" y="248"/>
      <point x="409" y="243"/>
      <point x="386" y="233" type="curve"/>
      <point x="379" y="311"/>
      <point x="331" y="357"/>
      <point x="262" y="357" type="curve" smooth="yes"/>
      <point x="225" y="357"/>
      <point x="207" y="348"/>
      <point x="188" y="348" type="curve" smooth="yes"/>
      <point x="163" y="348"/>
      <point x="140" y="358"/>
      <point x="140" y="388" type="curve" smooth="yes"/>
      <point x="140" y="434"/>
      <point x="189" y="499"/>
      <point x="289" y="551" type="curve"/>
      <point x="769" y="551" type="line"/>
      <point x="737" y="454"/>
      <point x="715" y="333"/>
    </contour>
    <contour>
      <point x="127" y="60" type="curve" smooth="yes"/>
      <point x="95" y="60"/>
      <point x="81" y="77"/>
      <point x="81" y="90" type="curve" smooth="yes"/>
      <point x="81" y="116"/>
      <point x="106" y="125"/>
      <point x="128" y="125" type="curve" smooth="yes"/>
      <point x="152" y="125"/>
      <point x="177" y="108"/>
      <point x="203" y="83" type="curve"/>
      <point x="178" y="69"/>
      <point x="152" y="60"/>
    </contour>
    <contour>
      <point x="855" y="89" type="curve" smooth="yes"/>
      <point x="855" y="81"/>
      <point x="847" y="60"/>
      <point x="829" y="60" type="curve" smooth="yes"/>
      <point x="808" y="60"/>
      <point x="788" y="81"/>
      <point x="786" y="167" type="curve"/>
      <point x="842" y="151"/>
      <point x="855" y="114"/>
    </contour>
  </outline>
</glyph>
<glyph name="Ju" format="2">
  <advance width="686"/>
  <outline>
    <contour>
      <point x="9" y="92" type="curve"/>
      <point x="-50" y="55" type="line"/>
      <point x="1" y="-34"/>
      <point x="91" y="-140"/>
      <point x="200" y="-140" type="curve" smooth="yes"/>
      <point x="320" y="-140"/>
      <point x="380" y="-63"/>
      <point x="380" y="31" type="curve" smooth="yes"/>
      <point x="380" y="78"/>
      <point x="358" y="124"/>
      <point x="312" y="156" type="curve"/>
      <point x="342" y="167"/>
      <point x="380" y="177"/>
      <point x="442" y="178" type="curve"/>
      <point x="445" y="56"/>
      <point x="487" y="-10"/>
      <point x="564" y="-10" type="curve" smooth="yes"/>
      <point x="649" y="-10"/>
      <point x="666" y="58"/>
      <point x="666" y="85" type="curve" smooth="yes"/>
      <point x="666" y="143"/>
      <point x="618" y="214"/>
      <point x="523" y="239" type="curve"/>
      <point x="527" y="314"/>
      <point x="542" y="422"/>
      <point x="587" y="551" type="curve"/>
      <point x="696" y="551" type="line"/>
      <point x="696" y="622" type="line"/>
      <point x="0" y="622" type="line"/>
      <point x="0" y="551" type="line"/>
      <point x="505" y="551" type="line"/>
      <point x="474" y="455"/>
      <point x="452" y="335"/>
      <point x="444" y="248" type="curve"/>
      <point x="383" y="247"/>
      <point x="336" y="238"/>
      <point x="296" y="223" type="curve"/>
      <point x="316" y="260"/>
      <point x="326" y="301"/>
      <point x="326" y="342" type="curve" smooth="yes"/>
      <point x="326" y="436"/>
      <point x="273" y="520"/>
      <point x="175" y="520" type="curve" smooth="yes"/>
      <point x="96" y="520"/>
      <point x="40" y="467"/>
      <point x="40" y="390" type="curve" smooth="yes"/>
      <point x="40" y="313"/>
      <point x="95" y="257"/>
      <point x="168" y="257" type="curve" smooth="yes"/>
      <point x="196" y="257"/>
      <point x="220" y="264"/>
      <point x="239" y="273" type="curve"/>
      <point x="229" y="240"/>
      <point x="209" y="211"/>
      <point x="179" y="198" type="curve"/>
      <point x="169" y="133" type="line"/>
      <point x="275" y="126"/>
      <point x="300" y="90"/>
      <point x="300" y="33" type="curve" smooth="yes"/>
      <point x="300" y="-24"/>
      <point x="268" y="-66"/>
      <point x="202" y="-66" type="curve" smooth="yes"/>
      <point x="126" y="-66"/>
      <point x="59" y="9"/>
    </contour>
    <contour>
      <point x="174" y="329" type="curve" smooth="yes"/>
      <point x="151" y="329"/>
      <point x="115" y="342"/>
      <point x="115" y="389" type="curve" smooth="yes"/>
      <point x="115" y="418"/>
      <point x="136" y="448"/>
      <point x="179" y="448" type="curve" smooth="yes"/>
      <point x="223" y="448"/>
      <point x="246" y="410"/>
      <point x="249" y="361" type="curve"/>
      <point x="230" y="342"/>
      <point x="205" y="329"/>
    </contour>
    <contour>
      <point x="591" y="89" type="curve" smooth="yes"/>
      <point x="591" y="81"/>
      <point x="583" y="60"/>
      <point x="565" y="60" type="curve" smooth="yes"/>
      <point x="544" y="60"/>
      <point x="524" y="81"/>
      <point x="522" y="167" type="curve"/>
      <point x="573" y="149"/>
      <point x="591" y="112"/>
    </contour>
  </outline>
</glyph>
<glyph name="KSsYa" format="2">
  <advance width="972"/>
  <outline>
    <contour>
      <point x="407" y="-43" type="curve"/>
      <point x="467" y="7" type="line"/>
      <point x="436" y="45"/>
      <point x="395" y="109"/>
      <point x="392" y="202" type="curve"/>
      <point x="320" y="186" type="line"/>
      <point x="320" y="175" type="line"/>
      <point x="314" y="125"/>
      <point x="291" y="64"/>
      <point x="214" y="64" type="curve" smooth="yes"/>
      <point x="168" y="64"/>
      <point x="131" y="92"/>
      <point x="131" y="142" type="curve" smooth="yes"/>
      <point x="131" y="217"/>
      <point x="200" y="254"/>
      <point x="256" y="308" type="curve"/>
      <point x="271" y="307"/>
      <point x="287" y="307"/>
      <point x="303" y="307" type="curve" smooth="yes"/>
      <point x="364" y="307"/>
      <point x="430" y="314"/>
      <point x="520" y="331" type="curve"/>
      <point x="520" y="401" type="line"/>
      <point x="436" y="385"/>
      <point x="368" y="377"/>
      <point x="307" y="377" type="curve"/>
      <point x="318" y="400"/>
      <point x="326" y="427"/>
      <point x="326" y="460" type="curve" smooth="yes"/>
      <point x="326" y="489"/>
      <point x="318" y="523"/>
      <point x="298" y="551" type="curve"/>
      <point x="450" y="551" type="line"/>
      <point x="450" y="622" type="line"/>
      <point x="0" y="622" type="line"/>
      <point x="0" y="551" type="line"/>
      <point x="80" y="551" type="line"/>
      <point x="61" y="528"/>
      <point x="50" y="500"/>
      <point x="50" y="467" type="curve" smooth="yes"/>
      <point x="50" y="388"/>
      <point x="99" y="344"/>
      <point x="171" y="323" type="curve"/>
      <point x="115" y="276"/>
      <point x="50" y="221"/>
      <point x="50" y="137" type="curve" smooth="yes"/>
      <point x="50" y="29"/>
      <point x="149" y="-10"/>
      <point x="211" y="-10" type="curve" smooth="yes"/>
      <point x="274" y="-10"/>
      <point x="319" y="16"/>
      <point x="349" y="47" type="curve"/>
      <point x="365" y="9"/>
      <point x="386" y="-20"/>
    </contour>
    <contour>
      <point x="225" y="383" type="curve"/>
      <point x="165" y="393"/>
      <point x="123" y="419"/>
      <point x="123" y="470" type="curve" smooth="yes"/>
      <point x="123" y="501"/>
      <point x="151" y="533"/>
      <point x="190" y="533" type="curve" smooth="yes"/>
      <point x="240" y="533"/>
      <point x="251" y="483"/>
      <point x="251" y="462" type="curve" smooth="yes"/>
      <point x="251" y="432"/>
      <point x="241" y="406"/>
    </contour>
    <contour>
      <point x="892" y="0" type="line"/>
      <point x="892" y="551" type="line"/>
      <point x="982" y="551" type="line"/>
      <point x="982" y="622" type="line"/>
      <point x="380" y="622" type="line"/>
      <point x="380" y="551" type="line"/>
      <point x="463" y="551" type="line"/>
      <point x="500" y="503"/>
      <point x="514" y="455"/>
      <point x="514" y="413" type="curve" smooth="yes"/>
      <point x="514" y="330"/>
      <point x="461" y="267"/>
      <point x="426" y="255" type="curve"/>
      <point x="443" y="150"/>
      <point x="529" y="105"/>
      <point x="621" y="105" type="curve" smooth="yes"/>
      <point x="690" y="105"/>
      <point x="763" y="133"/>
      <point x="812" y="179" type="curve"/>
      <point x="812" y="0" type="line"/>
    </contour>
    <contour>
      <point x="628" y="179" type="curve" smooth="yes"/>
      <point x="583" y="179"/>
      <point x="539" y="194"/>
      <point x="511" y="230" type="curve"/>
      <point x="564" y="266"/>
      <point x="590" y="338"/>
      <point x="590" y="412" type="curve" smooth="yes"/>
      <point x="590" y="460"/>
      <point x="577" y="508"/>
      <point x="550" y="551" type="curve"/>
      <point x="812" y="551" type="line"/>
      <point x="812" y="290" type="line"/>
      <point x="777" y="219"/>
      <point x="700" y="179"/>
    </contour>
  </outline>
</glyph>
<glyph name="KSsa" format="2">
  <advance width="677"/>
  <outline>
    <contour>
      <point x="407" y="-43" type="curve"/>
      <point x="467" y="7" type="line"/>
      <point x="436" y="45"/>
      <point x="395" y="109"/>
      <point x="392" y="202" type="curve"/>
      <point x="320" y="186" type="line"/>
      <point x="320" y="175" type="line"/>
      <point x="314" y="125"/>
      <point x="291" y="64"/>
      <point x="214" y="64" type="curve" smooth="yes"/>
      <point x="168" y="64"/>
      <point x="131" y="92"/>
      <point x="131" y="142" type="curve" smooth="yes"/>
      <point x="131" y="217"/>
      <point x="200" y="254"/>
      <point x="256" y="308" type="curve"/>
      <point x="271" y="307"/>
      <point x="287" y="307"/>
      <point x="303" y="307" type="curve" smooth="yes"/>
      <point x="374" y="307"/>
      <point x="449" y="318"/>
      <point x="517" y="332" type="curve"/>
      <point x="517" y="0" type="line"/>
      <point x="597" y="0" type="line"/>
      <point x="597" y="551" type="line"/>
      <point x="687" y="551" type="line"/>
      <point x="687" y="622" type="line"/>
      <point x="0" y="622" type="line"/>
      <point x="0" y="551" type="line"/>
      <point x="80" y="551" type="line"/>
      <point x="61" y="528"/>
      <point x="50" y="500"/>
      <point x="50" y="467" type="curve" smooth="yes"/>
      <point x="50" y="388"/>
      <point x="99" y="344"/>
      <point x="171" y="323" type="curve"/>
      <point x="116" y="277"/>
      <point x="50" y="221"/>
      <point x="50" y="137" type="curve" smooth="yes"/>
      <point x="50" y="29"/>
      <point x="149" y="-10"/>
      <point x="211" y="-10" type="curve" smooth="yes"/>
      <point x="274" y="-10"/>
      <point x="319" y="16"/>
      <point x="349" y="47" type="curve"/>
      <point x="365" y="9"/>
      <point x="386" y="-20"/>
    </contour>
    <contour>
      <point x="326" y="460" type="curve" smooth="yes"/>
      <point x="326" y="489"/>
      <point x="318" y="523"/>
      <point x="298" y="551" type="curve"/>
      <point x="517" y="551" type="line"/>
      <point x="517" y="404" type="line"/>
      <point x="458" y="388"/>
      <point x="379" y="377"/>
      <point x="307" y="377" type="curve"/>
      <point x="318" y="400"/>
      <point x="326" y="427"/>
    </contour>
    <contour>
      <point x="123" y="470" type="curve" smooth="yes"/>
      <point x="123" y="501"/>
      <point x="151" y="533"/>
      <point x="190" y="533" type="curve" smooth="yes"/>
      <point x="240" y="533"/>
      <point x="251" y="483"/>
      <point x="251" y="462" type="curve" smooth="yes"/>
      <point x="251" y="432"/>
      <point x="241" y="406"/>
      <point x="225" y="383" type="curve"/>
      <point x="165" y="393"/>
      <point x="123" y="419"/>
    </contour>
  </outline>
</glyph>
<glyph name="Kaa" format="2">
  <advance width="810"/>
  <outline>
    <contour>
      <point x="438" y="0" type="line"/>
      <point x="438" y="10" type="line" smooth="yes"/>
      <point x="440" y="103"/>
      <point x="496" y="163"/>
      <point x="566" y="172" type="curve"/>
      <point x="571" y="54"/>
      <point x="612" y="-10"/>
      <point x="688" y="-10" type="curve" smooth="yes"/>
      <point x="773" y="-10"/>
      <point x="790" y="58"/>
      <point x="790" y="85" type="curve" smooth="yes"/>
      <point x="790" y="146"/>
      <point x="748" y="222"/>
      <point x="648" y="242" type="curve"/>
      <point x="652" y="318"/>
      <point x="667" y="424"/>
      <point x="711" y="551" type="curve"/>
      <point x="820" y="551" type="line"/>
      <point x="820" y="622" type="line"/>
      <point x="0" y="622" type="line"/>
      <point x="0" y="551" type="line"/>
      <point x="101" y="551" type="line"/>
      <point x="57" y="493"/>
      <point x="40" y="452"/>
      <point x="40" y="395" type="curve" smooth="yes"/>
      <point x="40" y="288"/>
      <point x="110" y="223"/>
      <point x="110" y="131" type="curve" smooth="yes"/>
      <point x="110" y="107"/>
      <point x="106" y="74"/>
      <point x="99" y="41" type="curve"/>
      <point x="95" y="28"/>
      <point x="91" y="14"/>
      <point x="88" y="0" type="curve"/>
      <point x="165" y="0" type="line"/>
      <point x="189" y="115"/>
      <point x="260" y="174"/>
      <point x="308" y="174" type="curve" smooth="yes"/>
      <point x="348" y="174"/>
      <point x="358" y="142"/>
      <point x="358" y="102" type="curve" smooth="yes"/>
      <point x="358" y="0" type="line"/>
    </contour>
    <contour>
      <point x="317" y="248" type="curve" smooth="yes"/>
      <point x="270" y="248"/>
      <point x="223" y="226"/>
      <point x="184" y="187" type="curve"/>
      <point x="167" y="263"/>
      <point x="120" y="322"/>
      <point x="120" y="402" type="curve" smooth="yes"/>
      <point x="120" y="444"/>
      <point x="133" y="487"/>
      <point x="199" y="551" type="curve"/>
      <point x="629" y="551" type="line"/>
      <point x="597" y="454"/>
      <point x="575" y="334"/>
      <point x="568" y="247" type="curve"/>
      <point x="505" y="242"/>
      <point x="460" y="216"/>
      <point x="428" y="176" type="curve"/>
      <point x="410" y="221"/>
      <point x="371" y="248"/>
    </contour>
    <contour>
      <point x="715" y="89" type="curve" smooth="yes"/>
      <point x="715" y="81"/>
      <point x="707" y="60"/>
      <point x="689" y="60" type="curve" smooth="yes"/>
      <point x="668" y="60"/>
      <point x="648" y="81"/>
      <point x="646" y="167" type="curve"/>
      <point x="701" y="151"/>
      <point x="715" y="113"/>
    </contour>
  </outline>
</glyph>
<glyph name="KaaRa" format="2">
  <advance width="600"/>
  <outline>
    <contour>
      <point x="422" y="622" type="line"/>
      <point x="422" y="551" type="line"/>
      <point x="632" y="551" type="line"/>
      <point x="632" y="622" type="line"/>
    </contour>
    <contour>
      <point x="593" y="-212" type="curve" smooth="yes"/>
      <point x="637" y="-212"/>
      <point x="699" y="-199"/>
      <point x="779" y="-122" type="curve"/>
      <point x="738" y="-72" type="line"/>
      <point x="667" y="-130"/>
      <point x="641" y="-141"/>
      <point x="605" y="-141" type="curve" smooth="yes"/>
      <point x="512" y="-141"/>
      <point x="569" y="14"/>
      <point x="417" y="31" type="curve"/>
      <point x="427" y="45"/>
      <point x="433" y="59"/>
      <point x="433" y="89" type="curve" smooth="yes"/>
      <point x="433" y="138"/>
      <point x="386" y="185"/>
      <point x="304" y="192" type="curve"/>
      <point x="314" y="206"/>
      <point x="320" y="225"/>
      <point x="320" y="248" type="curve" smooth="yes"/>
      <point x="320" y="307"/>
      <point x="272" y="344"/>
      <point x="199" y="351" type="curve"/>
      <point x="208" y="362"/>
      <point x="213" y="374"/>
      <point x="213" y="388" type="curve" smooth="yes"/>
      <point x="213" y="419"/>
      <point x="188" y="437"/>
      <point x="188" y="477" type="curve" smooth="yes"/>
      <point x="188" y="501"/>
      <point x="207" y="524"/>
      <point x="235" y="551" type="curve"/>
      <point x="446" y="551" type="line"/>
      <point x="446" y="622" type="line"/>
      <point x="0" y="622" type="line"/>
      <point x="0" y="551" type="line"/>
      <point x="146" y="551" type="line"/>
      <point x="126" y="524"/>
      <point x="108" y="498"/>
      <point x="108" y="479" type="curve" smooth="yes"/>
      <point x="108" y="438"/>
      <point x="133" y="419"/>
      <point x="133" y="395" type="curve" smooth="yes"/>
      <point x="133" y="356"/>
      <point x="95" y="338"/>
      <point x="28" y="320" type="curve"/>
      <point x="59" y="258" type="line"/>
      <point x="91" y="274"/>
      <point x="128" y="285"/>
      <point x="159" y="285" type="curve" smooth="yes"/>
      <point x="203" y="285"/>
      <point x="239" y="275"/>
      <point x="239" y="239" type="curve" smooth="yes"/>
      <point x="239" y="193"/>
      <point x="192" y="173"/>
      <point x="141" y="157" type="curve"/>
      <point x="172" y="94" type="line"/>
      <point x="207" y="110"/>
      <point x="237" y="122"/>
      <point x="279" y="122" type="curve" smooth="yes"/>
      <point x="316" y="122"/>
      <point x="352" y="112"/>
      <point x="352" y="76" type="curve" smooth="yes"/>
      <point x="352" y="30"/>
      <point x="305" y="10"/>
      <point x="254" y="-6" type="curve"/>
      <point x="285" y="-69" type="line"/>
      <point x="322" y="-52"/>
      <point x="351" y="-40"/>
      <point x="386" y="-40" type="curve" smooth="yes"/>
      <point x="507" y="-40"/>
      <point x="433" y="-212"/>
    </contour>
  </outline>
</glyph>
<glyph name="Kha.alt" format="2">
  <advance width="390"/>
  <outline>
    <contour>
      <point x="540" y="551" type="line"/>
      <point x="540" y="622" type="line"/>
      <point x="0" y="622" type="line"/>
      <point x="0" y="551" type="line"/>
      <point x="91" y="551" type="line"/>
      <point x="70" y="488"/>
      <point x="60" y="416"/>
      <point x="60" y="340" type="curve" smooth="yes"/>
      <point x="60" y="117"/>
      <point x="155" y="-10"/>
      <point x="299" y="-10" type="curve" smooth="yes"/>
      <point x="419" y="-10"/>
      <point x="488" y="74"/>
      <point x="488" y="172" type="curve" smooth="yes"/>
      <point x="488" y="239"/>
      <point x="457" y="287"/>
      <point x="392" y="318" type="curve"/>
      <point x="435" y="347"/>
      <point x="465" y="394"/>
      <point x="465" y="464" type="curve" smooth="yes"/>
      <point x="465" y="494"/>
      <point x="455" y="525"/>
      <point x="436" y="551" type="curve"/>
    </contour>
    <contour>
      <point x="259" y="345" type="curve"/>
      <point x="254" y="274" type="line"/>
      <point x="264" y="275"/>
      <point x="268" y="275"/>
      <point x="275" y="275" type="curve" smooth="yes"/>
      <point x="345" y="275"/>
      <point x="408" y="250"/>
      <point x="408" y="170" type="curve" smooth="yes"/>
      <point x="408" y="118"/>
      <point x="372" y="64"/>
      <point x="298" y="64" type="curve" smooth="yes"/>
      <point x="226" y="64"/>
      <point x="141" y="140"/>
      <point x="141" y="338" type="curve" smooth="yes"/>
      <point x="141" y="410"/>
      <point x="149" y="486"/>
      <point x="172" y="551" type="curve"/>
      <point x="338" y="551" type="line"/>
      <point x="367" y="530"/>
      <point x="384" y="497"/>
      <point x="384" y="463" type="curve" smooth="yes"/>
      <point x="384" y="403"/>
      <point x="357" y="344"/>
      <point x="272" y="344" type="curve" smooth="yes"/>
      <point x="269" y="344"/>
      <point x="262" y="345"/>
    </contour>
    <contour>
      <point x="527" y="422" type="curve" smooth="yes"/>
      <point x="499" y="422"/>
      <point x="475" y="398"/>
      <point x="475" y="367" type="curve" smooth="yes"/>
      <point x="475" y="338"/>
      <point x="499" y="312"/>
      <point x="527" y="312" type="curve" smooth="yes"/>
      <point x="555" y="312"/>
      <point x="579" y="338"/>
      <point x="579" y="367" type="curve" smooth="yes"/>
      <point x="579" y="398"/>
      <point x="555" y="422"/>
    </contour>
  </outline>
</glyph>
<glyph name="Ku" format="2">
  <advance width="1176"/>
  <outline>
    <contour>
      <point x="540" y="551" type="line"/>
      <point x="540" y="622" type="line"/>
      <point x="206" y="622" type="line"/>
      <point x="245" y="684"/>
      <point x="305" y="726"/>
      <point x="393" y="726" type="curve" smooth="yes"/>
      <point x="502" y="726"/>
      <point x="567" y="650"/>
      <point x="590" y="599" type="curve"/>
      <point x="673" y="599" type="line"/>
      <point x="625" y="716"/>
      <point x="532" y="800"/>
      <point x="393" y="800" type="curve" smooth="yes"/>
      <point x="272" y="800"/>
      <point x="178" y="731"/>
      <point x="121" y="622" type="curve"/>
      <point x="0" y="622" type="line"/>
      <point x="0" y="551" type="line"/>
      <point x="91" y="551" type="line"/>
      <point x="71" y="488"/>
      <point x="60" y="417"/>
      <point x="60" y="340" type="curve" smooth="yes"/>
      <point x="60" y="117"/>
      <point x="155" y="-10"/>
      <point x="299" y="-10" type="curve" smooth="yes"/>
      <point x="419" y="-10"/>
      <point x="488" y="74"/>
      <point x="488" y="172" type="curve" smooth="yes"/>
      <point x="488" y="239"/>
      <point x="457" y="287"/>
      <point x="392" y="318" type="curve"/>
      <point x="435" y="347"/>
      <point x="465" y="394"/>
      <point x="465" y="464" type="curve" smooth="yes"/>
      <point x="465" y="494"/>
      <point x="455" y="525"/>
      <point x="436" y="551" type="curve"/>
    </contour>
    <contour>
      <point x="259" y="345" type="curve"/>
      <point x="254" y="274" type="line"/>
      <point x="258" y="274"/>
      <point x="262" y="274"/>
      <point x="266" y="275" type="curve"/>
      <point x="367" y="275"/>
      <point x="408" y="238"/>
      <point x="408" y="170" type="curve" smooth="yes"/>
      <point x="408" y="118"/>
      <point x="372" y="64"/>
      <point x="298" y="64" type="curve" smooth="yes"/>
      <point x="226" y="64"/>
      <point x="141" y="140"/>
      <point x="141" y="338" type="curve" smooth="yes"/>
      <point x="141" y="410"/>
      <point x="150" y="486"/>
      <point x="172" y="551" type="curve"/>
      <point x="338" y="551" type="line"/>
      <point x="367" y="530"/>
      <point x="384" y="497"/>
      <point x="384" y="463" type="curve" smooth="yes"/>
      <point x="384" y="403"/>
      <point x="357" y="344"/>
      <point x="272" y="344" type="curve" smooth="yes"/>
      <point x="269" y="344"/>
      <point x="262" y="345"/>
    </contour>
    <contour>
      <point x="530" y="622" type="line"/>
      <point x="530" y="551" type="line"/>
      <point x="609" y="551" type="line"/>
      <point x="631" y="464"/>
      <point x="641" y="362"/>
      <point x="641" y="284" type="curve" smooth="yes"/>
      <point x="641" y="191"/>
      <point x="631" y="110"/>
      <point x="615" y="49" type="curve"/>
      <point x="609" y="34"/>
      <point x="604" y="17"/>
      <point x="599" y="0" type="curve"/>
      <point x="676" y="0" type="line"/>
      <point x="709" y="141"/>
      <point x="812" y="176"/>
      <point x="932" y="178" type="curve"/>
      <point x="935" y="56"/>
      <point x="977" y="-10"/>
      <point x="1054" y="-10" type="curve" smooth="yes"/>
      <point x="1139" y="-10"/>
      <point x="1156" y="58"/>
      <point x="1156" y="85" type="curve" smooth="yes"/>
      <point x="1156" y="143"/>
      <point x="1108" y="214"/>
      <point x="1013" y="239" type="curve"/>
      <point x="1017" y="314"/>
      <point x="1032" y="422"/>
      <point x="1077" y="551" type="curve"/>
      <point x="1186" y="551" type="line"/>
      <point x="1186" y="622" type="line"/>
    </contour>
    <contour>
      <point x="934" y="248" type="curve"/>
      <point x="845" y="247"/>
      <point x="770" y="228"/>
      <point x="712" y="184" type="curve"/>
      <point x="717" y="216"/>
      <point x="721" y="249"/>
      <point x="721" y="275" type="curve" smooth="yes"/>
      <point x="721" y="358"/>
      <point x="711" y="451"/>
      <point x="692" y="551" type="curve"/>
      <point x="995" y="551" type="line"/>
      <point x="964" y="455"/>
      <point x="942" y="335"/>
    </contour>
    <contour>
      <point x="1081" y="89" type="curve" smooth="yes"/>
      <point x="1081" y="81"/>
      <point x="1073" y="60"/>
      <point x="1055" y="60" type="curve" smooth="yes"/>
      <point x="1034" y="60"/>
      <point x="1014" y="81"/>
      <point x="1012" y="167" type="curve"/>
      <point x="1063" y="149"/>
      <point x="1081" y="112"/>
    </contour>
  </outline>
</glyph>
<glyph name="Laa" format="2">
  <advance width="655"/>
  <outline>
    <contour>
      <point x="0" y="622" type="line"/>
      <point x="0" y="551" type="line"/>
      <point x="101" y="551" type="line"/>
      <point x="57" y="493"/>
      <point x="40" y="454"/>
      <point x="40" y="409" type="curve" smooth="yes"/>
      <point x="40" y="335"/>
      <point x="110" y="284"/>
      <point x="153" y="229" type="curve"/>
      <point x="63" y="194"/>
      <point x="40" y="132"/>
      <point x="40" y="85" type="curve" smooth="yes"/>
      <point x="40" y="42"/>
      <point x="57" y="-10"/>
      <point x="142" y="-10" type="curve" smooth="yes"/>
      <point x="222" y="-10"/>
      <point x="264" y="62"/>
      <point x="264" y="158" type="curve" smooth="yes"/>
      <point x="264" y="168"/>
      <point x="263" y="178"/>
      <point x="261" y="188" type="curve"/>
      <point x="281" y="190"/>
      <point x="304" y="192"/>
      <point x="331" y="192" type="curve" smooth="yes"/>
      <point x="351" y="192"/>
      <point x="383" y="191"/>
      <point x="411" y="184" type="curve"/>
      <point x="413" y="59"/>
      <point x="455" y="-10"/>
      <point x="533" y="-10" type="curve" smooth="yes"/>
      <point x="618" y="-10"/>
      <point x="635" y="50"/>
      <point x="635" y="85" type="curve" smooth="yes"/>
      <point x="635" y="152"/>
      <point x="579" y="205"/>
      <point x="492" y="234" type="curve"/>
      <point x="496" y="309"/>
      <point x="510" y="419"/>
      <point x="556" y="551" type="curve"/>
      <point x="665" y="551" type="line"/>
      <point x="665" y="622" type="line"/>
    </contour>
    <contour>
      <point x="234" y="249" type="curve"/>
      <point x="192" y="312"/>
      <point x="120" y="352"/>
      <point x="120" y="417" type="curve" smooth="yes"/>
      <point x="120" y="446"/>
      <point x="133" y="487"/>
      <point x="199" y="551" type="curve"/>
      <point x="474" y="551" type="line"/>
      <point x="443" y="456"/>
      <point x="421" y="339"/>
      <point x="414" y="252" type="curve"/>
      <point x="389" y="255"/>
      <point x="362" y="257"/>
      <point x="335" y="257" type="curve" smooth="yes"/>
      <point x="297" y="257"/>
      <point x="263" y="254"/>
    </contour>
    <contour>
      <point x="184" y="152" type="curve" smooth="yes"/>
      <point x="184" y="84"/>
      <point x="163" y="60"/>
      <point x="141" y="60" type="curve" smooth="yes"/>
      <point x="123" y="60"/>
      <point x="115" y="72"/>
      <point x="115" y="89" type="curve" smooth="yes"/>
      <point x="115" y="109"/>
      <point x="128" y="144"/>
      <point x="182" y="168" type="curve"/>
      <point x="183" y="163"/>
      <point x="184" y="157"/>
    </contour>
    <contour>
      <point x="560" y="89" type="curve" smooth="yes"/>
      <point x="560" y="73"/>
      <point x="552" y="60"/>
      <point x="534" y="60" type="curve" smooth="yes"/>
      <point x="513" y="60"/>
      <point x="493" y="80"/>
      <point x="491" y="162" type="curve"/>
      <point x="531" y="146"/>
      <point x="560" y="122"/>
    </contour>
  </outline>
</glyph>
<glyph name="Li" format="2">
  <advance width="546"/>
  <outline>
    <contour>
      <point x="63" y="90" type="curve"/>
      <point x="5" y="37" type="line"/>
      <point x="53" y="-28"/>
      <point x="156" y="-160"/>
      <point x="320" y="-160" type="curve" smooth="yes"/>
      <point x="440" y="-160"/>
      <point x="506" y="-93"/>
      <point x="506" y="1" type="curve" smooth="yes"/>
      <point x="506" y="83"/>
      <point x="456" y="136"/>
      <point x="366" y="166" type="curve"/>
      <point x="392" y="190"/>
      <point x="405" y="219"/>
      <point x="405" y="248" type="curve" smooth="yes"/>
      <point x="405" y="335"/>
      <point x="308" y="408"/>
      <point x="308" y="461" type="curve" smooth="yes"/>
      <point x="308" y="490"/>
      <point x="319" y="521"/>
      <point x="337" y="551" type="curve"/>
      <point x="556" y="551" type="line"/>
      <point x="556" y="622" type="line"/>
      <point x="0" y="622" type="line"/>
      <point x="0" y="551" type="line"/>
      <point x="251" y="551" type="line"/>
      <point x="238" y="524"/>
      <point x="227" y="499"/>
      <point x="227" y="462" type="curve" smooth="yes"/>
      <point x="227" y="377"/>
      <point x="324" y="319"/>
      <point x="324" y="253" type="curve" smooth="yes"/>
      <point x="324" y="211"/>
      <point x="284" y="183"/>
      <point x="233" y="180" type="curve"/>
      <point x="233" y="112" type="line"/>
      <point x="238" y="112"/>
      <point x="244" y="113"/>
      <point x="250" y="113" type="curve" smooth="yes"/>
      <point x="322" y="113"/>
      <point x="425" y="78"/>
      <point x="425" y="-2" type="curve" smooth="yes"/>
      <point x="425" y="-43"/>
      <point x="396" y="-86"/>
      <point x="322" y="-86" type="curve" smooth="yes"/>
      <point x="209" y="-86"/>
      <point x="124" y="11"/>
    </contour>
  </outline>
</glyph>
<glyph name="Ma.alt" format="2">
  <advance width="587"/>
  <outline>
    <contour>
      <point x="98" y="153" type="curve"/>
      <point x="176" y="142" type="line"/>
      <point x="248" y="261"/>
      <point x="348" y="263"/>
      <point x="427" y="287" type="curve"/>
      <point x="427" y="0" type="line"/>
      <point x="507" y="0" type="line"/>
      <point x="507" y="551" type="line"/>
      <point x="597" y="551" type="line"/>
      <point x="597" y="622" type="line"/>
      <point x="0" y="622" type="line"/>
      <point x="0" y="551" type="line"/>
      <point x="79" y="551" type="line"/>
      <point x="103" y="464"/>
      <point x="118" y="361"/>
      <point x="118" y="275" type="curve" smooth="yes"/>
      <point x="118" y="237"/>
      <point x="111" y="183"/>
    </contour>
    <contour>
      <point x="198" y="275" type="curve"/>
      <point x="198" y="358"/>
      <point x="182" y="451"/>
      <point x="162" y="551" type="curve"/>
      <point x="427" y="551" type="line"/>
      <point x="427" y="372" type="line"/>
      <point x="360" y="339"/>
      <point x="267" y="333"/>
    </contour>
  </outline>
</glyph>
<glyph name="Ma.half" format="2">
  <advance width="350"/>
  <outline>
    <contour>
      <point x="450" y="228" type="curve"/>
      <point x="450" y="298" type="line"/>
      <point x="350" y="298"/>
      <point x="255" y="260"/>
      <point x="184" y="193" type="curve"/>
      <point x="188" y="222"/>
      <point x="191" y="251"/>
      <point x="191" y="275" type="curve" smooth="yes"/>
      <point x="191" y="358"/>
      <point x="181" y="451"/>
      <point x="162" y="551" type="curve"/>
      <point x="360" y="551" type="line"/>
      <point x="360" y="622" type="line"/>
      <point x="0" y="622" type="line"/>
      <point x="0" y="551" type="line"/>
      <point x="79" y="551" type="line"/>
      <point x="101" y="464"/>
      <point x="111" y="362"/>
      <point x="111" y="284" type="curve" smooth="yes"/>
      <point x="111" y="190"/>
      <point x="100" y="107"/>
      <point x="84" y="46" type="curve"/>
      <point x="78" y="31"/>
      <point x="73" y="16"/>
      <point x="69" y="0" type="curve"/>
      <point x="146" y="0" type="line"/>
      <point x="180" y="144"/>
      <point x="327" y="228"/>
    </contour>
  </outline>
</glyph>
<glyph name="Maa" format="2">
  <advance width="646"/>
  <outline>
    <contour>
      <point x="44" y="382" type="curve"/>
      <point x="3" y="326" type="line"/>
      <point x="70" y="287"/>
      <point x="103" y="228"/>
      <point x="103" y="169" type="curve" smooth="yes"/>
      <point x="103" y="129"/>
      <point x="92" y="82"/>
      <point x="83" y="44" type="curve"/>
      <point x="78" y="30"/>
      <point x="73" y="15"/>
      <point x="69" y="0" type="curve"/>
      <point x="146" y="0" type="line"/>
      <point x="179" y="141"/>
      <point x="282" y="176"/>
      <point x="402" y="178" type="curve"/>
      <point x="405" y="56"/>
      <point x="447" y="-10"/>
      <point x="524" y="-10" type="curve" smooth="yes"/>
      <point x="609" y="-10"/>
      <point x="626" y="58"/>
      <point x="626" y="85" type="curve" smooth="yes"/>
      <point x="626" y="143"/>
      <point x="578" y="214"/>
      <point x="483" y="239" type="curve"/>
      <point x="487" y="314"/>
      <point x="502" y="422"/>
      <point x="547" y="551" type="curve"/>
      <point x="656" y="551" type="line"/>
      <point x="656" y="622" type="line"/>
      <point x="0" y="622" type="line"/>
      <point x="0" y="551" type="line"/>
      <point x="41" y="551" type="line"/>
      <point x="55" y="484" type="line"/>
      <point x="70" y="489"/>
      <point x="99" y="495"/>
      <point x="114" y="495" type="curve" smooth="yes"/>
      <point x="161" y="495"/>
      <point x="192" y="471"/>
      <point x="192" y="426" type="curve" smooth="yes"/>
      <point x="192" y="380"/>
      <point x="159" y="355"/>
      <point x="114" y="355" type="curve" smooth="yes"/>
      <point x="87" y="355"/>
      <point x="64" y="365"/>
    </contour>
    <contour>
      <point x="404" y="248" type="curve"/>
      <point x="311" y="247"/>
      <point x="233" y="227"/>
      <point x="175" y="178" type="curve"/>
      <point x="175" y="217"/>
      <point x="167" y="253"/>
      <point x="147" y="283" type="curve"/>
      <point x="215" y="294"/>
      <point x="273" y="339"/>
      <point x="273" y="428" type="curve" smooth="yes"/>
      <point x="273" y="484"/>
      <point x="244" y="528"/>
      <point x="197" y="551" type="curve"/>
      <point x="465" y="551" type="line"/>
      <point x="434" y="455"/>
      <point x="412" y="335"/>
    </contour>
    <contour>
      <point x="551" y="89" type="curve" smooth="yes"/>
      <point x="551" y="81"/>
      <point x="543" y="60"/>
      <point x="525" y="60" type="curve" smooth="yes"/>
      <point x="504" y="60"/>
      <point x="484" y="81"/>
      <point x="482" y="167" type="curve"/>
      <point x="533" y="149"/>
      <point x="551" y="112"/>
    </contour>
  </outline>
</glyph>
<glyph name="Muu" format="2">
  <advance width="815"/>
  <outline>
    <contour>
      <point x="398" y="551" type="curve"/>
      <point x="640" y="551" type="line"/>
      <point x="648" y="533"/>
      <point x="655" y="513"/>
      <point x="660" y="493" type="curve"/>
      <point x="580" y="407"/>
      <point x="534" y="294"/>
      <point x="534" y="189" type="curve" smooth="yes"/>
      <point x="534" y="96"/>
      <point x="568" y="40"/>
      <point x="629" y="40" type="curve" smooth="yes"/>
      <point x="740" y="40"/>
      <point x="755" y="187"/>
      <point x="755" y="342" type="curve" smooth="yes"/>
      <point x="755" y="415"/>
      <point x="743" y="487"/>
      <point x="719" y="551" type="curve"/>
      <point x="825" y="551" type="line"/>
      <point x="825" y="622" type="line"/>
      <point x="686" y="622" type="line"/>
      <point x="627" y="728"/>
      <point x="533" y="800"/>
      <point x="413" y="800" type="curve" smooth="yes"/>
      <point x="273" y="800"/>
      <point x="182" y="726"/>
      <point x="127" y="622" type="curve"/>
      <point x="0" y="622" type="line"/>
      <point x="0" y="551" type="line"/>
      <point x="97" y="551" type="line"/>
      <point x="71" y="476"/>
      <point x="60" y="392"/>
      <point x="60" y="311" type="curve" smooth="yes"/>
      <point x="60" y="96"/>
      <point x="138" y="-90"/>
      <point x="308" y="-90" type="curve" smooth="yes"/>
      <point x="420" y="-90"/>
      <point x="461" y="-23"/>
      <point x="461" y="42" type="curve" smooth="yes"/>
      <point x="461" y="69"/>
      <point x="444" y="109"/>
      <point x="409" y="131" type="curve"/>
      <point x="441" y="155"/>
      <point x="457" y="188"/>
      <point x="457" y="221" type="curve" smooth="yes"/>
      <point x="457" y="251"/>
      <point x="440" y="288"/>
      <point x="404" y="312" type="curve"/>
      <point x="444" y="337"/>
      <point x="470" y="376"/>
      <point x="470" y="428" type="curve" smooth="yes"/>
      <point x="470" y="484"/>
      <point x="441" y="528"/>
    </contour>
    <contour>
      <point x="175" y="551" type="curve"/>
      <point x="238" y="551" type="line"/>
      <point x="252" y="490" type="line"/>
      <point x="267" y="495"/>
      <point x="296" y="499"/>
      <point x="311" y="499" type="curve" smooth="yes"/>
      <point x="358" y="499"/>
      <point x="389" y="475"/>
      <point x="389" y="430" type="curve" smooth="yes"/>
      <point x="389" y="371"/>
      <point x="337" y="347"/>
      <point x="275" y="347" type="curve"/>
      <point x="275" y="277" type="line"/>
      <point x="282" y="278"/>
      <point x="289" y="278"/>
      <point x="295" y="278" type="curve" smooth="yes"/>
      <point x="371" y="272"/>
      <point x="376" y="232"/>
      <point x="376" y="219" type="curve" smooth="yes"/>
      <point x="376" y="189"/>
      <point x="350" y="163"/>
      <point x="275" y="163" type="curve"/>
      <point x="275" y="95" type="line"/>
      <point x="283" y="96"/>
      <point x="288" y="96"/>
      <point x="296" y="96" type="curve" smooth="yes"/>
      <point x="335" y="96"/>
      <point x="380" y="77"/>
      <point x="380" y="37" type="curve" smooth="yes"/>
      <point x="380" y="0"/>
      <point x="352" y="-23"/>
      <point x="306" y="-23" type="curve" smooth="yes"/>
      <point x="222" y="-23"/>
      <point x="138" y="87"/>
      <point x="138" y="315" type="curve" smooth="yes"/>
      <point x="138" y="413"/>
      <point x="151" y="491"/>
    </contour>
    <contour>
      <point x="411" y="726" type="curve" smooth="yes"/>
      <point x="484" y="726"/>
      <point x="552" y="689"/>
      <point x="601" y="622" type="curve"/>
      <point x="212" y="622" type="line"/>
      <point x="264" y="696"/>
      <point x="336" y="726"/>
    </contour>
    <contour>
      <point x="676" y="401" type="curve"/>
      <point x="678" y="382"/>
      <point x="679" y="363"/>
      <point x="679" y="343" type="curve" smooth="yes"/>
      <point x="679" y="222"/>
      <point x="660" y="110"/>
      <point x="637" y="110" type="curve" smooth="yes"/>
      <point x="625" y="110"/>
      <point x="612" y="125"/>
      <point x="612" y="184" type="curve" smooth="yes"/>
      <point x="612" y="239"/>
      <point x="622" y="323"/>
    </contour>
  </outline>
</glyph>
<glyph name="Nu" format="2">
  <advance width="686"/>
  <outline>
    <contour>
      <point x="9" y="92" type="curve"/>
      <point x="-50" y="55" type="line"/>
      <point x="1" y="-34"/>
      <point x="91" y="-140"/>
      <point x="200" y="-140" type="curve" smooth="yes"/>
      <point x="320" y="-140"/>
      <point x="380" y="-63"/>
      <point x="380" y="31" type="curve" smooth="yes"/>
      <point x="380" y="78"/>
      <point x="358" y="124"/>
      <point x="312" y="156" type="curve"/>
      <point x="342" y="167"/>
      <point x="380" y="177"/>
      <point x="442" y="178" type="curve"/>
      <point x="445" y="56"/>
      <point x="487" y="-10"/>
      <point x="564" y="-10" type="curve" smooth="yes"/>
      <point x="649" y="-10"/>
      <point x="666" y="58"/>
      <point x="666" y="85" type="curve" smooth="yes"/>
      <point x="666" y="143"/>
      <point x="618" y="214"/>
      <point x="523" y="239" type="curve"/>
      <point x="527" y="314"/>
      <point x="542" y="422"/>
      <point x="587" y="551" type="curve"/>
      <point x="696" y="551" type="line"/>
      <point x="696" y="622" type="line"/>
      <point x="0" y="622" type="line"/>
      <point x="0" y="551" type="line"/>
      <point x="505" y="551" type="line"/>
      <point x="474" y="455"/>
      <point x="452" y="335"/>
      <point x="444" y="248" type="curve"/>
      <point x="381" y="247"/>
      <point x="333" y="237"/>
      <point x="291" y="221" type="curve"/>
      <point x="313" y="260"/>
      <point x="321" y="301"/>
      <point x="321" y="340" type="curve" smooth="yes"/>
      <point x="321" y="437"/>
      <point x="256" y="520"/>
      <point x="149" y="520" type="curve" smooth="yes"/>
      <point x="70" y="520"/>
      <point x="35" y="488"/>
      <point x="35" y="457" type="curve" smooth="yes"/>
      <point x="35" y="426"/>
      <point x="64" y="392"/>
      <point x="136" y="392" type="curve" smooth="yes"/>
      <point x="161" y="392"/>
      <point x="202" y="397"/>
      <point x="222" y="407" type="curve"/>
      <point x="235" y="386"/>
      <point x="241" y="359"/>
      <point x="241" y="332" type="curve" smooth="yes"/>
      <point x="241" y="279"/>
      <point x="218" y="226"/>
      <point x="179" y="198" type="curve"/>
      <point x="169" y="133" type="line"/>
      <point x="275" y="126"/>
      <point x="300" y="90"/>
      <point x="300" y="33" type="curve" smooth="yes"/>
      <point x="300" y="-24"/>
      <point x="268" y="-66"/>
      <point x="202" y="-66" type="curve" smooth="yes"/>
      <point x="126" y="-66"/>
      <point x="59" y="9"/>
    </contour>
    <contour>
      <point x="591" y="89" type="curve" smooth="yes"/>
      <point x="591" y="81"/>
      <point x="583" y="60"/>
      <point x="565" y="60" type="curve" smooth="yes"/>
      <point x="544" y="60"/>
      <point x="524" y="81"/>
      <point x="522" y="167" type="curve"/>
      <point x="573" y="149"/>
      <point x="591" y="112"/>
    </contour>
  </outline>
</glyph>
<glyph name="Nya.alt" format="2">
  <advance width="611"/>
  <outline>
    <contour>
      <point x="76" y="216" type="curve"/>
      <point x="20" y="176" type="line"/>
      <point x="65" y="96"/>
      <point x="124" y="40"/>
      <point x="218" y="40" type="curve" smooth="yes"/>
      <point x="280" y="40"/>
      <point x="351" y="69"/>
      <point x="383" y="136" type="curve"/>
      <point x="393" y="137"/>
      <point x="404" y="137"/>
      <point x="415" y="137" type="curve" smooth="yes"/>
      <point x="426" y="137"/>
      <point x="437" y="136"/>
      <point x="447" y="134" type="curve"/>
      <point x="428" y="100"/>
      <point x="417" y="63"/>
      <point x="417" y="23" type="curve" smooth="yes"/>
      <point x="417" y="-53"/>
      <point x="449" y="-110"/>
      <point x="529" y="-110" type="curve" smooth="yes"/>
      <point x="614" y="-110"/>
      <point x="631" y="-22"/>
      <point x="631" y="5" type="curve" smooth="yes"/>
      <point x="631" y="59"/>
      <point x="607" y="118"/>
      <point x="559" y="158" type="curve"/>
      <point x="584" y="180"/>
      <point x="615" y="198"/>
      <point x="651" y="211" type="curve"/>
      <point x="634" y="284" type="line"/>
      <point x="579" y="262"/>
      <point x="530" y="232"/>
      <point x="493" y="195" type="curve"/>
      <point x="471" y="202"/>
      <point x="445" y="207"/>
      <point x="417" y="207" type="curve" smooth="yes"/>
      <point x="400" y="207" type="line"/>
      <point x="400" y="216" type="line" smooth="yes"/>
      <point x="400" y="315"/>
      <point x="325" y="377"/>
      <point x="231" y="377" type="curve" smooth="yes"/>
      <point x="185" y="377"/>
      <point x="150" y="367"/>
      <point x="122" y="359" type="curve"/>
      <point x="141" y="293" type="line"/>
      <point x="161" y="299"/>
      <point x="200" y="307"/>
      <point x="229" y="307" type="curve" smooth="yes"/>
      <point x="283" y="307"/>
      <point x="320" y="274"/>
      <point x="320" y="213" type="curve" smooth="yes"/>
      <point x="320" y="151"/>
      <point x="280" y="110"/>
      <point x="220" y="110" type="curve" smooth="yes"/>
      <point x="158" y="110"/>
      <point x="110" y="156"/>
    </contour>
    <contour>
      <point x="0" y="622" type="line"/>
      <point x="0" y="551" type="line"/>
      <point x="621" y="551" type="line"/>
      <point x="621" y="622" type="line"/>
    </contour>
    <contour>
      <point x="556" y="9" type="curve" smooth="yes"/>
      <point x="556" y="-16"/>
      <point x="546" y="-40"/>
      <point x="528" y="-40" type="curve" smooth="yes"/>
      <point x="504" y="-40"/>
      <point x="493" y="-11"/>
      <point x="493" y="28" type="curve" smooth="yes"/>
      <point x="493" y="54"/>
      <point x="500" y="80"/>
      <point x="514" y="104" type="curve"/>
      <point x="545" y="77"/>
      <point x="556" y="39"/>
    </contour>
  </outline>
</glyph>
<glyph name="Nyaa" format="2">
  <advance width="898"/>
  <outline>
    <contour>
      <point x="76" y="206" type="curve"/>
      <point x="20" y="166" type="line"/>
      <point x="65" y="86"/>
      <point x="124" y="30"/>
      <point x="218" y="30" type="curve" smooth="yes"/>
      <point x="293" y="30"/>
      <point x="382" y="73"/>
      <point x="397" y="174" type="curve"/>
      <point x="408" y="174" type="line" smooth="yes"/>
      <point x="448" y="174"/>
      <point x="468" y="142"/>
      <point x="468" y="102" type="curve" smooth="yes"/>
      <point x="468" y="0" type="line"/>
      <point x="548" y="0" type="line"/>
      <point x="548" y="10" type="line" smooth="yes"/>
      <point x="550" y="99"/>
      <point x="590" y="157"/>
      <point x="656" y="171" type="curve"/>
      <point x="661" y="54"/>
      <point x="702" y="-10"/>
      <point x="778" y="-10" type="curve" smooth="yes"/>
      <point x="863" y="-10"/>
      <point x="880" y="58"/>
      <point x="880" y="85" type="curve" smooth="yes"/>
      <point x="880" y="147"/>
      <point x="836" y="225"/>
      <point x="738" y="244" type="curve"/>
      <point x="742" y="319"/>
      <point x="757" y="425"/>
      <point x="801" y="551" type="curve"/>
      <point x="908" y="551" type="line"/>
      <point x="908" y="622" type="line"/>
      <point x="0" y="622" type="line"/>
      <point x="0" y="551" type="line"/>
      <point x="719" y="551" type="line"/>
      <point x="687" y="454"/>
      <point x="665" y="333"/>
      <point x="658" y="246" type="curve"/>
      <point x="603" y="239"/>
      <point x="563" y="214"/>
      <point x="534" y="179" type="curve"/>
      <point x="513" y="222"/>
      <point x="470" y="248"/>
      <point x="417" y="248" type="curve" smooth="yes"/>
      <point x="409" y="248"/>
      <point x="402" y="248"/>
      <point x="395" y="247" type="curve"/>
      <point x="377" y="322"/>
      <point x="311" y="367"/>
      <point x="231" y="367" type="curve" smooth="yes"/>
      <point x="185" y="367"/>
      <point x="150" y="357"/>
      <point x="122" y="349" type="curve"/>
      <point x="141" y="283" type="line"/>
      <point x="161" y="289"/>
      <point x="200" y="297"/>
      <point x="229" y="297" type="curve" smooth="yes"/>
      <point x="283" y="297"/>
      <point x="320" y="264"/>
      <point x="320" y="203" type="curve" smooth="yes"/>
      <point x="320" y="141"/>
      <point x="280" y="100"/>
      <point x="220" y="100" type="curve" smooth="yes"/>
      <point x="158" y="100"/>
      <point x="110" y="146"/>
    </contour>
    <contour>
      <point x="805" y="89" type="curve" smooth="yes"/>
      <point x="805" y="81"/>
      <point x="797" y="60"/>
      <point x="779" y="60" type="curve" smooth="yes"/>
      <point x="758" y="60"/>
      <point x="738" y="81"/>
      <point x="736" y="168" type="curve"/>
      <point x="790" y="153"/>
      <point x="805" y="114"/>
    </contour>
  </outline>
</glyph>
<glyph name="Pa.half" format="2">
  <advance width="370"/>
  <outline>
    <contour>
      <point x="0" y="622" type="line"/>
      <point x="0" y="551" type="line"/>
      <point x="80" y="551" type="line"/>
      <point x="80" y="358" type="line" smooth="yes"/>
      <point x="80" y="236"/>
      <point x="126" y="146"/>
      <point x="255" y="146" type="curve" smooth="yes"/>
      <point x="307" y="146"/>
      <point x="407" y="160"/>
      <point x="490" y="248" type="curve"/>
      <point x="442" y="307" type="line"/>
      <point x="390" y="231"/>
      <point x="296" y="217"/>
      <point x="263" y="217" type="curve" smooth="yes"/>
      <point x="163" y="217"/>
      <point x="160" y="292"/>
      <point x="160" y="355" type="curve" smooth="yes"/>
      <point x="160" y="551" type="line"/>
      <point x="380" y="551" type="line"/>
      <point x="380" y="622" type="line"/>
    </contour>
  </outline>
</glyph>
<glyph name="RKa" format="2">
  <advance width="1055"/>
  <outline>
    <contour>
      <point x="428" y="7" type="curve"/>
      <point x="402" y="77" type="line"/>
      <point x="382" y="68"/>
      <point x="359" y="64"/>
      <point x="335" y="64" type="curve" smooth="yes"/>
      <point x="238" y="64"/>
      <point x="198" y="125"/>
      <point x="198" y="173" type="curve" smooth="yes"/>
      <point x="198" y="247"/>
      <point x="224" y="288"/>
      <point x="302" y="331" type="curve"/>
      <point x="272" y="390" type="line"/>
      <point x="238" y="376"/>
      <point x="216" y="372"/>
      <point x="197" y="372" type="curve" smooth="yes"/>
      <point x="147" y="372"/>
      <point x="120" y="402"/>
      <point x="120" y="448" type="curve" smooth="yes"/>
      <point x="120" y="477"/>
      <point x="126" y="513"/>
      <point x="153" y="551" type="curve"/>
      <point x="410" y="551" type="line"/>
      <point x="410" y="622" type="line"/>
      <point x="0" y="622" type="line"/>
      <point x="0" y="551" type="line"/>
      <point x="67" y="551" type="line"/>
      <point x="50" y="519"/>
      <point x="40" y="482"/>
      <point x="40" y="446" type="curve" smooth="yes"/>
      <point x="40" y="379"/>
      <point x="81" y="315"/>
      <point x="160" y="303" type="curve"/>
      <point x="129" y="264"/>
      <point x="118" y="224"/>
      <point x="118" y="165" type="curve" smooth="yes"/>
      <point x="118" y="75"/>
      <point x="195" y="-10"/>
      <point x="331" y="-10" type="curve" smooth="yes"/>
      <point x="368" y="-10"/>
      <point x="400" y="-4"/>
    </contour>
    <contour>
      <point x="400" y="622" type="line"/>
      <point x="400" y="551" type="line"/>
      <point x="501" y="551" type="line"/>
      <point x="457" y="493"/>
      <point x="440" y="452"/>
      <point x="440" y="395" type="curve" smooth="yes"/>
      <point x="440" y="288"/>
      <point x="510" y="223"/>
      <point x="510" y="131" type="curve" smooth="yes"/>
      <point x="510" y="101"/>
      <point x="503" y="56"/>
      <point x="493" y="16" type="curve"/>
      <point x="491" y="11"/>
      <point x="489" y="5"/>
      <point x="488" y="0" type="curve"/>
      <point x="565" y="0" type="line"/>
      <point x="598" y="141"/>
      <point x="692" y="176"/>
      <point x="811" y="178" type="curve"/>
      <point x="814" y="56"/>
      <point x="856" y="-10"/>
      <point x="933" y="-10" type="curve" smooth="yes"/>
      <point x="1018" y="-10"/>
      <point x="1035" y="58"/>
      <point x="1035" y="85" type="curve" smooth="yes"/>
      <point x="1035" y="143"/>
      <point x="987" y="214"/>
      <point x="892" y="239" type="curve"/>
      <point x="896" y="314"/>
      <point x="911" y="422"/>
      <point x="956" y="551" type="curve"/>
      <point x="1065" y="551" type="line"/>
      <point x="1065" y="622" type="line"/>
    </contour>
    <contour>
      <point x="813" y="248" type="curve"/>
      <point x="718" y="247"/>
      <point x="642" y="226"/>
      <point x="586" y="175" type="curve"/>
      <point x="571" y="257"/>
      <point x="520" y="318"/>
      <point x="520" y="402" type="curve" smooth="yes"/>
      <point x="520" y="444"/>
      <point x="533" y="487"/>
      <point x="599" y="551" type="curve"/>
      <point x="874" y="551" type="line"/>
      <point x="843" y="455"/>
      <point x="821" y="335"/>
    </contour>
    <contour>
      <point x="960" y="89" type="curve" smooth="yes"/>
      <point x="960" y="81"/>
      <point x="952" y="60"/>
      <point x="934" y="60" type="curve" smooth="yes"/>
      <point x="913" y="60"/>
      <point x="893" y="81"/>
      <point x="891" y="167" type="curve"/>
      <point x="942" y="149"/>
      <point x="960" y="112"/>
    </contour>
  </outline>
</glyph>
<glyph name="Ra.alt" format="2">
  <advance width="517"/>
  <outline>
    <contour>
      <point x="437" y="0" type="line"/>
      <point x="437" y="551" type="line"/>
      <point x="527" y="551" type="line"/>
      <point x="527" y="622" type="line"/>
      <point x="0" y="622" type="line"/>
      <point x="0" y="551" type="line"/>
      <point x="357" y="551" type="line"/>
      <point x="357" y="426" type="line"/>
      <point x="336" y="365"/>
      <point x="282" y="284"/>
      <point x="159" y="284" type="curve" smooth="yes"/>
      <point x="128" y="284"/>
      <point x="92" y="289"/>
      <point x="63" y="297" type="curve"/>
      <point x="40" y="227" type="line"/>
      <point x="79" y="216"/>
      <point x="128" y="210"/>
      <point x="164" y="210" type="curve" smooth="yes"/>
      <point x="232" y="210"/>
      <point x="300" y="221"/>
      <point x="357" y="286" type="curve"/>
      <point x="357" y="0" type="line"/>
    </contour>
  </outline>
</glyph>
<glyph name="Ra.alt2" format="2">
  <advance width="338"/>
  <outline>
    <contour>
      <point x="-9" y="114" type="curve"/>
      <point x="25" y="46" type="line"/>
      <point x="35" y="50"/>
      <point x="45" y="52"/>
      <point x="54" y="52" type="curve" smooth="yes"/>
      <point x="154" y="52"/>
      <point x="154" y="-210"/>
      <point x="330" y="-210" type="curve" smooth="yes"/>
      <point x="374" y="-210"/>
      <point x="431" y="-207"/>
      <point x="516" y="-120" type="curve"/>
      <point x="475" y="-70" type="line"/>
      <point x="400" y="-132"/>
      <point x="370" y="-139"/>
      <point x="331" y="-139" type="curve" smooth="yes"/>
      <point x="230" y="-139"/>
      <point x="218" y="62"/>
      <point x="120" y="110" type="curve"/>
      <point x="150" y="145"/>
      <point x="163" y="188"/>
      <point x="163" y="235" type="curve" smooth="yes"/>
      <point x="163" y="315"/>
      <point x="108" y="389"/>
      <point x="1" y="389" type="curve" smooth="yes"/>
      <point x="-64" y="389"/>
      <point x="-114" y="352"/>
      <point x="-130" y="338" type="curve"/>
      <point x="-93" y="282" type="line"/>
      <point x="-65" y="305"/>
      <point x="-28" y="318"/>
      <point x="-3" y="318" type="curve" smooth="yes"/>
      <point x="57" y="318"/>
      <point x="82" y="277"/>
      <point x="82" y="232" type="curve" smooth="yes"/>
      <point x="82" y="179"/>
      <point x="56" y="134"/>
    </contour>
    <contour>
      <point x="0" y="622" type="line"/>
      <point x="0" y="551" type="line"/>
      <point x="348" y="551" type="line"/>
      <point x="348" y="622" type="line"/>
    </contour>
  </outline>
</glyph>
<glyph name="Ra.alt4" format="2">
  <advance width="420"/>
  <outline>
    <contour>
      <point x="0" y="622" type="line"/>
      <point x="0" y="551" type="line"/>
      <point x="161" y="551" type="line"/>
      <point x="203" y="519"/>
      <point x="226" y="479"/>
      <point x="226" y="424" type="curve" smooth="yes"/>
      <point x="226" y="315"/>
      <point x="142" y="273"/>
      <point x="53" y="273" type="curve"/>
      <point x="41" y="232"/>
      <point x="30" y="184"/>
      <point x="30" y="138" type="curve" smooth="yes"/>
      <point x="30" y="-42"/>
      <point x="120" y="-210"/>
      <point x="370" y="-210" type="curve" smooth="yes"/>
      <point x="389" y="-210"/>
      <point x="407" y="-208"/>
      <point x="430" y="-205" type="curve"/>
      <point x="430" y="-132" type="line"/>
      <point x="410" y="-134"/>
      <point x="390" y="-136"/>
      <point x="372" y="-136" type="curve" smooth="yes"/>
      <point x="183" y="-136"/>
      <point x="111" y="-15"/>
      <point x="111" y="133" type="curve" smooth="yes"/>
      <point x="111" y="158"/>
      <point x="114" y="182"/>
      <point x="120" y="206" type="curve"/>
      <point x="222" y="232"/>
      <point x="306" y="272"/>
      <point x="306" y="424" type="curve" smooth="yes"/>
      <point x="306" y="466"/>
      <point x="290" y="515"/>
      <point x="263" y="551" type="curve"/>
      <point x="430" y="551" type="line"/>
      <point x="430" y="622" type="line"/>
    </contour>
  </outline>
</glyph>
<glyph name="Ra.alt5" format="2">
  <outline>
    <contour>
      <point x="356" y="-120" type="curve"/>
      <point x="315" y="-70" type="line"/>
      <point x="240" y="-132"/>
      <point x="209" y="-139"/>
      <point x="170" y="-139" type="curve" smooth="yes"/>
      <point x="59" y="-139"/>
      <point x="55" y="72"/>
      <point x="-85" y="72" type="curve" smooth="yes"/>
      <point x="-125" y="72" type="line"/>
      <point x="-125" y="0" type="line"/>
      <point x="-93" y="0" type="line" smooth="yes"/>
      <point x="-1" y="0"/>
      <point x="2" y="-210"/>
      <point x="170" y="-210" type="curve" smooth="yes"/>
      <point x="214" y="-210"/>
      <point x="271" y="-207"/>
    </contour>
  </outline>
</glyph>
<glyph name="Ra.alt6" format="2">
  <advance width="200"/>
  <outline>
    <contour>
      <point x="356" y="-120" type="curve"/>
      <point x="315" y="-70" type="line"/>
      <point x="240" y="-132"/>
      <point x="209" y="-139"/>
      <point x="170" y="-139" type="curve" smooth="yes"/>
      <point x="59" y="-139"/>
      <point x="55" y="72"/>
      <point x="-85" y="72" type="curve" smooth="yes"/>
      <point x="-125" y="72" type="line"/>
      <point x="-125" y="0" type="line"/>
      <point x="-93" y="0" type="line" smooth="yes"/>
      <point x="-1" y="0"/>
      <point x="2" y="-210"/>
      <point x="170" y="-210" type="curve" smooth="yes"/>
      <point x="214" y="-210"/>
      <point x="271" y="-207"/>
    </contour>
    <contour>
      <point x="-110" y="622" type="line"/>
      <point x="-110" y="551" type="line"/>
      <point x="210" y="551" type="line"/>
      <point x="210" y="622" type="line"/>
    </contour>
  </outline>
</glyph>
<glyph name="Rakar.alt" format="2">
  <outline>
    <contour>
      <point x="-166" y="-268" type="line"/>
      <point x="-9" y="-93" type="line"/>
      <point x="-41" y="-40" type="line"/>
      <point x="-227" y="-223" type="line"/>
    </contour>
  </outline>
</glyph>
<glyph name="Rakar" format="2">
  <outline>
    <contour>
      <point x="-276" y="-268" type="line"/>
      <point x="-9" y="-93" type="line"/>
      <point x="-41" y="-40" type="line"/>
      <point x="-317" y="-201" type="line"/>
    </contour>
  </outline>
</glyph>
<glyph name="Sa.alt" format="2">
  <advance width="373"/>
  <outline>
    <contour>
      <point x="0" y="622" type="line"/>
      <point x="0" y="551" type="line"/>
      <point x="92" y="551" type="line"/>
      <point x="123" y="508"/>
      <point x="141" y="459"/>
      <point x="141" y="412" type="curve" smooth="yes"/>
      <point x="141" y="354"/>
      <point x="93" y="309"/>
      <point x="20" y="267" type="curve"/>
      <point x="29" y="81"/>
      <point x="134" y="-10"/>
      <point x="267" y="-10" type="curve" smooth="yes"/>
      <point x="345" y="-10"/>
      <point x="428" y="22"/>
      <point x="488" y="115" type="curve"/>
      <point x="431" y="160" type="line"/>
      <point x="391" y="108"/>
      <point x="342" y="64"/>
      <point x="268" y="64" type="curve" smooth="yes"/>
      <point x="172" y="64"/>
      <point x="110" y="130"/>
      <point x="105" y="242" type="curve"/>
      <point x="145" y="260"/>
      <point x="222" y="329"/>
      <point x="222" y="415" type="curve" smooth="yes"/>
      <point x="222" y="458"/>
      <point x="209" y="506"/>
      <point x="180" y="551" type="curve"/>
      <point x="383" y="551" type="line"/>
      <point x="383" y="622" type="line"/>
    </contour>
  </outline>
</glyph>
<glyph name="Saa" format="2">
  <advance width="777"/>
  <outline>
    <contour>
      <point x="0" y="622" type="line"/>
      <point x="0" y="551" type="line"/>
      <point x="93" y="551" type="line"/>
      <point x="101" y="532"/>
      <point x="104" y="503"/>
      <point x="104" y="469" type="curve" smooth="yes"/>
      <point x="104" y="373"/>
      <point x="60" y="314"/>
      <point x="60" y="183" type="curve" smooth="yes"/>
      <point x="60" y="54"/>
      <point x="130" y="-9"/>
      <point x="232" y="-9" type="curve" smooth="yes"/>
      <point x="390" y="-9"/>
      <point x="428" y="94"/>
      <point x="438" y="248" type="curve" smooth="yes"/>
      <point x="439" y="266" type="line"/>
      <point x="546" y="266" type="line"/>
      <point x="546" y="337" type="line"/>
      <point x="443" y="337" type="line"/>
      <point x="448" y="401" type="line" smooth="yes"/>
      <point x="453" y="468"/>
      <point x="495" y="502"/>
      <point x="543" y="502" type="curve" smooth="yes"/>
      <point x="618" y="502"/>
      <point x="636" y="417"/>
      <point x="636" y="317" type="curve" smooth="yes"/>
      <point x="636" y="192"/>
      <point x="614" y="62"/>
      <point x="604" y="15" type="curve"/>
      <point x="683" y="-8" type="line"/>
      <point x="693" y="37"/>
      <point x="717" y="184"/>
      <point x="717" y="309" type="curve" smooth="yes"/>
      <point x="717" y="428"/>
      <point x="700" y="512"/>
      <point x="641" y="551" type="curve"/>
      <point x="787" y="551" type="line"/>
      <point x="787" y="622" type="line"/>
    </contour>
    <contour>
      <point x="263" y="337" type="line"/>
      <point x="263" y="266" type="line"/>
      <point x="358" y="266" type="line"/>
      <point x="357" y="251" type="line" smooth="yes"/>
      <point x="349" y="130"/>
      <point x="327" y="65"/>
      <point x="233" y="65" type="curve" smooth="yes"/>
      <point x="168" y="65"/>
      <point x="141" y="115"/>
      <point x="141" y="192" type="curve" smooth="yes"/>
      <point x="141" y="292"/>
      <point x="183" y="396"/>
      <point x="183" y="467" type="curve" smooth="yes"/>
      <point x="183" y="500"/>
      <point x="180" y="528"/>
      <point x="175" y="551" type="curve"/>
      <point x="445" y="551" type="line"/>
      <point x="396" y="519"/>
      <point x="371" y="461"/>
      <point x="367" y="397" type="curve" smooth="yes"/>
      <point x="363" y="337" type="line"/>
    </contour>
  </outline>
</glyph>
<glyph name="Sha.half" format="2">
  <advance width="340"/>
  <outline>
    <contour>
      <point x="0" y="622" type="line"/>
      <point x="0" y="551" type="line"/>
      <point x="124" y="551" type="line"/>
      <point x="124" y="482" type="line"/>
      <point x="97" y="477"/>
      <point x="69" y="466"/>
      <point x="38" y="448" type="curve"/>
      <point x="66" y="382" type="line"/>
      <point x="100" y="402"/>
      <point x="130" y="411"/>
      <point x="153" y="411" type="curve" smooth="yes"/>
      <point x="189" y="411"/>
      <point x="210" y="390"/>
      <point x="210" y="369" type="curve" smooth="yes"/>
      <point x="210" y="285"/>
      <point x="50" y="244"/>
      <point x="50" y="119" type="curve" smooth="yes"/>
      <point x="50" y="22"/>
      <point x="128" y="-10"/>
      <point x="210" y="-10" type="curve" smooth="yes"/>
      <point x="260" y="-10"/>
      <point x="311" y="2"/>
      <point x="347" y="19" type="curve"/>
      <point x="328" y="88" type="line"/>
      <point x="305" y="76"/>
      <point x="255" y="62"/>
      <point x="212" y="62" type="curve" smooth="yes"/>
      <point x="168" y="62"/>
      <point x="130" y="76"/>
      <point x="130" y="121" type="curve" smooth="yes"/>
      <point x="130" y="211"/>
      <point x="290" y="243"/>
      <point x="290" y="369" type="curve" smooth="yes"/>
      <point x="290" y="420"/>
      <point x="259" y="463"/>
      <point x="204" y="478" type="curve"/>
      <point x="204" y="551" type="line"/>
      <point x="350" y="551" type="line"/>
      <point x="350" y="622" type="line"/>
    </contour>
  </outline>
</glyph>
<glyph name="SsDdha" format="2">
  <advance width="824"/>
  <outline>
    <contour>
      <point x="541" y="-10" type="curve" smooth="yes"/>
      <point x="685" y="-10"/>
      <point x="784" y="68"/>
      <point x="784" y="179" type="curve" smooth="yes"/>
      <point x="784" y="250"/>
      <point x="731" y="318"/>
      <point x="641" y="318" type="curve" smooth="yes"/>
      <point x="558" y="318"/>
      <point x="501" y="256"/>
      <point x="501" y="179" type="curve" smooth="yes"/>
      <point x="501" y="131"/>
      <point x="526" y="89"/>
      <point x="566" y="65" type="curve"/>
      <point x="558" y="64"/>
      <point x="549" y="64"/>
      <point x="541" y="64" type="curve" smooth="yes"/>
      <point x="430" y="64"/>
      <point x="390" y="135"/>
      <point x="390" y="194" type="curve" smooth="yes"/>
      <point x="390" y="332"/>
      <point x="620" y="377"/>
      <point x="635" y="551" type="curve"/>
      <point x="834" y="551" type="line"/>
      <point x="834" y="622" type="line"/>
      <point x="250" y="622" type="line"/>
      <point x="250" y="551" type="line"/>
      <point x="555" y="551" type="line"/>
      <point x="539" y="404"/>
      <point x="310" y="370"/>
      <point x="310" y="192" type="curve" smooth="yes"/>
      <point x="310" y="51"/>
      <point x="416" y="-10"/>
    </contour>
    <contour>
      <point x="243" y="286" type="curve" smooth="yes"/>
      <point x="162" y="286"/>
      <point x="160" y="352"/>
      <point x="160" y="408" type="curve" smooth="yes"/>
      <point x="160" y="537" type="line"/>
      <point x="354" y="322" type="line"/>
      <point x="319" y="295"/>
      <point x="281" y="286"/>
    </contour>
    <contour>
      <point x="235" y="215" type="curve" smooth="yes"/>
      <point x="312" y="215"/>
      <point x="375" y="236"/>
      <point x="452" y="312" type="curve"/>
      <point x="194" y="593" type="line"/>
      <point x="80" y="593" type="line"/>
      <point x="80" y="411" type="line" smooth="yes"/>
      <point x="80" y="298"/>
      <point x="121" y="215"/>
    </contour>
    <contour>
      <point x="0" y="551" type="line"/>
      <point x="380" y="551" type="line"/>
      <point x="380" y="622" type="line"/>
      <point x="0" y="622" type="line"/>
    </contour>
    <contour>
      <point x="667" y="96" type="curve"/>
      <point x="603" y="112"/>
      <point x="576" y="150"/>
      <point x="576" y="181" type="curve" smooth="yes"/>
      <point x="576" y="208"/>
      <point x="592" y="250"/>
      <point x="641" y="250" type="curve" smooth="yes"/>
      <point x="682" y="250"/>
      <point x="709" y="220"/>
      <point x="709" y="181" type="curve" smooth="yes"/>
      <point x="709" y="147"/>
      <point x="695" y="117"/>
    </contour>
  </outline>
</glyph>
<glyph name="Ssa.half" format="2">
  <advance width="390"/>
  <outline>
    <contour>
      <point x="0" y="622" type="line"/>
      <point x="0" y="551" type="line"/>
      <point x="80" y="551" type="line"/>
      <point x="80" y="358" type="line" smooth="yes"/>
      <point x="80" y="236"/>
      <point x="126" y="146"/>
      <point x="255" y="146" type="curve" smooth="yes"/>
      <point x="345" y="146"/>
      <point x="426" y="171"/>
      <point x="510" y="263" type="curve"/>
      <point x="464" y="320" type="line"/>
      <point x="456" y="310"/>
      <point x="448" y="301"/>
      <point x="440" y="293" type="curve"/>
      <point x="205" y="551" type="line"/>
      <point x="400" y="551" type="line"/>
      <point x="400" y="622" type="line"/>
    </contour>
    <contour>
      <point x="263" y="217" type="curve" smooth="yes"/>
      <point x="163" y="217"/>
      <point x="160" y="292"/>
      <point x="160" y="355" type="curve" smooth="yes"/>
      <point x="160" y="507" type="line"/>
      <point x="390" y="253" type="line"/>
      <point x="348" y="227"/>
      <point x="306" y="217"/>
    </contour>
  </outline>
</glyph>
<glyph name="TRa" format="2">
  <advance width="592"/>
  <outline>
    <contour>
      <point x="445" y="447" type="curve"/>
      <point x="445" y="364" type="line"/>
      <point x="342" y="304"/>
      <point x="231" y="227"/>
      <point x="129" y="151" type="curve"/>
      <point x="95" y="216" type="line"/>
      <point x="208" y="298"/>
      <point x="331" y="383"/>
    </contour>
    <contour>
      <point x="432" y="0" type="line"/>
      <point x="432" y="551" type="line"/>
      <point x="0" y="551" type="line"/>
      <point x="0" y="622" type="line"/>
      <point x="602" y="622" type="line"/>
      <point x="602" y="551" type="line"/>
      <point x="512" y="551" type="line"/>
      <point x="512" y="0" type="line"/>
    </contour>
    <contour>
      <point x="445" y="231" type="curve"/>
      <point x="445" y="148" type="line"/>
      <point x="342" y="88"/>
      <point x="231" y="11"/>
      <point x="129" y="-65" type="curve"/>
      <point x="95" y="0" type="line"/>
      <point x="208" y="82"/>
      <point x="331" y="167"/>
    </contour>
  </outline>
</glyph>
